G75*
G70*
%OFA0B0*%
%FSLAX24Y24*%
%IPPOS*%
%LPD*%
%AMOC8*
5,1,8,0,0,1.08239X$1,22.5*
%
%ADD10C,0.0750*%
%ADD11C,0.1050*%
%ADD12C,0.1000*%
%ADD13R,0.0236X0.0866*%
%ADD14R,0.0551X0.0591*%
%ADD15R,0.0630X0.0512*%
%ADD16C,0.0053*%
%ADD17C,0.0036*%
%ADD18R,0.0354X0.0512*%
%ADD19R,0.0512X0.0354*%
%ADD20R,0.0394X0.0433*%
%ADD21OC8,0.0600*%
%ADD22R,0.0364X0.0472*%
%ADD23C,0.0554*%
%ADD24R,0.0630X0.1181*%
%ADD25R,0.0354X0.0394*%
%ADD26R,0.0394X0.1024*%
%ADD27R,0.1024X0.0394*%
%ADD28R,0.0394X0.1299*%
%ADD29R,0.1299X0.0394*%
%ADD30C,0.0500*%
%ADD31C,0.0160*%
%ADD32R,0.0396X0.0396*%
%ADD33OC8,0.0357*%
%ADD34C,0.0100*%
%ADD35R,0.0357X0.0357*%
%ADD36C,0.0500*%
%ADD37C,0.0317*%
%ADD38C,0.0315*%
%ADD39C,0.0278*%
%ADD40C,0.0120*%
%ADD41C,0.0357*%
%ADD42C,0.0157*%
%ADD43C,0.0118*%
D10*
X030882Y012016D03*
D11*
X031886Y013020D03*
X029878Y013020D03*
X029878Y011012D03*
X031886Y011012D03*
D12*
X004469Y012866D03*
D13*
X042730Y012107D03*
X043230Y012107D03*
X043730Y012107D03*
X044230Y012107D03*
X044230Y014154D03*
X043730Y014154D03*
X043230Y014154D03*
X042730Y014154D03*
X052606Y010634D03*
X053106Y010634D03*
X053606Y010634D03*
X054106Y010634D03*
X054606Y010634D03*
X055106Y010634D03*
X055606Y010634D03*
X055606Y008587D03*
X055106Y008587D03*
X054606Y008587D03*
X054106Y008587D03*
X053606Y008587D03*
X053106Y008587D03*
X052606Y008587D03*
X063106Y008587D03*
X063606Y008587D03*
X064106Y008587D03*
X064606Y008587D03*
X065106Y008587D03*
X065606Y008587D03*
X066106Y008587D03*
X066106Y010634D03*
X065606Y010634D03*
X065106Y010634D03*
X064606Y010634D03*
X064106Y010634D03*
X063606Y010634D03*
X063106Y010634D03*
X070356Y014587D03*
X070856Y014587D03*
X071356Y014587D03*
X071856Y014587D03*
X071856Y016634D03*
X071356Y016634D03*
X070856Y016634D03*
X070356Y016634D03*
D14*
X069197Y012111D03*
X068016Y012111D03*
X066697Y012111D03*
X065516Y012111D03*
X064197Y012111D03*
X063016Y012111D03*
X061697Y012111D03*
X060516Y012111D03*
X059197Y012111D03*
X058016Y012111D03*
X056697Y012111D03*
X055516Y012111D03*
X054197Y012111D03*
X053016Y012111D03*
X051697Y012111D03*
X050516Y012111D03*
D15*
X049606Y008985D03*
X048606Y008985D03*
X048606Y008236D03*
X049606Y008236D03*
X058606Y008236D03*
X059606Y008236D03*
X060606Y008236D03*
X060606Y008985D03*
X059606Y008985D03*
X058606Y008985D03*
X069106Y009236D03*
X070106Y009236D03*
X071106Y009236D03*
X071106Y009985D03*
X070106Y009985D03*
X069106Y009985D03*
D16*
X040371Y011432D02*
X039833Y011432D01*
X039833Y012010D01*
X040371Y012010D01*
X040371Y011432D01*
X040371Y011484D02*
X039833Y011484D01*
X039833Y011536D02*
X040371Y011536D01*
X040371Y011588D02*
X039833Y011588D01*
X039833Y011640D02*
X040371Y011640D01*
X040371Y011692D02*
X039833Y011692D01*
X039833Y011744D02*
X040371Y011744D01*
X040371Y011796D02*
X039833Y011796D01*
X039833Y011848D02*
X040371Y011848D01*
X040371Y011900D02*
X039833Y011900D01*
X039833Y011952D02*
X040371Y011952D01*
X040371Y012004D02*
X039833Y012004D01*
D17*
X039765Y012172D02*
X039765Y012450D01*
X039849Y012450D01*
X039849Y012172D01*
X039765Y012172D01*
X039765Y012207D02*
X039849Y012207D01*
X039849Y012242D02*
X039765Y012242D01*
X039765Y012277D02*
X039849Y012277D01*
X039849Y012312D02*
X039765Y012312D01*
X039765Y012347D02*
X039849Y012347D01*
X039849Y012382D02*
X039765Y012382D01*
X039765Y012417D02*
X039849Y012417D01*
X039962Y012450D02*
X039962Y012172D01*
X039962Y012450D02*
X040046Y012450D01*
X040046Y012172D01*
X039962Y012172D01*
X039962Y012207D02*
X040046Y012207D01*
X040046Y012242D02*
X039962Y012242D01*
X039962Y012277D02*
X040046Y012277D01*
X040046Y012312D02*
X039962Y012312D01*
X039962Y012347D02*
X040046Y012347D01*
X040046Y012382D02*
X039962Y012382D01*
X039962Y012417D02*
X040046Y012417D01*
X040159Y012450D02*
X040159Y012172D01*
X040159Y012450D02*
X040243Y012450D01*
X040243Y012172D01*
X040159Y012172D01*
X040159Y012207D02*
X040243Y012207D01*
X040243Y012242D02*
X040159Y012242D01*
X040159Y012277D02*
X040243Y012277D01*
X040243Y012312D02*
X040159Y012312D01*
X040159Y012347D02*
X040243Y012347D01*
X040243Y012382D02*
X040159Y012382D01*
X040159Y012417D02*
X040243Y012417D01*
X040356Y012450D02*
X040356Y012172D01*
X040356Y012450D02*
X040440Y012450D01*
X040440Y012172D01*
X040356Y012172D01*
X040356Y012207D02*
X040440Y012207D01*
X040440Y012242D02*
X040356Y012242D01*
X040356Y012277D02*
X040440Y012277D01*
X040440Y012312D02*
X040356Y012312D01*
X040356Y012347D02*
X040440Y012347D01*
X040440Y012382D02*
X040356Y012382D01*
X040356Y012417D02*
X040440Y012417D01*
X040554Y012058D02*
X040832Y012058D01*
X040832Y011974D01*
X040554Y011974D01*
X040554Y012058D01*
X040554Y012009D02*
X040832Y012009D01*
X040832Y012044D02*
X040554Y012044D01*
X040554Y011861D02*
X040832Y011861D01*
X040832Y011777D01*
X040554Y011777D01*
X040554Y011861D01*
X040554Y011812D02*
X040832Y011812D01*
X040832Y011847D02*
X040554Y011847D01*
X040554Y011664D02*
X040832Y011664D01*
X040832Y011580D01*
X040554Y011580D01*
X040554Y011664D01*
X040554Y011615D02*
X040832Y011615D01*
X040832Y011650D02*
X040554Y011650D01*
X040554Y011467D02*
X040832Y011467D01*
X040832Y011383D01*
X040554Y011383D01*
X040554Y011467D01*
X040554Y011418D02*
X040832Y011418D01*
X040832Y011453D02*
X040554Y011453D01*
X040440Y011269D02*
X040440Y010991D01*
X040356Y010991D01*
X040356Y011269D01*
X040440Y011269D01*
X040440Y011026D02*
X040356Y011026D01*
X040356Y011061D02*
X040440Y011061D01*
X040440Y011096D02*
X040356Y011096D01*
X040356Y011131D02*
X040440Y011131D01*
X040440Y011166D02*
X040356Y011166D01*
X040356Y011201D02*
X040440Y011201D01*
X040440Y011236D02*
X040356Y011236D01*
X040243Y011269D02*
X040243Y010991D01*
X040159Y010991D01*
X040159Y011269D01*
X040243Y011269D01*
X040243Y011026D02*
X040159Y011026D01*
X040159Y011061D02*
X040243Y011061D01*
X040243Y011096D02*
X040159Y011096D01*
X040159Y011131D02*
X040243Y011131D01*
X040243Y011166D02*
X040159Y011166D01*
X040159Y011201D02*
X040243Y011201D01*
X040243Y011236D02*
X040159Y011236D01*
X040046Y011269D02*
X040046Y010991D01*
X039962Y010991D01*
X039962Y011269D01*
X040046Y011269D01*
X040046Y011026D02*
X039962Y011026D01*
X039962Y011061D02*
X040046Y011061D01*
X040046Y011096D02*
X039962Y011096D01*
X039962Y011131D02*
X040046Y011131D01*
X040046Y011166D02*
X039962Y011166D01*
X039962Y011201D02*
X040046Y011201D01*
X040046Y011236D02*
X039962Y011236D01*
X039849Y011269D02*
X039849Y010991D01*
X039765Y010991D01*
X039765Y011269D01*
X039849Y011269D01*
X039849Y011026D02*
X039765Y011026D01*
X039765Y011061D02*
X039849Y011061D01*
X039849Y011096D02*
X039765Y011096D01*
X039765Y011131D02*
X039849Y011131D01*
X039849Y011166D02*
X039765Y011166D01*
X039765Y011201D02*
X039849Y011201D01*
X039849Y011236D02*
X039765Y011236D01*
X039651Y011383D02*
X039373Y011383D01*
X039373Y011467D01*
X039651Y011467D01*
X039651Y011383D01*
X039651Y011418D02*
X039373Y011418D01*
X039373Y011453D02*
X039651Y011453D01*
X039651Y011580D02*
X039373Y011580D01*
X039373Y011664D01*
X039651Y011664D01*
X039651Y011580D01*
X039651Y011615D02*
X039373Y011615D01*
X039373Y011650D02*
X039651Y011650D01*
X039651Y011777D02*
X039373Y011777D01*
X039373Y011861D01*
X039651Y011861D01*
X039651Y011777D01*
X039651Y011812D02*
X039373Y011812D01*
X039373Y011847D02*
X039651Y011847D01*
X039651Y011974D02*
X039373Y011974D01*
X039373Y012058D01*
X039651Y012058D01*
X039651Y011974D01*
X039651Y012009D02*
X039373Y012009D01*
X039373Y012044D02*
X039651Y012044D01*
D18*
X034406Y012016D03*
X033657Y012016D03*
X044772Y015359D03*
X045520Y015359D03*
D19*
X041634Y012551D03*
X041634Y011803D03*
X040933Y010433D03*
X040295Y010449D03*
X039429Y010410D03*
X037575Y011248D03*
X035213Y011248D03*
X035213Y011996D03*
X037575Y011996D03*
X039429Y009662D03*
X040295Y009701D03*
X040933Y009685D03*
X047740Y008036D03*
X047740Y007288D03*
X028205Y011288D03*
X028205Y012036D03*
X027496Y012036D03*
X027496Y012784D03*
D20*
X039012Y013866D03*
X039681Y013866D03*
X040232Y013866D03*
X040902Y013866D03*
X041020Y013158D03*
X040350Y013158D03*
X040165Y008973D03*
X039496Y008973D03*
D21*
X067224Y008111D03*
X070224Y007111D03*
X072224Y008111D03*
D22*
X036723Y012016D03*
X036064Y012016D03*
D23*
X043866Y017429D03*
X045047Y017429D03*
X059425Y017429D03*
X060606Y017429D03*
D24*
X048067Y016103D03*
X048067Y014370D03*
D25*
X042972Y007284D03*
X042146Y007284D03*
D26*
X038358Y010587D03*
X046429Y010587D03*
X046429Y013540D03*
X038358Y013540D03*
D27*
X040917Y016099D03*
X043870Y016099D03*
X043870Y008028D03*
X040917Y008028D03*
D28*
X038358Y008481D03*
X046429Y008481D03*
X046429Y015646D03*
X038358Y015646D03*
D29*
X038811Y016099D03*
X045976Y016099D03*
X045976Y008028D03*
X038811Y008028D03*
D30*
X041000Y012567D03*
D31*
X008974Y005991D02*
X008108Y006156D01*
X007275Y006446D01*
X006493Y006853D01*
X005779Y007369D01*
X005146Y007983D01*
X004610Y008683D01*
X004180Y009452D01*
X003867Y010276D01*
X003676Y011137D01*
X003641Y011618D01*
X003852Y011618D01*
X003994Y010724D01*
X003994Y010724D01*
X004277Y009854D01*
X004691Y009039D01*
X005228Y008299D01*
X005873Y007651D01*
X006611Y007111D01*
X006611Y007111D01*
X007423Y006692D01*
X008292Y006406D01*
X009194Y006257D01*
X010108Y006251D01*
X011012Y006388D01*
X011884Y006663D01*
X011884Y006663D01*
X012703Y007071D01*
X013448Y007601D01*
X014101Y008240D01*
X014101Y008240D01*
X014101Y008240D01*
X014647Y008974D01*
X015072Y009783D01*
X015366Y010649D01*
X015517Y011523D01*
X027779Y011525D01*
X027769Y011489D01*
X027769Y011296D01*
X028196Y011296D01*
X028196Y011279D01*
X027769Y011279D01*
X027769Y011087D01*
X027781Y011041D01*
X027805Y011000D01*
X027838Y010966D01*
X027879Y010943D01*
X027925Y010931D01*
X028196Y010931D01*
X028196Y011279D01*
X028213Y011279D01*
X028213Y010931D01*
X028484Y010931D01*
X028530Y010943D01*
X028571Y010966D01*
X028605Y011000D01*
X028628Y011041D01*
X028641Y011087D01*
X028641Y011279D01*
X028213Y011279D01*
X028213Y011296D01*
X028641Y011296D01*
X028641Y011489D01*
X028631Y011525D01*
X029394Y011525D01*
X029347Y011478D01*
X029291Y011405D01*
X029244Y011325D01*
X029209Y011239D01*
X029185Y011150D01*
X029177Y011092D01*
X029798Y011092D01*
X029798Y010932D01*
X029177Y010932D01*
X029185Y010874D01*
X029209Y010785D01*
X029244Y010700D01*
X029291Y010620D01*
X029347Y010546D01*
X029366Y010528D01*
X015995Y010528D01*
X015975Y010534D01*
X015900Y010528D01*
X015826Y010528D01*
X015806Y010519D01*
X015784Y010517D01*
X015718Y010483D01*
X015649Y010454D01*
X015634Y010439D01*
X015615Y010429D01*
X015567Y010372D01*
X015514Y010319D01*
X015506Y010299D01*
X015492Y010283D01*
X015470Y010212D01*
X015441Y010143D01*
X015441Y010129D01*
X015316Y009776D01*
X014932Y008983D01*
X014436Y008253D01*
X013841Y007604D01*
X013157Y007047D01*
X012401Y006595D01*
X011586Y006258D01*
X010731Y006042D01*
X009854Y005952D01*
X008974Y005991D01*
X009123Y006269D02*
X007784Y006269D01*
X008225Y006428D02*
X007328Y006428D01*
X007322Y006745D02*
X006702Y006745D01*
X006424Y006903D02*
X007014Y006903D01*
X007006Y006586D02*
X007746Y006586D01*
X008348Y006111D02*
X011003Y006111D01*
X011138Y006428D02*
X011996Y006428D01*
X012048Y006745D02*
X012651Y006745D01*
X012917Y006903D02*
X012366Y006903D01*
X012379Y006586D02*
X011640Y006586D01*
X011614Y006269D02*
X010225Y006269D01*
X012684Y007062D02*
X013175Y007062D01*
X013370Y007220D02*
X012912Y007220D01*
X012703Y007071D02*
X012703Y007071D01*
X013135Y007379D02*
X013565Y007379D01*
X013759Y007537D02*
X013358Y007537D01*
X013448Y007601D02*
X013448Y007601D01*
X013544Y007696D02*
X013925Y007696D01*
X014070Y007854D02*
X013706Y007854D01*
X013868Y008013D02*
X014216Y008013D01*
X014361Y008171D02*
X014030Y008171D01*
X014167Y008330D02*
X014488Y008330D01*
X014596Y008488D02*
X014285Y008488D01*
X014403Y008647D02*
X014703Y008647D01*
X014811Y008805D02*
X014521Y008805D01*
X014639Y008964D02*
X014918Y008964D01*
X014999Y009122D02*
X014725Y009122D01*
X014647Y008974D02*
X014647Y008974D01*
X014808Y009281D02*
X015076Y009281D01*
X015152Y009439D02*
X014891Y009439D01*
X014975Y009598D02*
X015229Y009598D01*
X015306Y009756D02*
X015058Y009756D01*
X015072Y009783D02*
X015072Y009783D01*
X015117Y009915D02*
X015365Y009915D01*
X015421Y010073D02*
X015171Y010073D01*
X015224Y010232D02*
X015476Y010232D01*
X015582Y010390D02*
X015278Y010390D01*
X015332Y010549D02*
X029345Y010549D01*
X029241Y010707D02*
X015376Y010707D01*
X015366Y010649D02*
X015366Y010649D01*
X015404Y010866D02*
X029187Y010866D01*
X029194Y011183D02*
X028641Y011183D01*
X028641Y011341D02*
X029254Y011341D01*
X029368Y011500D02*
X028638Y011500D01*
X028213Y011183D02*
X028196Y011183D01*
X028196Y011024D02*
X028213Y011024D01*
X028619Y011024D02*
X029798Y011024D01*
X029958Y011024D02*
X031806Y011024D01*
X031806Y011092D02*
X031806Y010932D01*
X031185Y010932D01*
X031193Y010874D01*
X031217Y010785D01*
X031252Y010700D01*
X031298Y010620D01*
X031355Y010546D01*
X031373Y010528D01*
X030390Y010528D01*
X030409Y010546D01*
X030465Y010620D01*
X030512Y010700D01*
X030547Y010785D01*
X030571Y010874D01*
X030579Y010932D01*
X029958Y010932D01*
X029958Y011092D01*
X030579Y011092D01*
X030571Y011150D01*
X030547Y011239D01*
X030512Y011325D01*
X030468Y011399D01*
X030714Y011281D01*
X031050Y011281D01*
X031295Y011399D01*
X031252Y011325D01*
X031217Y011239D01*
X031193Y011150D01*
X031185Y011092D01*
X031806Y011092D01*
X031966Y011092D02*
X032586Y011092D01*
X032579Y011150D01*
X032555Y011239D01*
X032519Y011325D01*
X032473Y011405D01*
X032417Y011478D01*
X032369Y011526D01*
X034807Y011526D01*
X034789Y011495D01*
X034777Y011449D01*
X034777Y011257D01*
X035204Y011257D01*
X035204Y011240D01*
X034777Y011240D01*
X034777Y011047D01*
X034789Y011002D01*
X034813Y010961D01*
X034846Y010927D01*
X034887Y010903D01*
X034933Y010891D01*
X035204Y010891D01*
X035204Y011240D01*
X035221Y011240D01*
X035221Y011257D01*
X035649Y011257D01*
X035649Y011449D01*
X035636Y011495D01*
X035618Y011526D01*
X037169Y011526D01*
X037151Y011495D01*
X037139Y011449D01*
X037139Y011257D01*
X037566Y011257D01*
X037566Y011240D01*
X037139Y011240D01*
X037139Y011047D01*
X037151Y011002D01*
X037175Y010961D01*
X037208Y010927D01*
X037249Y010903D01*
X037295Y010891D01*
X037566Y010891D01*
X037566Y011240D01*
X037583Y011240D01*
X037583Y010891D01*
X037854Y010891D01*
X037900Y010903D01*
X037941Y010927D01*
X037975Y010961D01*
X037981Y010972D01*
X037981Y010605D01*
X038340Y010605D01*
X038340Y010568D01*
X038377Y010568D01*
X038377Y009895D01*
X038579Y009895D01*
X038625Y009907D01*
X038666Y009931D01*
X038691Y009956D01*
X038691Y009249D01*
X038666Y009274D01*
X038625Y009298D01*
X038579Y009310D01*
X038377Y009310D01*
X038377Y008499D01*
X038691Y008499D01*
X038691Y008476D01*
X038697Y008462D01*
X038377Y008462D01*
X038377Y008499D01*
X038340Y008499D01*
X038340Y009310D01*
X038138Y009310D01*
X038092Y009298D01*
X038051Y009274D01*
X038017Y009241D01*
X037994Y009200D01*
X037981Y009154D01*
X037981Y008499D01*
X038340Y008499D01*
X038340Y008462D01*
X038340Y008405D01*
X038377Y008405D01*
X038377Y008462D01*
X038340Y008462D01*
X037981Y008462D01*
X037981Y008135D01*
X036263Y009853D01*
X036077Y010053D01*
X036077Y010053D01*
X035599Y010352D01*
X035060Y010517D01*
X034865Y010524D01*
X034857Y010528D01*
X034770Y010528D01*
X034683Y010531D01*
X034675Y010528D01*
X032398Y010528D01*
X032417Y010546D01*
X032473Y010620D01*
X032519Y010700D01*
X032555Y010785D01*
X032579Y010874D01*
X032586Y010932D01*
X031966Y010932D01*
X031966Y011092D01*
X031966Y011024D02*
X034783Y011024D01*
X034777Y011183D02*
X032570Y011183D01*
X032510Y011341D02*
X034777Y011341D01*
X034792Y011500D02*
X032395Y011500D01*
X031262Y011341D02*
X031174Y011341D01*
X031202Y011183D02*
X030562Y011183D01*
X030590Y011341D02*
X030502Y011341D01*
X030569Y010866D02*
X031195Y010866D01*
X031249Y010707D02*
X030515Y010707D01*
X030411Y010549D02*
X031353Y010549D01*
X032419Y010549D02*
X037981Y010549D01*
X037981Y010568D02*
X037981Y010051D01*
X037994Y010006D01*
X038017Y009965D01*
X038051Y009931D01*
X038092Y009907D01*
X038138Y009895D01*
X038340Y009895D01*
X038340Y010568D01*
X037981Y010568D01*
X037981Y010707D02*
X032522Y010707D01*
X032576Y010866D02*
X037981Y010866D01*
X038011Y011198D02*
X038011Y011240D01*
X037583Y011240D01*
X037583Y011257D01*
X038011Y011257D01*
X038011Y011449D01*
X037998Y011495D01*
X037980Y011526D01*
X038719Y011527D01*
X038691Y011457D01*
X038691Y011218D01*
X038666Y011243D01*
X038625Y011266D01*
X038579Y011279D01*
X038377Y011279D01*
X038377Y010605D01*
X038691Y010605D01*
X038691Y010568D01*
X038377Y010568D01*
X038377Y010605D01*
X038340Y010605D01*
X038340Y011279D01*
X038138Y011279D01*
X038092Y011266D01*
X038051Y011243D01*
X038017Y011209D01*
X038011Y011198D01*
X038011Y011341D02*
X038691Y011341D01*
X038708Y011500D02*
X037996Y011500D01*
X038340Y011183D02*
X038377Y011183D01*
X038377Y011024D02*
X038340Y011024D01*
X038340Y010866D02*
X038377Y010866D01*
X038377Y010707D02*
X038340Y010707D01*
X038340Y010549D02*
X038377Y010549D01*
X038377Y010390D02*
X038340Y010390D01*
X038340Y010232D02*
X038377Y010232D01*
X038377Y010073D02*
X038340Y010073D01*
X038340Y009915D02*
X038377Y009915D01*
X038637Y009915D02*
X038691Y009915D01*
X038691Y009756D02*
X036360Y009756D01*
X036206Y009915D02*
X038080Y009915D01*
X037981Y010073D02*
X036045Y010073D01*
X035792Y010232D02*
X037981Y010232D01*
X037981Y010390D02*
X035475Y010390D01*
X035599Y010352D02*
X035599Y010352D01*
X035060Y010517D02*
X035060Y010517D01*
X035221Y010891D02*
X035492Y010891D01*
X035538Y010903D01*
X035579Y010927D01*
X035613Y010961D01*
X035636Y011002D01*
X035649Y011047D01*
X035649Y011240D01*
X035221Y011240D01*
X035221Y010891D01*
X035221Y011024D02*
X035204Y011024D01*
X035204Y011183D02*
X035221Y011183D01*
X035649Y011183D02*
X037139Y011183D01*
X037139Y011341D02*
X035649Y011341D01*
X035634Y011500D02*
X037154Y011500D01*
X037566Y011183D02*
X037583Y011183D01*
X037566Y011024D02*
X037583Y011024D01*
X037145Y011024D02*
X035642Y011024D01*
X038685Y012000D02*
X038685Y012020D01*
X038972Y012431D02*
X039411Y012294D01*
X039439Y012291D01*
X039463Y012277D01*
X039473Y012274D01*
X039549Y012274D01*
X039549Y013452D01*
X039402Y013452D01*
X039334Y013520D01*
X039319Y013506D01*
X039278Y013482D01*
X039232Y013470D01*
X039030Y013470D01*
X039030Y013848D01*
X038993Y013848D01*
X038993Y013470D01*
X038791Y013470D01*
X038745Y013482D01*
X038735Y013488D01*
X038735Y013004D01*
X038723Y012958D01*
X038699Y012917D01*
X038666Y012884D01*
X038625Y012860D01*
X038579Y012848D01*
X038377Y012848D01*
X038377Y013521D01*
X038689Y013521D01*
X038671Y013539D01*
X038660Y013558D01*
X038377Y013558D01*
X038377Y013521D01*
X038340Y013521D01*
X038340Y012848D01*
X038138Y012848D01*
X038092Y012860D01*
X038051Y012884D01*
X038017Y012917D01*
X037994Y012958D01*
X037981Y013004D01*
X037981Y013521D01*
X038340Y013521D01*
X038340Y013558D01*
X038340Y014231D01*
X038138Y014231D01*
X038092Y014219D01*
X038051Y014195D01*
X038017Y014162D01*
X037994Y014121D01*
X037981Y014075D01*
X037981Y013558D01*
X038340Y013558D01*
X038377Y013558D01*
X038377Y014231D01*
X038579Y014231D01*
X038625Y014219D01*
X038666Y014195D01*
X038670Y014191D01*
X038671Y014193D01*
X038704Y014227D01*
X038745Y014251D01*
X038791Y014263D01*
X038993Y014263D01*
X038993Y013885D01*
X039030Y013885D01*
X039030Y014263D01*
X039232Y014263D01*
X039278Y014251D01*
X039319Y014227D01*
X039334Y014213D01*
X039402Y014281D01*
X040511Y014281D01*
X040567Y014225D01*
X040623Y014281D01*
X041180Y014281D01*
X041297Y014165D01*
X041297Y013572D01*
X041299Y013572D01*
X041415Y013456D01*
X041415Y013416D01*
X042311Y013416D01*
X042406Y013377D01*
X042839Y012943D01*
X042912Y012871D01*
X042951Y012776D01*
X042951Y012717D01*
X042993Y012675D01*
X043002Y012684D01*
X043043Y012707D01*
X043089Y012720D01*
X043230Y012720D01*
X043230Y012107D01*
X043230Y012107D01*
X043230Y012720D01*
X043372Y012720D01*
X043418Y012707D01*
X043459Y012684D01*
X043480Y012662D01*
X043502Y012684D01*
X043543Y012707D01*
X043589Y012720D01*
X043730Y012720D01*
X043730Y012107D01*
X043730Y012107D01*
X043730Y012107D01*
X043230Y012107D01*
X043230Y012107D01*
X043230Y012107D01*
X043230Y011494D01*
X043089Y011494D01*
X043043Y011506D01*
X043002Y011529D01*
X042993Y011538D01*
X042930Y011475D01*
X042920Y011475D01*
X042614Y011170D01*
X042535Y011091D01*
X042433Y011049D01*
X041705Y011049D01*
X041602Y011091D01*
X041591Y011103D01*
X041591Y010593D01*
X041553Y010501D01*
X041387Y010336D01*
X041387Y010174D01*
X041271Y010058D01*
X040595Y010058D01*
X040579Y010074D01*
X040132Y010074D01*
X040132Y010058D01*
X040287Y010058D01*
X040287Y009710D01*
X040304Y009710D01*
X040304Y010058D01*
X040575Y010058D01*
X040621Y010046D01*
X040635Y010038D01*
X040653Y010042D01*
X040924Y010042D01*
X040924Y009694D01*
X040924Y009677D01*
X040731Y009677D01*
X040731Y009692D01*
X040304Y009692D01*
X040304Y009710D01*
X040497Y009710D01*
X040497Y009694D01*
X040924Y009694D01*
X040942Y009694D01*
X041369Y009694D01*
X041369Y009886D01*
X041357Y009932D01*
X041333Y009973D01*
X041299Y010007D01*
X041258Y010030D01*
X041213Y010042D01*
X040942Y010042D01*
X040942Y009694D01*
X040942Y009677D01*
X041369Y009677D01*
X041369Y009484D01*
X041357Y009439D01*
X047417Y009439D01*
X047417Y009281D02*
X046726Y009281D01*
X046737Y009274D02*
X046695Y009298D01*
X046650Y009310D01*
X046448Y009310D01*
X046448Y008499D01*
X046806Y008499D01*
X046806Y009154D01*
X046794Y009200D01*
X046770Y009241D01*
X046737Y009274D01*
X046806Y009122D02*
X047417Y009122D01*
X047417Y008964D02*
X046806Y008964D01*
X046806Y008805D02*
X047417Y008805D01*
X047417Y008647D02*
X046806Y008647D01*
X046806Y008462D02*
X046448Y008462D01*
X046448Y008499D01*
X046411Y008499D01*
X046411Y009310D01*
X046209Y009310D01*
X046163Y009298D01*
X046122Y009274D01*
X046088Y009241D01*
X046065Y009200D01*
X046052Y009154D01*
X046052Y008499D01*
X046411Y008499D01*
X046411Y008462D01*
X046411Y008405D01*
X046448Y008405D01*
X046448Y008462D01*
X046411Y008462D01*
X046052Y008462D01*
X046052Y008405D01*
X045995Y008405D01*
X045995Y008046D01*
X046052Y008046D01*
X046052Y008009D01*
X045995Y008009D01*
X045995Y007651D01*
X046650Y007651D01*
X046695Y007663D01*
X046737Y007687D01*
X046770Y007720D01*
X046794Y007762D01*
X046806Y007807D01*
X046806Y008462D01*
X046806Y008330D02*
X047346Y008330D01*
X047213Y008330D01*
X047317Y008282D02*
X047304Y008237D01*
X047304Y008044D01*
X047417Y008044D01*
X047417Y008027D01*
X047304Y008027D01*
X047304Y007835D01*
X047317Y007789D01*
X047340Y007748D01*
X047374Y007715D01*
X047415Y007691D01*
X047417Y007690D01*
X047417Y007663D01*
X047402Y007663D01*
X047286Y007547D01*
X047286Y007542D01*
X043348Y007542D01*
X043348Y007563D01*
X043232Y007679D01*
X042713Y007679D01*
X042597Y007563D01*
X042597Y007005D01*
X042713Y006889D01*
X043232Y006889D01*
X043348Y007005D01*
X043348Y007026D01*
X047289Y007026D01*
X047402Y006912D01*
X047417Y006912D01*
X047417Y006591D01*
X039526Y006591D01*
X038465Y007651D01*
X038793Y007651D01*
X038793Y008009D01*
X038829Y008009D01*
X038829Y007651D01*
X039484Y007651D01*
X039530Y007663D01*
X039571Y007687D01*
X039605Y007720D01*
X039628Y007762D01*
X039641Y007807D01*
X039641Y008009D01*
X038829Y008009D01*
X038829Y008046D01*
X038829Y008282D01*
X038809Y008302D01*
X038793Y008319D01*
X038793Y008046D01*
X038829Y008046D01*
X039641Y008046D01*
X039641Y008226D01*
X040226Y008225D01*
X040226Y008046D01*
X040899Y008046D01*
X040899Y008009D01*
X040936Y008009D01*
X040936Y007651D01*
X041453Y007651D01*
X041499Y007663D01*
X041540Y007687D01*
X041573Y007720D01*
X041597Y007762D01*
X041609Y007807D01*
X041609Y008009D01*
X040936Y008009D01*
X040936Y008046D01*
X041609Y008046D01*
X041609Y008223D01*
X041743Y008223D01*
X041746Y007425D01*
X041746Y007374D01*
X041746Y007374D01*
X041746Y007373D01*
X041766Y007326D01*
X041770Y007315D01*
X041770Y007005D01*
X041886Y006889D01*
X042405Y006889D01*
X042521Y007005D01*
X042521Y007563D01*
X042405Y007679D01*
X042261Y007679D01*
X042258Y008481D01*
X042258Y008532D01*
X042258Y008533D01*
X042238Y008580D01*
X042219Y008627D01*
X042218Y008628D01*
X042182Y008663D01*
X042146Y008699D01*
X042145Y008700D01*
X042099Y008719D01*
X042052Y008739D01*
X042051Y008739D01*
X042050Y008739D01*
X042000Y008739D01*
X040542Y008741D01*
X040542Y008954D01*
X040184Y008954D01*
X040184Y008991D01*
X040542Y008991D01*
X040542Y009213D01*
X040530Y009259D01*
X040506Y009300D01*
X040473Y009333D01*
X040454Y009344D01*
X040575Y009344D01*
X040593Y009349D01*
X040608Y009340D01*
X040653Y009328D01*
X040924Y009328D01*
X040924Y009677D01*
X040942Y009677D01*
X040942Y009328D01*
X041213Y009328D01*
X041258Y009340D01*
X041299Y009364D01*
X041333Y009398D01*
X041357Y009439D01*
X041369Y009598D02*
X047417Y009598D01*
X047417Y009756D02*
X041369Y009756D01*
X041361Y009915D02*
X046150Y009915D01*
X046163Y009907D02*
X046209Y009895D01*
X046411Y009895D01*
X046411Y010568D01*
X046448Y010568D01*
X046448Y009895D01*
X046650Y009895D01*
X046695Y009907D01*
X046737Y009931D01*
X046770Y009965D01*
X046794Y010006D01*
X046806Y010051D01*
X046806Y010568D01*
X046448Y010568D01*
X046448Y010605D01*
X046806Y010605D01*
X046806Y011122D01*
X046794Y011168D01*
X046770Y011209D01*
X046737Y011243D01*
X046695Y011266D01*
X046650Y011279D01*
X046448Y011279D01*
X046448Y010605D01*
X046411Y010605D01*
X046411Y010568D01*
X046052Y010568D01*
X046052Y010051D01*
X046065Y010006D01*
X046088Y009965D01*
X046122Y009931D01*
X046163Y009907D01*
X046052Y010073D02*
X041286Y010073D01*
X041387Y010232D02*
X046052Y010232D01*
X046052Y010390D02*
X041441Y010390D01*
X041572Y010549D02*
X046052Y010549D01*
X046052Y010605D02*
X046411Y010605D01*
X046411Y011279D01*
X046209Y011279D01*
X046163Y011266D01*
X046122Y011243D01*
X046088Y011209D01*
X046065Y011168D01*
X046052Y011122D01*
X046052Y010605D01*
X046052Y010707D02*
X041591Y010707D01*
X041591Y010866D02*
X046052Y010866D01*
X046052Y011024D02*
X041591Y011024D01*
X041094Y011024D02*
X040656Y011024D01*
X040656Y010901D02*
X040656Y011167D01*
X040922Y011167D01*
X041049Y011294D01*
X041049Y011754D01*
X041044Y011758D01*
X041051Y011758D01*
X041146Y011797D01*
X041180Y011831D01*
X041180Y011716D01*
X041132Y011668D01*
X041094Y011577D01*
X041094Y010809D01*
X040649Y010809D01*
X040633Y010824D01*
X040579Y010824D01*
X040656Y010901D01*
X040620Y010866D02*
X041094Y010866D01*
X041094Y011183D02*
X040937Y011183D01*
X041049Y011341D02*
X041094Y011341D01*
X041094Y011500D02*
X041049Y011500D01*
X041049Y011658D02*
X041128Y011658D01*
X041166Y011817D02*
X041180Y011817D01*
X041634Y011803D02*
X041650Y011788D01*
X041650Y011437D01*
X041760Y011327D01*
X042378Y011327D01*
X042730Y011679D01*
X042730Y012107D01*
X042414Y012134D02*
X042085Y012134D01*
X042085Y012122D02*
X042085Y012225D01*
X042054Y012299D01*
X042057Y012305D01*
X042070Y012351D01*
X042070Y012543D01*
X041642Y012543D01*
X041642Y012560D01*
X042070Y012560D01*
X042070Y012752D01*
X042057Y012798D01*
X042034Y012839D01*
X042000Y012873D01*
X041959Y012896D01*
X041947Y012900D01*
X042153Y012900D01*
X042422Y012630D01*
X042414Y012622D01*
X042414Y011756D01*
X042263Y011605D01*
X042088Y011605D01*
X042088Y012063D01*
X042068Y012082D01*
X042085Y012122D01*
X042088Y011975D02*
X042414Y011975D01*
X042414Y011817D02*
X042088Y011817D01*
X042088Y011658D02*
X042316Y011658D01*
X042785Y011341D02*
X047417Y011341D01*
X047417Y011183D02*
X046785Y011183D01*
X046806Y011024D02*
X047417Y011024D01*
X047417Y010866D02*
X046806Y010866D01*
X046806Y010707D02*
X047417Y010707D01*
X047417Y010549D02*
X046806Y010549D01*
X046806Y010390D02*
X047417Y010390D01*
X047417Y010232D02*
X046806Y010232D01*
X046806Y010073D02*
X047417Y010073D01*
X047417Y009915D02*
X046708Y009915D01*
X046448Y009915D02*
X046411Y009915D01*
X046411Y010073D02*
X046448Y010073D01*
X046448Y010232D02*
X046411Y010232D01*
X046411Y010390D02*
X046448Y010390D01*
X046448Y010549D02*
X046411Y010549D01*
X046411Y010707D02*
X046448Y010707D01*
X046448Y010866D02*
X046411Y010866D01*
X046411Y011024D02*
X046448Y011024D01*
X046448Y011183D02*
X046411Y011183D01*
X046073Y011183D02*
X042627Y011183D01*
X042955Y011500D02*
X043066Y011500D01*
X043230Y011500D02*
X043230Y011500D01*
X043230Y011494D02*
X043372Y011494D01*
X043418Y011506D01*
X043459Y011529D01*
X043480Y011551D01*
X043502Y011529D01*
X043543Y011506D01*
X043589Y011494D01*
X043730Y011494D01*
X043730Y012107D01*
X043730Y012720D01*
X043872Y012720D01*
X043918Y012707D01*
X043959Y012684D01*
X043968Y012675D01*
X044030Y012738D01*
X044430Y012738D01*
X044547Y012622D01*
X044547Y011591D01*
X044430Y011475D01*
X044030Y011475D01*
X043968Y011538D01*
X043959Y011529D01*
X043918Y011506D01*
X043872Y011494D01*
X043730Y011494D01*
X043730Y012107D01*
X043432Y012107D01*
X043230Y012107D01*
X043230Y011494D01*
X043230Y011658D02*
X043230Y011658D01*
X043230Y011817D02*
X043230Y011817D01*
X043230Y011975D02*
X043230Y011975D01*
X043230Y012134D02*
X043230Y012134D01*
X043230Y012292D02*
X043230Y012292D01*
X043230Y012451D02*
X043230Y012451D01*
X043230Y012609D02*
X043230Y012609D01*
X042951Y012768D02*
X047417Y012768D01*
X047417Y012926D02*
X046775Y012926D01*
X046770Y012917D02*
X046794Y012958D01*
X046806Y013004D01*
X046806Y013521D01*
X046448Y013521D01*
X046448Y013558D01*
X046806Y013558D01*
X046806Y014075D01*
X046794Y014121D01*
X046770Y014162D01*
X046737Y014195D01*
X046695Y014219D01*
X046650Y014231D01*
X046448Y014231D01*
X046448Y013558D01*
X046411Y013558D01*
X046411Y014231D01*
X046209Y014231D01*
X046163Y014219D01*
X046122Y014195D01*
X046088Y014162D01*
X046065Y014121D01*
X046052Y014075D01*
X046052Y013558D01*
X046411Y013558D01*
X046411Y013521D01*
X046448Y013521D01*
X046448Y012848D01*
X046650Y012848D01*
X046695Y012860D01*
X046737Y012884D01*
X046770Y012917D01*
X046806Y013085D02*
X047417Y013085D01*
X047417Y013243D02*
X046806Y013243D01*
X046806Y013402D02*
X047417Y013402D01*
X047417Y013560D02*
X046806Y013560D01*
X046806Y013719D02*
X047417Y013719D01*
X047417Y013877D02*
X046806Y013877D01*
X046806Y014036D02*
X047417Y014036D01*
X047572Y014036D02*
X047213Y014036D01*
X047213Y014194D02*
X047572Y014194D01*
X047572Y014293D02*
X047572Y013756D01*
X047584Y013710D01*
X047608Y013669D01*
X047641Y013636D01*
X047682Y013612D01*
X047728Y013600D01*
X047989Y013600D01*
X047989Y014293D01*
X047572Y014293D01*
X047572Y014448D02*
X047572Y014985D01*
X047584Y015030D01*
X047608Y015071D01*
X047641Y015105D01*
X047682Y015129D01*
X047728Y015141D01*
X047989Y015141D01*
X047989Y014448D01*
X047989Y014293D01*
X048144Y014293D01*
X048144Y013600D01*
X048406Y013600D01*
X048451Y013612D01*
X048492Y013636D01*
X048526Y013669D01*
X048550Y013710D01*
X048562Y013756D01*
X048562Y014293D01*
X048144Y014293D01*
X048144Y014448D01*
X047989Y014448D01*
X047572Y014448D01*
X047572Y014511D02*
X047213Y014511D01*
X047213Y014353D02*
X047989Y014353D01*
X048144Y014353D02*
X070040Y014353D01*
X070040Y014511D02*
X048562Y014511D01*
X048562Y014448D02*
X048562Y014985D01*
X048550Y015030D01*
X048526Y015071D01*
X048492Y015105D01*
X048451Y015129D01*
X048406Y015141D01*
X048144Y015141D01*
X048144Y014448D01*
X048562Y014448D01*
X048562Y014670D02*
X070040Y014670D01*
X070040Y014828D02*
X048562Y014828D01*
X048561Y014987D02*
X070040Y014987D01*
X070040Y015102D02*
X070040Y014072D01*
X070078Y014034D01*
X070078Y013805D01*
X070121Y013703D01*
X071828Y011995D01*
X071828Y009726D01*
X071619Y009517D01*
X071619Y009574D01*
X071583Y009611D01*
X071619Y009647D01*
X071619Y010322D01*
X071503Y010439D01*
X071384Y010439D01*
X071384Y012272D01*
X071342Y012374D01*
X071264Y012453D01*
X069976Y013740D01*
X069874Y013782D01*
X066655Y013782D01*
X066691Y013870D01*
X066691Y014020D01*
X066634Y014158D01*
X066528Y014264D01*
X066390Y014322D01*
X066240Y014322D01*
X066102Y014264D01*
X065996Y014158D01*
X065974Y014105D01*
X059231Y014105D01*
X059231Y014147D01*
X059115Y014263D01*
X058554Y014263D01*
X058438Y014147D01*
X058438Y013586D01*
X058554Y013470D01*
X059115Y013470D01*
X059194Y013549D01*
X063828Y013549D01*
X063828Y012593D01*
X063723Y012488D01*
X063723Y011733D01*
X063736Y011720D01*
X063710Y011694D01*
X063710Y011265D01*
X063406Y011265D01*
X063384Y011244D01*
X063384Y011628D01*
X063489Y011733D01*
X063489Y012488D01*
X063373Y012604D01*
X062658Y012604D01*
X062542Y012488D01*
X062542Y011733D01*
X062658Y011617D01*
X062828Y011617D01*
X062828Y011187D01*
X062790Y011149D01*
X062790Y010119D01*
X062906Y010003D01*
X063306Y010003D01*
X063328Y010025D01*
X063328Y009282D01*
X063264Y009346D01*
X060933Y011677D01*
X060989Y011733D01*
X060989Y012488D01*
X060873Y012604D01*
X060306Y012604D01*
X060306Y012832D01*
X061419Y012832D01*
X061419Y012604D01*
X061339Y012604D01*
X061223Y012488D01*
X061223Y011733D01*
X061339Y011617D01*
X062054Y011617D01*
X062171Y011733D01*
X062171Y012488D01*
X062054Y012604D01*
X061975Y012604D01*
X061975Y013075D01*
X061933Y013177D01*
X061854Y013256D01*
X061764Y013346D01*
X061662Y013389D01*
X059972Y013389D01*
X059870Y013346D01*
X059792Y013268D01*
X059749Y013166D01*
X059749Y010187D01*
X059746Y010177D01*
X059749Y010132D01*
X059749Y010087D01*
X059753Y010077D01*
X059754Y010067D01*
X059774Y010026D01*
X059792Y009984D01*
X059799Y009977D01*
X060115Y009345D01*
X060106Y009336D01*
X060003Y009439D01*
X059707Y009439D01*
X060068Y009439D01*
X059989Y009598D02*
X059635Y009598D01*
X059564Y009756D02*
X059910Y009756D01*
X059830Y009915D02*
X059493Y009915D01*
X059475Y009954D02*
X059475Y011617D01*
X059554Y011617D01*
X059671Y011733D01*
X059671Y012488D01*
X059554Y012604D01*
X058884Y012604D01*
X058884Y013166D01*
X058842Y013268D01*
X058764Y013346D01*
X058662Y013389D01*
X056737Y013389D01*
X056706Y013394D01*
X056682Y013389D01*
X056657Y013389D01*
X056628Y013377D01*
X056598Y013370D01*
X056578Y013356D01*
X056555Y013346D01*
X056533Y013324D01*
X056507Y013306D01*
X056494Y013285D01*
X056477Y013268D01*
X056465Y013239D01*
X056448Y013213D01*
X056444Y013188D01*
X056434Y013166D01*
X056434Y013135D01*
X056428Y013098D01*
X056419Y013075D01*
X056419Y013044D01*
X056413Y013013D01*
X056419Y012989D01*
X056419Y012604D01*
X056339Y012604D01*
X056223Y012488D01*
X056223Y011733D01*
X056339Y011617D01*
X057054Y011617D01*
X057171Y011733D01*
X057171Y012488D01*
X057054Y012604D01*
X056975Y012604D01*
X056975Y012832D01*
X058328Y012832D01*
X058328Y012604D01*
X057658Y012604D01*
X057542Y012488D01*
X057542Y011733D01*
X057658Y011617D01*
X057720Y011617D01*
X055991Y009889D01*
X055551Y009889D01*
X055449Y009846D01*
X055384Y009782D01*
X055384Y010025D01*
X055406Y010003D01*
X055806Y010003D01*
X055923Y010119D01*
X055923Y011149D01*
X055884Y011187D01*
X055884Y011628D01*
X055989Y011733D01*
X055989Y012488D01*
X055873Y012604D01*
X055158Y012604D01*
X055042Y012488D01*
X055042Y011733D01*
X055158Y011617D01*
X055328Y011617D01*
X055328Y011244D01*
X055306Y011265D01*
X054983Y011265D01*
X054983Y011471D01*
X054762Y011692D01*
X054629Y011692D01*
X054671Y011733D01*
X054671Y012488D01*
X054554Y012604D01*
X054475Y012604D01*
X054475Y013264D01*
X054433Y013366D01*
X054354Y013445D01*
X054252Y013487D01*
X049149Y013487D01*
X049137Y013491D01*
X049094Y013487D01*
X049051Y013487D01*
X049039Y013482D01*
X049026Y013481D01*
X048988Y013461D01*
X048949Y013445D01*
X048940Y013436D01*
X048928Y013430D01*
X048901Y013397D01*
X048871Y013366D01*
X048866Y013355D01*
X048401Y012798D01*
X048371Y012768D01*
X048366Y012756D01*
X048357Y012746D01*
X048345Y012705D01*
X048328Y012666D01*
X048328Y012653D01*
X048324Y012641D01*
X048328Y012598D01*
X048328Y009439D01*
X047213Y009439D01*
X047213Y009281D02*
X048093Y009281D01*
X048093Y009322D02*
X048093Y008647D01*
X048129Y008611D01*
X048093Y008574D01*
X048093Y008365D01*
X048066Y008381D01*
X048020Y008393D01*
X047749Y008393D01*
X047749Y008044D01*
X047732Y008044D01*
X047732Y008027D01*
X047749Y008027D01*
X047749Y007679D01*
X048020Y007679D01*
X048066Y007691D01*
X048107Y007715D01*
X048140Y007748D01*
X048164Y007789D01*
X048172Y007820D01*
X048209Y007782D01*
X049003Y007782D01*
X049106Y007885D01*
X049209Y007782D01*
X049210Y007782D01*
X049210Y007432D01*
X049099Y007432D01*
X049024Y007506D01*
X048929Y007546D01*
X048194Y007546D01*
X048194Y007547D01*
X048078Y007663D01*
X047402Y007663D01*
X047286Y007547D01*
X047286Y007542D01*
X047213Y007542D01*
X047213Y015111D01*
X047417Y015166D01*
X070055Y015166D01*
X070055Y016104D01*
X070156Y016003D01*
X070556Y016003D01*
X070619Y016066D01*
X070628Y016057D01*
X070669Y016033D01*
X070714Y016021D01*
X070856Y016021D01*
X070856Y016634D01*
X070856Y016634D01*
X070856Y017247D01*
X070714Y017247D01*
X070669Y017235D01*
X070634Y017215D01*
X070634Y017835D01*
X072528Y017835D01*
X072528Y008511D01*
X072431Y008609D01*
X072018Y008609D01*
X071726Y008317D01*
X071726Y007904D01*
X072018Y007612D01*
X072431Y007612D01*
X072528Y007710D01*
X072528Y006591D01*
X047213Y006591D01*
X047213Y007026D01*
X047289Y007026D01*
X047402Y006912D01*
X048078Y006912D01*
X048194Y007028D01*
X048194Y007030D01*
X048771Y007030D01*
X048773Y007027D01*
X048846Y006955D01*
X048941Y006915D01*
X052469Y006915D01*
X052564Y006955D01*
X052754Y007145D01*
X053210Y007601D01*
X053210Y007429D01*
X053326Y007313D01*
X053730Y007313D01*
X053730Y007037D01*
X053950Y006817D01*
X054262Y006817D01*
X054278Y006832D01*
X067162Y006832D01*
X067264Y006875D01*
X067342Y006953D01*
X069172Y008782D01*
X069503Y008782D01*
X069606Y008885D01*
X069709Y008782D01*
X070503Y008782D01*
X070606Y008885D01*
X070709Y008782D01*
X071503Y008782D01*
X071619Y008899D01*
X071619Y008958D01*
X071788Y008958D01*
X071890Y009001D01*
X071968Y009079D01*
X072342Y009453D01*
X072384Y009555D01*
X072384Y012166D01*
X072342Y012268D01*
X072264Y012346D01*
X070634Y013976D01*
X070634Y014006D01*
X070669Y013986D01*
X070714Y013974D01*
X070856Y013974D01*
X070856Y014587D01*
X070856Y015200D01*
X070714Y015200D01*
X070669Y015188D01*
X070628Y015164D01*
X070619Y015155D01*
X070556Y015218D01*
X070156Y015218D01*
X070040Y015102D01*
X070083Y015145D02*
X047341Y015145D01*
X047417Y015145D02*
X046806Y015145D01*
X046806Y014987D02*
X047417Y014987D01*
X047572Y014987D02*
X047213Y014987D01*
X047213Y014828D02*
X047572Y014828D01*
X047417Y014828D02*
X046693Y014828D01*
X046695Y014829D02*
X046737Y014852D01*
X046770Y014886D01*
X046794Y014927D01*
X046806Y014973D01*
X046806Y015628D01*
X046448Y015628D01*
X046448Y015664D01*
X046806Y015664D01*
X046806Y016277D01*
X046894Y016277D01*
X046996Y016320D01*
X047417Y016741D01*
X047417Y008381D01*
X047415Y008381D01*
X047374Y008357D01*
X047340Y008323D01*
X047317Y008282D01*
X047304Y008237D01*
X047304Y008044D01*
X047732Y008044D01*
X047732Y008393D01*
X047461Y008393D01*
X047415Y008381D01*
X047374Y008357D01*
X047340Y008323D01*
X047317Y008282D01*
X047304Y008171D02*
X046806Y008171D01*
X046806Y008013D02*
X047304Y008013D01*
X047213Y008013D01*
X047304Y008027D02*
X047304Y007835D01*
X047317Y007789D01*
X047340Y007748D01*
X047374Y007715D01*
X047415Y007691D01*
X047461Y007679D01*
X047732Y007679D01*
X047732Y008027D01*
X047304Y008027D01*
X047304Y008171D02*
X047213Y008171D01*
X047213Y008488D02*
X048093Y008488D01*
X048093Y008647D02*
X047213Y008647D01*
X047213Y008805D02*
X048093Y008805D01*
X048093Y008964D02*
X047213Y008964D01*
X047213Y009122D02*
X048093Y009122D01*
X048093Y009322D02*
X048209Y009439D01*
X048328Y009439D01*
X048328Y009598D02*
X047213Y009598D01*
X047213Y009756D02*
X048328Y009756D01*
X048328Y009915D02*
X047213Y009915D01*
X047213Y010073D02*
X048328Y010073D01*
X048328Y010232D02*
X047213Y010232D01*
X047213Y010390D02*
X048328Y010390D01*
X048328Y010549D02*
X047213Y010549D01*
X047213Y010707D02*
X048328Y010707D01*
X048328Y010866D02*
X047213Y010866D01*
X047213Y011024D02*
X048328Y011024D01*
X048328Y011183D02*
X047213Y011183D01*
X047213Y011341D02*
X048328Y011341D01*
X048328Y011500D02*
X047213Y011500D01*
X047213Y011658D02*
X048328Y011658D01*
X048328Y011817D02*
X047213Y011817D01*
X047213Y011975D02*
X048328Y011975D01*
X048328Y012134D02*
X047213Y012134D01*
X047213Y012292D02*
X048328Y012292D01*
X048328Y012451D02*
X047213Y012451D01*
X047213Y012609D02*
X048327Y012609D01*
X048370Y012768D02*
X047213Y012768D01*
X047213Y012926D02*
X048508Y012926D01*
X048640Y013085D02*
X047213Y013085D01*
X047213Y013243D02*
X048772Y013243D01*
X048905Y013402D02*
X047213Y013402D01*
X047213Y013560D02*
X058465Y013560D01*
X058438Y013719D02*
X048552Y013719D01*
X048562Y013877D02*
X058438Y013877D01*
X058438Y014036D02*
X048562Y014036D01*
X048562Y014194D02*
X058486Y014194D01*
X058835Y013866D02*
X058953Y013827D01*
X066197Y013827D01*
X066315Y013945D01*
X066599Y014194D02*
X070040Y014194D01*
X070076Y014036D02*
X066685Y014036D01*
X066691Y013877D02*
X070078Y013877D01*
X070114Y013719D02*
X069998Y013719D01*
X070156Y013560D02*
X070263Y013560D01*
X070315Y013402D02*
X070422Y013402D01*
X070473Y013243D02*
X070580Y013243D01*
X070632Y013085D02*
X070739Y013085D01*
X070790Y012926D02*
X070897Y012926D01*
X070949Y012768D02*
X071056Y012768D01*
X071107Y012609D02*
X071214Y012609D01*
X071266Y012451D02*
X071373Y012451D01*
X071376Y012292D02*
X071531Y012292D01*
X071384Y012134D02*
X071690Y012134D01*
X071828Y011975D02*
X071384Y011975D01*
X071384Y011817D02*
X071828Y011817D01*
X071828Y011658D02*
X071384Y011658D01*
X071384Y011500D02*
X071828Y011500D01*
X071828Y011341D02*
X071384Y011341D01*
X071384Y011183D02*
X071828Y011183D01*
X071828Y011024D02*
X071384Y011024D01*
X071384Y010866D02*
X071828Y010866D01*
X071828Y010707D02*
X071384Y010707D01*
X071384Y010549D02*
X071828Y010549D01*
X071828Y010390D02*
X071552Y010390D01*
X071619Y010232D02*
X071828Y010232D01*
X071828Y010073D02*
X071619Y010073D01*
X071619Y009915D02*
X071828Y009915D01*
X071828Y009756D02*
X071619Y009756D01*
X071596Y009598D02*
X071700Y009598D01*
X071732Y009236D02*
X072106Y009611D01*
X072106Y012111D01*
X070356Y013861D01*
X070356Y014587D01*
X070856Y014587D02*
X070856Y014587D01*
X070856Y014587D01*
X070856Y015200D01*
X070998Y015200D01*
X071044Y015188D01*
X071085Y015164D01*
X071106Y015143D01*
X071128Y015164D01*
X071169Y015188D01*
X071214Y015200D01*
X071356Y015200D01*
X071356Y014587D01*
X071356Y014587D01*
X070856Y014587D01*
X070856Y014587D01*
X070856Y013974D01*
X070998Y013974D01*
X071044Y013986D01*
X071085Y014010D01*
X071106Y014031D01*
X071128Y014010D01*
X071169Y013986D01*
X071214Y013974D01*
X071356Y013974D01*
X071356Y014587D01*
X071356Y014587D01*
X071154Y014587D01*
X070856Y014587D01*
X070856Y014511D02*
X070856Y014511D01*
X070856Y014353D02*
X070856Y014353D01*
X070856Y014194D02*
X070856Y014194D01*
X070856Y014036D02*
X070856Y014036D01*
X070733Y013877D02*
X072528Y013877D01*
X072528Y013719D02*
X070892Y013719D01*
X071050Y013560D02*
X072528Y013560D01*
X072528Y013402D02*
X071209Y013402D01*
X071367Y013243D02*
X072528Y013243D01*
X072528Y013085D02*
X071526Y013085D01*
X071684Y012926D02*
X072528Y012926D01*
X072528Y012768D02*
X071843Y012768D01*
X072001Y012609D02*
X072528Y012609D01*
X072528Y012451D02*
X072160Y012451D01*
X072318Y012292D02*
X072528Y012292D01*
X072528Y012134D02*
X072384Y012134D01*
X072384Y011975D02*
X072528Y011975D01*
X072528Y011817D02*
X072384Y011817D01*
X072384Y011658D02*
X072528Y011658D01*
X072528Y011500D02*
X072384Y011500D01*
X072384Y011341D02*
X072528Y011341D01*
X072528Y011183D02*
X072384Y011183D01*
X072384Y011024D02*
X072528Y011024D01*
X072528Y010866D02*
X072384Y010866D01*
X072384Y010707D02*
X072528Y010707D01*
X072528Y010549D02*
X072384Y010549D01*
X072384Y010390D02*
X072528Y010390D01*
X072528Y010232D02*
X072384Y010232D01*
X072384Y010073D02*
X072528Y010073D01*
X072528Y009915D02*
X072384Y009915D01*
X072384Y009756D02*
X072528Y009756D01*
X072528Y009598D02*
X072384Y009598D01*
X072328Y009439D02*
X072528Y009439D01*
X072528Y009281D02*
X072170Y009281D01*
X072011Y009122D02*
X072528Y009122D01*
X072528Y008964D02*
X071800Y008964D01*
X071732Y009236D02*
X071106Y009236D01*
X070106Y009236D01*
X069106Y009236D01*
X069106Y009111D01*
X067106Y007111D01*
X064606Y007111D01*
X060606Y007111D01*
X060606Y008236D01*
X061119Y008171D02*
X062790Y008171D01*
X062790Y008072D02*
X062855Y008007D01*
X062826Y008007D01*
X062710Y007891D01*
X062710Y007389D01*
X060884Y007389D01*
X060884Y007782D01*
X061003Y007782D01*
X061119Y007899D01*
X061119Y008574D01*
X061083Y008611D01*
X061119Y008647D01*
X061119Y009322D01*
X061003Y009439D01*
X060690Y009439D01*
X062384Y009439D01*
X062226Y009598D02*
X060611Y009598D01*
X060531Y009756D02*
X062067Y009756D01*
X061909Y009915D02*
X060452Y009915D01*
X060373Y010073D02*
X061750Y010073D01*
X061592Y010232D02*
X060306Y010232D01*
X060306Y010208D02*
X060306Y011518D01*
X062790Y009033D01*
X062790Y008072D01*
X062849Y008013D02*
X061119Y008013D01*
X061075Y007854D02*
X062710Y007854D01*
X062710Y007696D02*
X060884Y007696D01*
X060884Y007537D02*
X062710Y007537D01*
X063106Y007611D02*
X063606Y007611D01*
X063606Y008587D01*
X063606Y009611D01*
X065606Y009611D01*
X065606Y008587D01*
X065106Y008587D02*
X065106Y007611D01*
X065503Y007537D02*
X067139Y007537D01*
X067224Y007631D02*
X067026Y007631D01*
X066744Y007912D01*
X066744Y008111D01*
X067224Y008111D01*
X067224Y008591D01*
X067026Y008591D01*
X066744Y008309D01*
X066744Y008111D01*
X067224Y008111D01*
X067224Y008111D01*
X067224Y008111D01*
X067224Y008591D01*
X067423Y008591D01*
X067704Y008309D01*
X067704Y008111D01*
X067224Y008111D01*
X067224Y008111D01*
X067224Y008110D02*
X067224Y008110D01*
X067224Y007631D01*
X067233Y007631D01*
X066991Y007389D01*
X065503Y007389D01*
X065503Y007891D01*
X065437Y007956D01*
X065806Y007956D01*
X065856Y008006D01*
X065906Y007956D01*
X066306Y007956D01*
X066423Y008072D01*
X066423Y009102D01*
X066384Y009140D01*
X066384Y009495D01*
X066842Y009953D01*
X066884Y010055D01*
X066884Y010586D01*
X067916Y011617D01*
X068373Y011617D01*
X068489Y011733D01*
X068489Y012488D01*
X068373Y012604D01*
X067658Y012604D01*
X067542Y012488D01*
X067542Y012030D01*
X066449Y010937D01*
X066449Y010937D01*
X066423Y010911D01*
X066423Y011149D01*
X066369Y011203D01*
X066342Y011268D01*
X065933Y011677D01*
X065989Y011733D01*
X065989Y012488D01*
X065873Y012604D01*
X065158Y012604D01*
X065042Y012488D01*
X065042Y011810D01*
X064826Y011810D01*
X064710Y011694D01*
X064710Y011247D01*
X064606Y011247D01*
X064503Y011247D01*
X064503Y011617D01*
X064554Y011617D01*
X064671Y011733D01*
X064671Y012488D01*
X064554Y012604D01*
X064384Y012604D01*
X064384Y013226D01*
X069704Y013226D01*
X070828Y012102D01*
X070828Y010439D01*
X070709Y010439D01*
X070606Y010336D01*
X070503Y010439D01*
X070384Y010439D01*
X070384Y012166D01*
X070342Y012268D01*
X069547Y013063D01*
X069469Y013142D01*
X069366Y013184D01*
X067346Y013184D01*
X067244Y013142D01*
X066706Y012604D01*
X066339Y012604D01*
X066223Y012488D01*
X066223Y011733D01*
X066339Y011617D01*
X067054Y011617D01*
X067171Y011733D01*
X067171Y012281D01*
X067517Y012628D01*
X069196Y012628D01*
X069220Y012604D01*
X068839Y012604D01*
X068723Y012488D01*
X068723Y011733D01*
X068827Y011629D01*
X068823Y011606D01*
X068828Y011581D01*
X068828Y010439D01*
X068709Y010439D01*
X068593Y010322D01*
X068593Y009647D01*
X068629Y009611D01*
X068593Y009574D01*
X068593Y008991D01*
X067704Y008102D01*
X067704Y008111D01*
X067224Y008111D01*
X067224Y008110D02*
X067224Y007631D01*
X067224Y007696D02*
X067224Y007696D01*
X067224Y007854D02*
X067224Y007854D01*
X067224Y008013D02*
X067224Y008013D01*
X067224Y008171D02*
X067224Y008171D01*
X067224Y008330D02*
X067224Y008330D01*
X067224Y008488D02*
X067224Y008488D01*
X066923Y008488D02*
X066423Y008488D01*
X066423Y008330D02*
X066765Y008330D01*
X066744Y008171D02*
X066423Y008171D01*
X066363Y008013D02*
X066744Y008013D01*
X066802Y007854D02*
X065503Y007854D01*
X065503Y007696D02*
X066961Y007696D01*
X067768Y007379D02*
X069788Y007379D01*
X069726Y007317D02*
X069726Y006904D01*
X070018Y006612D01*
X070431Y006612D01*
X070723Y006904D01*
X070723Y007317D01*
X070431Y007609D01*
X070018Y007609D01*
X069726Y007317D01*
X069726Y007220D02*
X067609Y007220D01*
X067451Y007062D02*
X069726Y007062D01*
X069727Y006903D02*
X067292Y006903D01*
X067926Y007537D02*
X069946Y007537D01*
X070502Y007537D02*
X072528Y007537D01*
X072528Y007379D02*
X070661Y007379D01*
X070723Y007220D02*
X072528Y007220D01*
X072528Y007062D02*
X070723Y007062D01*
X070721Y006903D02*
X072528Y006903D01*
X072528Y006745D02*
X070563Y006745D01*
X069886Y006745D02*
X047213Y006745D01*
X047213Y006903D02*
X053864Y006903D01*
X053730Y007062D02*
X052670Y007062D01*
X052829Y007220D02*
X053730Y007220D01*
X054106Y007193D02*
X054106Y007111D01*
X058606Y007111D01*
X058606Y008236D01*
X058093Y008171D02*
X055923Y008171D01*
X055923Y008072D02*
X055921Y008070D01*
X056003Y007989D01*
X056003Y007429D01*
X055962Y007389D01*
X058328Y007389D01*
X058328Y007782D01*
X058209Y007782D01*
X058093Y007899D01*
X058093Y008574D01*
X058129Y008611D01*
X058093Y008647D01*
X058093Y009322D01*
X058209Y009439D01*
X058328Y009439D01*
X056328Y009439D01*
X056264Y009375D02*
X058264Y011375D01*
X058328Y011439D01*
X058328Y009439D01*
X058328Y009598D02*
X056487Y009598D01*
X056645Y009756D02*
X058328Y009756D01*
X058328Y009915D02*
X056804Y009915D01*
X056962Y010073D02*
X058328Y010073D01*
X058328Y010232D02*
X057121Y010232D01*
X057279Y010390D02*
X058328Y010390D01*
X058328Y010549D02*
X057438Y010549D01*
X057596Y010707D02*
X058328Y010707D01*
X058328Y010866D02*
X057755Y010866D01*
X057913Y011024D02*
X058328Y011024D01*
X058328Y011183D02*
X058072Y011183D01*
X058230Y011341D02*
X058328Y011341D01*
X058106Y011611D02*
X058106Y012020D01*
X058016Y012111D01*
X057542Y012134D02*
X057171Y012134D01*
X057171Y012292D02*
X057542Y012292D01*
X057542Y012451D02*
X057171Y012451D01*
X056975Y012609D02*
X058328Y012609D01*
X058328Y012768D02*
X056975Y012768D01*
X056697Y013020D02*
X056697Y012111D01*
X056223Y012134D02*
X055989Y012134D01*
X055989Y012292D02*
X056223Y012292D01*
X056223Y012451D02*
X055989Y012451D01*
X056419Y012609D02*
X054475Y012609D01*
X054475Y012768D02*
X056419Y012768D01*
X056419Y012926D02*
X054475Y012926D01*
X054475Y013085D02*
X056423Y013085D01*
X056466Y013243D02*
X054475Y013243D01*
X054398Y013402D02*
X063828Y013402D01*
X063828Y013243D02*
X061867Y013243D01*
X061971Y013085D02*
X063828Y013085D01*
X063828Y012926D02*
X061975Y012926D01*
X061975Y012768D02*
X063828Y012768D01*
X063828Y012609D02*
X061975Y012609D01*
X062171Y012451D02*
X062542Y012451D01*
X062542Y012292D02*
X062171Y012292D01*
X062171Y012134D02*
X062542Y012134D01*
X062542Y011975D02*
X062171Y011975D01*
X062171Y011817D02*
X062542Y011817D01*
X062617Y011658D02*
X062095Y011658D01*
X062828Y011500D02*
X061111Y011500D01*
X060952Y011658D02*
X061298Y011658D01*
X061223Y011817D02*
X060989Y011817D01*
X060989Y011975D02*
X061223Y011975D01*
X061223Y012134D02*
X060989Y012134D01*
X060989Y012292D02*
X061223Y012292D01*
X061223Y012451D02*
X060989Y012451D01*
X061419Y012609D02*
X060306Y012609D01*
X060306Y012768D02*
X061419Y012768D01*
X061697Y013020D02*
X061697Y012111D01*
X060516Y012111D02*
X060516Y011701D01*
X063106Y009111D01*
X063106Y008587D01*
X062790Y008647D02*
X061119Y008647D01*
X061119Y008805D02*
X062790Y008805D01*
X062790Y008964D02*
X061119Y008964D01*
X061119Y009122D02*
X062701Y009122D01*
X062543Y009281D02*
X061119Y009281D01*
X060690Y009439D02*
X060306Y010208D01*
X060306Y010390D02*
X061433Y010390D01*
X061275Y010549D02*
X060306Y010549D01*
X060306Y010707D02*
X061116Y010707D01*
X060958Y010866D02*
X060306Y010866D01*
X060306Y011024D02*
X060799Y011024D01*
X060641Y011183D02*
X060306Y011183D01*
X060306Y011341D02*
X060482Y011341D01*
X060324Y011500D02*
X060306Y011500D01*
X059749Y011500D02*
X059475Y011500D01*
X059475Y011341D02*
X059749Y011341D01*
X059749Y011183D02*
X059475Y011183D01*
X059475Y011024D02*
X059749Y011024D01*
X059749Y010866D02*
X059475Y010866D01*
X059475Y010707D02*
X059749Y010707D01*
X059749Y010549D02*
X059475Y010549D01*
X059475Y010390D02*
X059749Y010390D01*
X059749Y010232D02*
X059475Y010232D01*
X059475Y010073D02*
X059754Y010073D01*
X060028Y010142D02*
X060028Y013111D01*
X061606Y013111D01*
X061697Y013020D01*
X063489Y012451D02*
X063723Y012451D01*
X063723Y012292D02*
X063489Y012292D01*
X063489Y012134D02*
X063723Y012134D01*
X063723Y011975D02*
X063489Y011975D01*
X063489Y011817D02*
X063723Y011817D01*
X063710Y011658D02*
X063414Y011658D01*
X063384Y011500D02*
X063710Y011500D01*
X063710Y011341D02*
X063384Y011341D01*
X062828Y011341D02*
X061269Y011341D01*
X061428Y011183D02*
X062823Y011183D01*
X062790Y011024D02*
X061586Y011024D01*
X061745Y010866D02*
X062790Y010866D01*
X062790Y010707D02*
X061903Y010707D01*
X062062Y010549D02*
X062790Y010549D01*
X062790Y010390D02*
X062220Y010390D01*
X062379Y010232D02*
X062790Y010232D01*
X062836Y010073D02*
X062537Y010073D01*
X062696Y009915D02*
X063328Y009915D01*
X063328Y009756D02*
X062854Y009756D01*
X063013Y009598D02*
X063328Y009598D01*
X063328Y009439D02*
X063171Y009439D01*
X063606Y009611D02*
X063606Y010634D01*
X063106Y010634D02*
X063106Y012020D01*
X063016Y012111D01*
X064106Y012201D02*
X064106Y013504D01*
X069819Y013504D01*
X071106Y012217D01*
X071106Y009985D01*
X070661Y010390D02*
X070552Y010390D01*
X070384Y010549D02*
X070828Y010549D01*
X070828Y010707D02*
X070384Y010707D01*
X070384Y010866D02*
X070828Y010866D01*
X070828Y011024D02*
X070384Y011024D01*
X070384Y011183D02*
X070828Y011183D01*
X070828Y011341D02*
X070384Y011341D01*
X070384Y011500D02*
X070828Y011500D01*
X070828Y011658D02*
X070384Y011658D01*
X070384Y011817D02*
X070828Y011817D01*
X070828Y011975D02*
X070384Y011975D01*
X070384Y012134D02*
X070796Y012134D01*
X070638Y012292D02*
X070318Y012292D01*
X070160Y012451D02*
X070479Y012451D01*
X070321Y012609D02*
X070001Y012609D01*
X069843Y012768D02*
X070162Y012768D01*
X070004Y012926D02*
X069684Y012926D01*
X069526Y013085D02*
X069845Y013085D01*
X069311Y012906D02*
X067402Y012906D01*
X066697Y012201D01*
X066697Y012111D01*
X067171Y012134D02*
X067542Y012134D01*
X067542Y012292D02*
X067181Y012292D01*
X067340Y012451D02*
X067542Y012451D01*
X067498Y012609D02*
X069214Y012609D01*
X068723Y012451D02*
X068489Y012451D01*
X068489Y012292D02*
X068723Y012292D01*
X068723Y012134D02*
X068489Y012134D01*
X068489Y011975D02*
X068723Y011975D01*
X068723Y011817D02*
X068489Y011817D01*
X068414Y011658D02*
X068798Y011658D01*
X068828Y011500D02*
X067798Y011500D01*
X067640Y011341D02*
X068828Y011341D01*
X068828Y011183D02*
X067481Y011183D01*
X067323Y011024D02*
X068828Y011024D01*
X068828Y010866D02*
X067164Y010866D01*
X067006Y010707D02*
X068828Y010707D01*
X068828Y010549D02*
X066884Y010549D01*
X066884Y010390D02*
X068661Y010390D01*
X068593Y010232D02*
X066884Y010232D01*
X066884Y010073D02*
X068593Y010073D01*
X068593Y009915D02*
X066804Y009915D01*
X066645Y009756D02*
X068593Y009756D01*
X068616Y009598D02*
X066487Y009598D01*
X066384Y009439D02*
X068593Y009439D01*
X068593Y009281D02*
X066384Y009281D01*
X066403Y009122D02*
X068593Y009122D01*
X068566Y008964D02*
X066423Y008964D01*
X066423Y008805D02*
X068407Y008805D01*
X068249Y008647D02*
X066423Y008647D01*
X066106Y008587D02*
X066106Y009611D01*
X066606Y010111D01*
X066606Y010701D01*
X068016Y012111D01*
X067487Y011975D02*
X067171Y011975D01*
X067171Y011817D02*
X067328Y011817D01*
X067170Y011658D02*
X067095Y011658D01*
X067011Y011500D02*
X066111Y011500D01*
X065952Y011658D02*
X066298Y011658D01*
X066223Y011817D02*
X065989Y011817D01*
X065989Y011975D02*
X066223Y011975D01*
X066223Y012134D02*
X065989Y012134D01*
X065989Y012292D02*
X066223Y012292D01*
X066223Y012451D02*
X065989Y012451D01*
X066712Y012609D02*
X064384Y012609D01*
X064384Y012768D02*
X066870Y012768D01*
X067029Y012926D02*
X064384Y012926D01*
X064384Y013085D02*
X067187Y013085D01*
X069311Y012906D02*
X070106Y012111D01*
X070106Y009985D01*
X069661Y010390D02*
X069552Y010390D01*
X069503Y010439D02*
X069606Y010336D01*
X069709Y010439D01*
X069828Y010439D01*
X069828Y011995D01*
X069671Y012153D01*
X069671Y011733D01*
X069554Y011617D01*
X069390Y011617D01*
X069384Y011586D01*
X069384Y010439D01*
X069503Y010439D01*
X069384Y010549D02*
X069828Y010549D01*
X069828Y010707D02*
X069384Y010707D01*
X069384Y010866D02*
X069828Y010866D01*
X069828Y011024D02*
X069384Y011024D01*
X069384Y011183D02*
X069828Y011183D01*
X069828Y011341D02*
X069384Y011341D01*
X069384Y011500D02*
X069828Y011500D01*
X069828Y011658D02*
X069595Y011658D01*
X069671Y011817D02*
X069828Y011817D01*
X069828Y011975D02*
X069671Y011975D01*
X069671Y012134D02*
X069690Y012134D01*
X069197Y012111D02*
X069106Y011611D01*
X069106Y009985D01*
X066536Y011024D02*
X066423Y011024D01*
X066389Y011183D02*
X066694Y011183D01*
X066853Y011341D02*
X066269Y011341D01*
X066106Y011111D02*
X065606Y011611D01*
X065606Y012020D01*
X065516Y012111D01*
X065042Y012134D02*
X064671Y012134D01*
X064671Y012292D02*
X065042Y012292D01*
X065042Y012451D02*
X064671Y012451D01*
X064197Y012111D02*
X064106Y012201D01*
X064671Y011975D02*
X065042Y011975D01*
X065042Y011817D02*
X064671Y011817D01*
X064710Y011658D02*
X064595Y011658D01*
X064503Y011500D02*
X064710Y011500D01*
X064710Y011341D02*
X064503Y011341D01*
X064606Y011247D02*
X064606Y010634D01*
X064606Y010634D01*
X064606Y010021D01*
X064464Y010021D01*
X064419Y010033D01*
X064378Y010057D01*
X064369Y010066D01*
X064306Y010003D01*
X063906Y010003D01*
X063884Y010025D01*
X063884Y009889D01*
X065328Y009889D01*
X065328Y010025D01*
X065306Y010003D01*
X064906Y010003D01*
X064843Y010066D01*
X064835Y010057D01*
X064794Y010033D01*
X064748Y010021D01*
X064606Y010021D01*
X064606Y010634D01*
X064606Y010634D01*
X064606Y011247D01*
X064606Y011183D02*
X064606Y011183D01*
X064606Y011024D02*
X064606Y011024D01*
X064606Y010866D02*
X064606Y010866D01*
X064606Y010707D02*
X064606Y010707D01*
X064606Y010549D02*
X064606Y010549D01*
X064606Y010390D02*
X064606Y010390D01*
X064606Y010232D02*
X064606Y010232D01*
X064606Y010073D02*
X064606Y010073D01*
X063884Y009915D02*
X065328Y009915D01*
X065606Y009611D02*
X065606Y010634D01*
X065106Y010634D02*
X065106Y011414D01*
X066106Y011111D02*
X066106Y010634D01*
X064106Y010634D02*
X064106Y011414D01*
X060606Y008985D02*
X060028Y010142D01*
X059475Y009954D02*
X059707Y009439D01*
X059606Y008985D02*
X059197Y009894D01*
X059197Y012111D01*
X059671Y012134D02*
X059749Y012134D01*
X059749Y012292D02*
X059671Y012292D01*
X059671Y012451D02*
X059749Y012451D01*
X059749Y012609D02*
X058884Y012609D01*
X058884Y012768D02*
X059749Y012768D01*
X059749Y012926D02*
X058884Y012926D01*
X058884Y013085D02*
X059749Y013085D01*
X059781Y013243D02*
X058852Y013243D01*
X058606Y013111D02*
X056713Y013111D01*
X056697Y013020D01*
X055042Y012451D02*
X054671Y012451D01*
X054671Y012292D02*
X055042Y012292D01*
X055042Y012134D02*
X054671Y012134D01*
X054671Y011975D02*
X055042Y011975D01*
X055042Y011817D02*
X054671Y011817D01*
X054796Y011658D02*
X055117Y011658D01*
X054955Y011500D02*
X055328Y011500D01*
X055328Y011341D02*
X054983Y011341D01*
X054606Y011315D02*
X054606Y010634D01*
X054106Y010634D02*
X054106Y010021D01*
X054106Y010634D01*
X054106Y010634D01*
X054106Y011247D01*
X053983Y011247D01*
X053983Y011471D01*
X053762Y011692D01*
X053450Y011692D01*
X053230Y011471D01*
X053230Y011265D01*
X052906Y011265D01*
X052884Y011244D01*
X052884Y011495D01*
X053006Y011617D01*
X053373Y011617D01*
X053489Y011733D01*
X053489Y012488D01*
X053373Y012604D01*
X052658Y012604D01*
X052542Y012488D01*
X052542Y011940D01*
X052371Y011768D01*
X052328Y011666D01*
X052328Y011187D01*
X052290Y011149D01*
X052290Y010119D01*
X052406Y010003D01*
X052806Y010003D01*
X052828Y010025D01*
X052828Y009196D01*
X052806Y009218D01*
X052406Y009218D01*
X052290Y009102D01*
X052290Y008072D01*
X052328Y008034D01*
X052328Y008027D01*
X050794Y008033D01*
X050794Y011617D01*
X050873Y011617D01*
X050989Y011733D01*
X050989Y012332D01*
X051223Y012332D01*
X051223Y011733D01*
X051339Y011617D01*
X052054Y011617D01*
X052171Y011733D01*
X052171Y012488D01*
X052054Y012604D01*
X051963Y012604D01*
X051933Y012677D01*
X051854Y012756D01*
X051764Y012846D01*
X051662Y012889D01*
X049551Y012889D01*
X049449Y012846D01*
X049371Y012768D01*
X049328Y012666D01*
X049328Y009439D01*
X048884Y009439D01*
X048884Y012510D01*
X049236Y012931D01*
X053919Y012931D01*
X053919Y012604D01*
X053839Y012604D01*
X053723Y012488D01*
X053723Y011733D01*
X053839Y011617D01*
X054376Y011617D01*
X054230Y011471D01*
X054230Y011247D01*
X054106Y011247D01*
X054106Y010634D01*
X054106Y010634D01*
X054106Y010707D02*
X054106Y010707D01*
X054106Y010549D02*
X054106Y010549D01*
X054106Y010390D02*
X054106Y010390D01*
X054106Y010232D02*
X054106Y010232D01*
X054106Y010073D02*
X054106Y010073D01*
X054106Y010021D02*
X054248Y010021D01*
X054294Y010033D01*
X054335Y010057D01*
X054343Y010066D01*
X054406Y010003D01*
X054806Y010003D01*
X054828Y010025D01*
X054828Y009889D01*
X053384Y009889D01*
X053384Y010025D01*
X053406Y010003D01*
X053806Y010003D01*
X053869Y010066D01*
X053878Y010057D01*
X053919Y010033D01*
X053964Y010021D01*
X054106Y010021D01*
X053384Y009915D02*
X054828Y009915D01*
X055106Y009611D02*
X053106Y009611D01*
X053106Y008587D01*
X053106Y010634D01*
X052606Y010634D02*
X052606Y011611D01*
X053016Y012020D01*
X053016Y012111D01*
X053489Y012134D02*
X053723Y012134D01*
X053723Y012292D02*
X053489Y012292D01*
X053489Y012451D02*
X053723Y012451D01*
X053919Y012609D02*
X051961Y012609D01*
X051843Y012768D02*
X053919Y012768D01*
X053919Y012926D02*
X049232Y012926D01*
X049100Y012768D02*
X049370Y012768D01*
X049328Y012609D02*
X048967Y012609D01*
X048884Y012451D02*
X049328Y012451D01*
X049328Y012292D02*
X048884Y012292D01*
X048884Y012134D02*
X049328Y012134D01*
X049328Y011975D02*
X048884Y011975D01*
X048884Y011817D02*
X049328Y011817D01*
X049328Y011658D02*
X048884Y011658D01*
X048884Y011500D02*
X049328Y011500D01*
X049328Y011341D02*
X048884Y011341D01*
X048884Y011183D02*
X049328Y011183D01*
X049328Y011024D02*
X048884Y011024D01*
X048884Y010866D02*
X049328Y010866D01*
X049328Y010707D02*
X048884Y010707D01*
X048884Y010549D02*
X049328Y010549D01*
X049328Y010390D02*
X048884Y010390D01*
X048884Y010232D02*
X049328Y010232D01*
X049328Y010073D02*
X048884Y010073D01*
X048884Y009915D02*
X049328Y009915D01*
X049328Y009756D02*
X048884Y009756D01*
X048884Y009598D02*
X049328Y009598D01*
X049328Y009439D02*
X049209Y009439D01*
X049106Y009336D01*
X049003Y009439D01*
X048884Y009439D01*
X048606Y008985D02*
X048606Y012611D01*
X049106Y013209D01*
X054197Y013209D01*
X054197Y012111D01*
X053723Y011975D02*
X053489Y011975D01*
X053489Y011817D02*
X053723Y011817D01*
X053796Y011658D02*
X053798Y011658D01*
X053955Y011500D02*
X054258Y011500D01*
X054230Y011341D02*
X053983Y011341D01*
X054110Y011327D02*
X054110Y011425D01*
X054106Y011183D02*
X054106Y011183D01*
X054106Y011024D02*
X054106Y011024D01*
X054106Y010866D02*
X054106Y010866D01*
X053606Y010634D02*
X053606Y011315D01*
X053230Y011341D02*
X052884Y011341D01*
X052889Y011500D02*
X053258Y011500D01*
X053414Y011658D02*
X053417Y011658D01*
X052419Y011817D02*
X052171Y011817D01*
X052171Y011975D02*
X052542Y011975D01*
X052542Y012134D02*
X052171Y012134D01*
X052171Y012292D02*
X052542Y012292D01*
X052542Y012451D02*
X052171Y012451D01*
X051697Y012520D02*
X051697Y012111D01*
X051223Y012134D02*
X050989Y012134D01*
X050989Y012292D02*
X051223Y012292D01*
X051223Y011975D02*
X050989Y011975D01*
X050989Y011817D02*
X051223Y011817D01*
X051298Y011658D02*
X050914Y011658D01*
X050794Y011500D02*
X052328Y011500D01*
X052328Y011658D02*
X052095Y011658D01*
X052328Y011341D02*
X050794Y011341D01*
X050794Y011183D02*
X052323Y011183D01*
X052290Y011024D02*
X050794Y011024D01*
X050794Y010866D02*
X052290Y010866D01*
X052290Y010707D02*
X050794Y010707D01*
X050794Y010549D02*
X052290Y010549D01*
X052290Y010390D02*
X050794Y010390D01*
X050794Y010232D02*
X052290Y010232D01*
X052336Y010073D02*
X050794Y010073D01*
X050794Y009915D02*
X052828Y009915D01*
X052828Y009756D02*
X050794Y009756D01*
X050794Y009598D02*
X052828Y009598D01*
X052828Y009439D02*
X050794Y009439D01*
X050794Y009281D02*
X052828Y009281D01*
X052310Y009122D02*
X050794Y009122D01*
X050794Y008964D02*
X052290Y008964D01*
X052290Y008805D02*
X050794Y008805D01*
X050794Y008647D02*
X052290Y008647D01*
X052290Y008488D02*
X050794Y008488D01*
X050794Y008330D02*
X052290Y008330D01*
X052290Y008171D02*
X050794Y008171D01*
X049606Y008236D02*
X048606Y008236D01*
X047749Y008171D02*
X047732Y008171D01*
X047732Y008013D02*
X047749Y008013D01*
X047732Y007854D02*
X047749Y007854D01*
X047732Y007696D02*
X047749Y007696D01*
X048074Y007696D02*
X049210Y007696D01*
X049210Y007537D02*
X048950Y007537D01*
X049075Y007854D02*
X049138Y007854D01*
X049606Y007630D02*
X049606Y008236D01*
X050516Y007756D02*
X052484Y007748D01*
X052606Y007929D01*
X052606Y008587D01*
X053606Y008587D02*
X053606Y007709D01*
X053210Y007537D02*
X053146Y007537D01*
X053260Y007379D02*
X052987Y007379D01*
X054106Y007193D02*
X054106Y008587D01*
X054606Y008587D02*
X054606Y007709D01*
X055106Y007709D02*
X055606Y007709D01*
X056003Y007696D02*
X058328Y007696D01*
X058328Y007537D02*
X056003Y007537D01*
X056003Y007854D02*
X058138Y007854D01*
X058093Y008013D02*
X055979Y008013D01*
X055923Y008072D02*
X055923Y009102D01*
X055884Y009140D01*
X055884Y009332D01*
X056162Y009332D01*
X056264Y009375D01*
X056106Y009611D02*
X058106Y011611D01*
X057617Y011658D02*
X057095Y011658D01*
X057171Y011817D02*
X057542Y011817D01*
X057542Y011975D02*
X057171Y011975D01*
X056223Y011975D02*
X055989Y011975D01*
X055989Y011817D02*
X056223Y011817D01*
X056298Y011658D02*
X055914Y011658D01*
X055884Y011500D02*
X057602Y011500D01*
X057444Y011341D02*
X055884Y011341D01*
X055889Y011183D02*
X057285Y011183D01*
X057127Y011024D02*
X055923Y011024D01*
X055923Y010866D02*
X056968Y010866D01*
X056810Y010707D02*
X055923Y010707D01*
X055923Y010549D02*
X056651Y010549D01*
X056493Y010390D02*
X055923Y010390D01*
X055923Y010232D02*
X056334Y010232D01*
X056175Y010073D02*
X055877Y010073D01*
X056017Y009915D02*
X055384Y009915D01*
X055606Y009611D02*
X056106Y009611D01*
X055884Y009281D02*
X058093Y009281D01*
X058093Y009122D02*
X055903Y009122D01*
X055923Y008964D02*
X058093Y008964D01*
X058093Y008805D02*
X055923Y008805D01*
X055923Y008647D02*
X058093Y008647D01*
X058093Y008488D02*
X055923Y008488D01*
X055923Y008330D02*
X058093Y008330D01*
X059606Y008236D02*
X059606Y007111D01*
X058606Y007111D01*
X059606Y007111D02*
X060606Y007111D01*
X064106Y007611D02*
X064106Y008587D01*
X064606Y008587D02*
X064606Y007111D01*
X062790Y008330D02*
X061119Y008330D01*
X061119Y008488D02*
X062790Y008488D01*
X058606Y008985D02*
X058606Y013111D01*
X059183Y014194D02*
X066031Y014194D01*
X070055Y015304D02*
X072528Y015304D01*
X072528Y015462D02*
X070055Y015462D01*
X070055Y015621D02*
X072528Y015621D01*
X072528Y015779D02*
X070055Y015779D01*
X070055Y015938D02*
X072528Y015938D01*
X072528Y016096D02*
X072150Y016096D01*
X072173Y016119D02*
X072173Y017149D01*
X072056Y017265D01*
X071656Y017265D01*
X071593Y017203D01*
X071585Y017211D01*
X071544Y017235D01*
X071498Y017247D01*
X071356Y017247D01*
X071214Y017247D01*
X071169Y017235D01*
X071128Y017211D01*
X071106Y017190D01*
X071085Y017211D01*
X071044Y017235D01*
X070998Y017247D01*
X070856Y017247D01*
X070856Y016634D01*
X070856Y016634D01*
X070856Y016021D01*
X070998Y016021D01*
X071044Y016033D01*
X071085Y016057D01*
X071106Y016078D01*
X071128Y016057D01*
X071169Y016033D01*
X071214Y016021D01*
X071356Y016021D01*
X071356Y016634D01*
X071058Y016634D01*
X070856Y016634D01*
X070856Y016634D01*
X071356Y016634D01*
X071356Y016634D01*
X071356Y016634D01*
X071356Y017247D01*
X071356Y016634D01*
X071356Y016634D01*
X071356Y016021D01*
X071498Y016021D01*
X071544Y016033D01*
X071585Y016057D01*
X071593Y016066D01*
X071656Y016003D01*
X072056Y016003D01*
X072173Y016119D01*
X072173Y016255D02*
X072528Y016255D01*
X072528Y016413D02*
X072173Y016413D01*
X072173Y016572D02*
X072528Y016572D01*
X072528Y016730D02*
X072173Y016730D01*
X072173Y016889D02*
X072528Y016889D01*
X072528Y017047D02*
X072173Y017047D01*
X072116Y017206D02*
X072528Y017206D01*
X072528Y017364D02*
X070634Y017364D01*
X070634Y017523D02*
X072528Y017523D01*
X072528Y017681D02*
X070634Y017681D01*
X070356Y017922D02*
X057949Y017922D01*
X048205Y017922D01*
X047650Y017366D01*
X048067Y016949D01*
X048067Y016103D01*
X047417Y016096D02*
X046806Y016096D01*
X046806Y015938D02*
X047417Y015938D01*
X047417Y015779D02*
X046806Y015779D01*
X046806Y015621D02*
X047417Y015621D01*
X047417Y015462D02*
X046806Y015462D01*
X046806Y015304D02*
X047417Y015304D01*
X047989Y014987D02*
X048144Y014987D01*
X048144Y014828D02*
X047989Y014828D01*
X047989Y014670D02*
X048144Y014670D01*
X048144Y014511D02*
X047989Y014511D01*
X047572Y014670D02*
X047213Y014670D01*
X047417Y014670D02*
X044546Y014670D01*
X044547Y014669D02*
X044430Y014785D01*
X044030Y014785D01*
X043968Y014722D01*
X043959Y014731D01*
X043918Y014755D01*
X043872Y014767D01*
X043730Y014767D01*
X043589Y014767D01*
X043543Y014755D01*
X043502Y014731D01*
X043480Y014710D01*
X043459Y014731D01*
X043418Y014755D01*
X043372Y014767D01*
X043230Y014767D01*
X043089Y014767D01*
X043043Y014755D01*
X043008Y014735D01*
X043008Y014761D01*
X043036Y014789D01*
X044461Y014789D01*
X044563Y014831D01*
X044636Y014905D01*
X045031Y014905D01*
X045147Y015021D01*
X045147Y015697D01*
X045054Y015790D01*
X045054Y016277D01*
X045147Y016277D01*
X045147Y016117D01*
X045958Y016117D01*
X045958Y016080D01*
X045995Y016080D01*
X045995Y015722D01*
X046052Y015722D01*
X046052Y015664D01*
X046411Y015664D01*
X046411Y015628D01*
X046052Y015628D01*
X046052Y014973D01*
X046065Y014927D01*
X046088Y014886D01*
X046122Y014852D01*
X046163Y014829D01*
X046209Y014816D01*
X046411Y014816D01*
X046411Y015628D01*
X046448Y015628D01*
X046448Y014816D01*
X046650Y014816D01*
X046695Y014829D01*
X046448Y014828D02*
X046411Y014828D01*
X046411Y014987D02*
X046448Y014987D01*
X046448Y015145D02*
X046411Y015145D01*
X046411Y015304D02*
X046448Y015304D01*
X046448Y015462D02*
X046411Y015462D01*
X046411Y015621D02*
X046448Y015621D01*
X046448Y015664D02*
X046448Y015722D01*
X046411Y015722D01*
X046411Y015664D01*
X046448Y015664D01*
X046052Y015621D02*
X045877Y015621D01*
X045877Y015638D02*
X045865Y015684D01*
X045843Y015722D01*
X045958Y015722D01*
X045958Y016080D01*
X045147Y016080D01*
X045147Y015878D01*
X045159Y015832D01*
X045183Y015791D01*
X045216Y015758D01*
X045226Y015752D01*
X045198Y015725D01*
X045175Y015684D01*
X045163Y015638D01*
X045163Y015367D01*
X045511Y015367D01*
X045511Y015350D01*
X045163Y015350D01*
X045163Y015079D01*
X045175Y015033D01*
X045198Y014992D01*
X045232Y014959D01*
X045273Y014935D01*
X045319Y014923D01*
X045511Y014923D01*
X045511Y015350D01*
X045528Y015350D01*
X045528Y014923D01*
X045721Y014923D01*
X045766Y014935D01*
X045807Y014959D01*
X045841Y014992D01*
X045865Y015033D01*
X045877Y015079D01*
X045877Y015350D01*
X045528Y015350D01*
X045528Y015367D01*
X045877Y015367D01*
X045877Y015638D01*
X045958Y015779D02*
X045995Y015779D01*
X045995Y015938D02*
X045958Y015938D01*
X045995Y016080D02*
X045995Y016117D01*
X046052Y016117D01*
X046052Y016080D01*
X045995Y016080D01*
X045995Y016096D02*
X046052Y016096D01*
X045995Y016117D02*
X045995Y016277D01*
X045958Y016277D01*
X045958Y016117D01*
X045995Y016117D01*
X045958Y016096D02*
X045054Y016096D01*
X045054Y015938D02*
X045147Y015938D01*
X045195Y015779D02*
X045064Y015779D01*
X045147Y015621D02*
X045163Y015621D01*
X045147Y015462D02*
X045163Y015462D01*
X045147Y015304D02*
X045163Y015304D01*
X045147Y015145D02*
X045163Y015145D01*
X045204Y014987D02*
X045113Y014987D01*
X045511Y014987D02*
X045528Y014987D01*
X045511Y015145D02*
X045528Y015145D01*
X045511Y015304D02*
X045528Y015304D01*
X045877Y015304D02*
X046052Y015304D01*
X046052Y015462D02*
X045877Y015462D01*
X045877Y015145D02*
X046052Y015145D01*
X046052Y014987D02*
X045835Y014987D01*
X046165Y014828D02*
X044555Y014828D01*
X044547Y014669D02*
X044547Y013639D01*
X044430Y013523D01*
X044030Y013523D01*
X043968Y013585D01*
X043959Y013577D01*
X043918Y013553D01*
X043872Y013541D01*
X043730Y013541D01*
X043730Y014154D01*
X043730Y014154D01*
X043230Y014154D01*
X043230Y014767D01*
X043230Y014154D01*
X043230Y014154D01*
X043230Y014154D01*
X043230Y013541D01*
X043089Y013541D01*
X043043Y013553D01*
X043002Y013577D01*
X042993Y013585D01*
X042930Y013523D01*
X042530Y013523D01*
X042414Y013639D01*
X042414Y014669D01*
X042452Y014707D01*
X042452Y014932D01*
X042495Y015034D01*
X042685Y015225D01*
X042685Y015225D01*
X042764Y015303D01*
X042866Y015345D01*
X044290Y015345D01*
X044396Y015451D01*
X044396Y015697D01*
X044428Y015728D01*
X044406Y015722D01*
X043889Y015722D01*
X043889Y016080D01*
X044497Y016080D01*
X044497Y016117D01*
X043889Y016117D01*
X043889Y016080D01*
X043852Y016080D01*
X043852Y015722D01*
X043335Y015722D01*
X043289Y015734D01*
X043248Y015758D01*
X043214Y015791D01*
X043191Y015832D01*
X043178Y015878D01*
X043178Y016080D01*
X043852Y016080D01*
X043852Y016117D01*
X043852Y016476D01*
X043335Y016476D01*
X043289Y016463D01*
X043248Y016440D01*
X043214Y016406D01*
X043191Y016365D01*
X043178Y016319D01*
X043178Y016117D01*
X043852Y016117D01*
X043889Y016117D01*
X043889Y016476D01*
X044406Y016476D01*
X044451Y016463D01*
X044492Y016440D01*
X044497Y016435D01*
X044497Y016599D01*
X044540Y016701D01*
X044552Y016713D01*
X044630Y016791D01*
X044732Y016834D01*
X046723Y016834D01*
X047414Y017524D01*
X047414Y017524D01*
X047417Y017527D01*
X047417Y017835D01*
X045309Y017835D01*
X045316Y017832D01*
X045450Y017699D01*
X045523Y017524D01*
X045523Y017335D01*
X045450Y017160D01*
X045316Y017026D01*
X045142Y016954D01*
X044953Y016954D01*
X044778Y017026D01*
X044644Y017160D01*
X044572Y017335D01*
X044572Y017524D01*
X044644Y017699D01*
X044778Y017832D01*
X044785Y017835D01*
X044128Y017835D01*
X044135Y017832D01*
X044269Y017699D01*
X044341Y017524D01*
X044341Y017335D01*
X044269Y017160D01*
X044135Y017026D01*
X043961Y016954D01*
X043772Y016954D01*
X043597Y017026D01*
X043463Y017160D01*
X043391Y017335D01*
X043391Y017524D01*
X043463Y017699D01*
X043597Y017832D01*
X043604Y017835D01*
X039841Y017835D01*
X038481Y016476D01*
X038793Y016476D01*
X038793Y016117D01*
X038829Y016117D01*
X038829Y016476D01*
X039484Y016476D01*
X039530Y016463D01*
X039571Y016440D01*
X039605Y016406D01*
X039628Y016365D01*
X039641Y016319D01*
X039641Y016117D01*
X038829Y016117D01*
X038829Y016080D01*
X038829Y015722D01*
X039484Y015722D01*
X039530Y015734D01*
X039571Y015758D01*
X039605Y015791D01*
X039628Y015832D01*
X039641Y015878D01*
X039641Y016080D01*
X038829Y016080D01*
X038793Y016080D01*
X038793Y015722D01*
X038735Y015722D01*
X038735Y015664D01*
X038377Y015664D01*
X038377Y015628D01*
X038735Y015628D01*
X038735Y014973D01*
X038723Y014927D01*
X038699Y014886D01*
X038666Y014852D01*
X038625Y014829D01*
X038579Y014816D01*
X038377Y014816D01*
X038377Y015628D01*
X038340Y015628D01*
X037981Y015628D01*
X037981Y014973D01*
X037994Y014927D01*
X038017Y014886D01*
X038051Y014852D01*
X038092Y014829D01*
X038138Y014816D01*
X038340Y014816D01*
X038340Y015628D01*
X038340Y015664D01*
X037981Y015664D01*
X037981Y015976D01*
X036193Y014188D01*
X036127Y014122D01*
X036127Y014122D01*
X035980Y013975D01*
X035980Y013975D01*
X035635Y013744D01*
X035635Y013744D01*
X035252Y013586D01*
X035252Y013586D01*
X034845Y013505D01*
X032398Y013505D01*
X032417Y013486D01*
X032473Y013412D01*
X032519Y013332D01*
X032555Y013247D01*
X032579Y013158D01*
X032586Y013100D01*
X031966Y013100D01*
X031966Y012940D01*
X032586Y012940D01*
X032579Y012882D01*
X032555Y012793D01*
X032519Y012707D01*
X032473Y012627D01*
X032417Y012554D01*
X032375Y012512D01*
X038783Y012513D01*
X038964Y012438D01*
X038972Y012431D01*
X038935Y012451D02*
X039549Y012451D01*
X039549Y012609D02*
X032459Y012609D01*
X032544Y012768D02*
X039549Y012768D01*
X039549Y012926D02*
X038704Y012926D01*
X038735Y013085D02*
X039549Y013085D01*
X039549Y013243D02*
X038735Y013243D01*
X038735Y013402D02*
X039549Y013402D01*
X039030Y013560D02*
X038993Y013560D01*
X038993Y013719D02*
X039030Y013719D01*
X038377Y013719D02*
X038340Y013719D01*
X038340Y013877D02*
X038377Y013877D01*
X038377Y014036D02*
X038340Y014036D01*
X038340Y014194D02*
X038377Y014194D01*
X038667Y014194D02*
X038671Y014194D01*
X038993Y014194D02*
X039030Y014194D01*
X039030Y014036D02*
X038993Y014036D01*
X038049Y014194D02*
X036199Y014194D01*
X036041Y014036D02*
X037981Y014036D01*
X037981Y013877D02*
X035834Y013877D01*
X035573Y013719D02*
X037981Y013719D01*
X037981Y013560D02*
X035124Y013560D01*
X036358Y014353D02*
X042414Y014353D01*
X042414Y014511D02*
X036516Y014511D01*
X036675Y014670D02*
X042415Y014670D01*
X042452Y014828D02*
X038622Y014828D01*
X038735Y014987D02*
X042475Y014987D01*
X042606Y015145D02*
X038735Y015145D01*
X038735Y015304D02*
X042765Y015304D01*
X042921Y015067D02*
X044406Y015067D01*
X044776Y015437D01*
X044776Y015362D01*
X044772Y015359D01*
X044776Y015437D02*
X044776Y016544D01*
X044787Y016555D01*
X046839Y016555D01*
X047650Y017366D01*
X047412Y017523D02*
X045523Y017523D01*
X045523Y017364D02*
X047254Y017364D01*
X047095Y017206D02*
X045469Y017206D01*
X045337Y017047D02*
X046937Y017047D01*
X046778Y016889D02*
X038894Y016889D01*
X039052Y017047D02*
X043576Y017047D01*
X043444Y017206D02*
X039211Y017206D01*
X039369Y017364D02*
X043391Y017364D01*
X043391Y017523D02*
X039528Y017523D01*
X039686Y017681D02*
X043456Y017681D01*
X044276Y017681D02*
X044637Y017681D01*
X044572Y017523D02*
X044341Y017523D01*
X044341Y017364D02*
X044572Y017364D01*
X044626Y017206D02*
X044288Y017206D01*
X044156Y017047D02*
X044757Y017047D01*
X044569Y016730D02*
X038735Y016730D01*
X038577Y016572D02*
X044497Y016572D01*
X043889Y016413D02*
X043852Y016413D01*
X043852Y016255D02*
X043889Y016255D01*
X043889Y016096D02*
X044497Y016096D01*
X045054Y016255D02*
X045147Y016255D01*
X045958Y016255D02*
X045995Y016255D01*
X046806Y016255D02*
X047417Y016255D01*
X047417Y016413D02*
X047090Y016413D01*
X047248Y016572D02*
X047417Y016572D01*
X047407Y016730D02*
X047417Y016730D01*
X047417Y017681D02*
X045457Y017681D01*
X043221Y016413D02*
X041566Y016413D01*
X041573Y016406D02*
X041540Y016440D01*
X041499Y016463D01*
X041453Y016476D01*
X040936Y016476D01*
X040936Y016117D01*
X041609Y016117D01*
X041609Y016319D01*
X041597Y016365D01*
X041573Y016406D01*
X041609Y016255D02*
X043178Y016255D01*
X043178Y015938D02*
X041609Y015938D01*
X041609Y015878D02*
X041609Y016080D01*
X040936Y016080D01*
X040936Y016117D01*
X040899Y016117D01*
X040899Y016080D01*
X040936Y016080D01*
X040936Y015722D01*
X041453Y015722D01*
X041499Y015734D01*
X041540Y015758D01*
X041573Y015791D01*
X041597Y015832D01*
X041609Y015878D01*
X041561Y015779D02*
X043227Y015779D01*
X043852Y015779D02*
X043889Y015779D01*
X043889Y015938D02*
X043852Y015938D01*
X043852Y016096D02*
X040936Y016096D01*
X040899Y016096D02*
X038829Y016096D01*
X038793Y016096D02*
X038735Y016096D01*
X038735Y016080D02*
X038793Y016080D01*
X038793Y016117D01*
X038735Y016117D01*
X038735Y016080D01*
X038793Y015938D02*
X038829Y015938D01*
X038829Y015779D02*
X038793Y015779D01*
X038735Y015621D02*
X044396Y015621D01*
X044396Y015462D02*
X038735Y015462D01*
X038377Y015462D02*
X038340Y015462D01*
X038340Y015304D02*
X038377Y015304D01*
X038377Y015145D02*
X038340Y015145D01*
X038340Y014987D02*
X038377Y014987D01*
X038377Y014828D02*
X038340Y014828D01*
X038094Y014828D02*
X036833Y014828D01*
X036992Y014987D02*
X037981Y014987D01*
X037981Y015145D02*
X037150Y015145D01*
X037309Y015304D02*
X037981Y015304D01*
X037981Y015462D02*
X037467Y015462D01*
X037626Y015621D02*
X037981Y015621D01*
X037981Y015779D02*
X037784Y015779D01*
X037943Y015938D02*
X037981Y015938D01*
X038340Y015722D02*
X038377Y015722D01*
X038377Y015664D01*
X038340Y015664D01*
X038340Y015722D01*
X038340Y015621D02*
X038377Y015621D01*
X038793Y016255D02*
X038829Y016255D01*
X038829Y016413D02*
X038793Y016413D01*
X039598Y016413D02*
X040268Y016413D01*
X040261Y016406D02*
X040238Y016365D01*
X040226Y016319D01*
X040226Y016117D01*
X040899Y016117D01*
X040899Y016476D01*
X040382Y016476D01*
X040336Y016463D01*
X040295Y016440D01*
X040261Y016406D01*
X040226Y016255D02*
X039641Y016255D01*
X039641Y015938D02*
X040226Y015938D01*
X040226Y015878D02*
X040238Y015832D01*
X040261Y015791D01*
X040295Y015758D01*
X040336Y015734D01*
X040382Y015722D01*
X040899Y015722D01*
X040899Y016080D01*
X040226Y016080D01*
X040226Y015878D01*
X040274Y015779D02*
X039592Y015779D01*
X040899Y015779D02*
X040936Y015779D01*
X040936Y015938D02*
X040899Y015938D01*
X040899Y016255D02*
X040936Y016255D01*
X040936Y016413D02*
X040899Y016413D01*
X042730Y014876D02*
X042921Y015067D01*
X042730Y014876D02*
X042730Y014154D01*
X042414Y014194D02*
X041268Y014194D01*
X041297Y014036D02*
X042414Y014036D01*
X042414Y013877D02*
X041297Y013877D01*
X041297Y013719D02*
X042414Y013719D01*
X042493Y013560D02*
X041311Y013560D01*
X042346Y013402D02*
X046052Y013402D01*
X046052Y013521D02*
X046052Y013004D01*
X046065Y012958D01*
X046088Y012917D01*
X046122Y012884D01*
X046163Y012860D01*
X046209Y012848D01*
X046411Y012848D01*
X046411Y013521D01*
X046052Y013521D01*
X046052Y013560D02*
X044468Y013560D01*
X044547Y013719D02*
X046052Y013719D01*
X046052Y013877D02*
X044547Y013877D01*
X044547Y014036D02*
X046052Y014036D01*
X046120Y014194D02*
X044547Y014194D01*
X044547Y014353D02*
X047417Y014353D01*
X047417Y014511D02*
X044547Y014511D01*
X043730Y014511D02*
X043730Y014511D01*
X043730Y014353D02*
X043730Y014353D01*
X043730Y014194D02*
X043730Y014194D01*
X043730Y014154D02*
X043730Y014767D01*
X043730Y014154D01*
X043730Y014154D01*
X043432Y014154D01*
X043230Y014154D01*
X043230Y014154D01*
X043230Y013541D01*
X043372Y013541D01*
X043418Y013553D01*
X043459Y013577D01*
X043480Y013598D01*
X043502Y013577D01*
X043543Y013553D01*
X043589Y013541D01*
X043730Y013541D01*
X043730Y014154D01*
X043730Y014154D01*
X043730Y014036D02*
X043730Y014036D01*
X043730Y013877D02*
X043730Y013877D01*
X043730Y013719D02*
X043730Y013719D01*
X043730Y013560D02*
X043730Y013560D01*
X043531Y013560D02*
X043430Y013560D01*
X043230Y013560D02*
X043230Y013560D01*
X043230Y013719D02*
X043230Y013719D01*
X043230Y013877D02*
X043230Y013877D01*
X043230Y014036D02*
X043230Y014036D01*
X043230Y014194D02*
X043230Y014194D01*
X043230Y014353D02*
X043230Y014353D01*
X043230Y014511D02*
X043230Y014511D01*
X043230Y014670D02*
X043230Y014670D01*
X043730Y014670D02*
X043730Y014670D01*
X046411Y014194D02*
X046448Y014194D01*
X046448Y014036D02*
X046411Y014036D01*
X046411Y013877D02*
X046448Y013877D01*
X046448Y013719D02*
X046411Y013719D01*
X046411Y013560D02*
X046448Y013560D01*
X046448Y013402D02*
X046411Y013402D01*
X046411Y013243D02*
X046448Y013243D01*
X046448Y013085D02*
X046411Y013085D01*
X046411Y012926D02*
X046448Y012926D01*
X046083Y012926D02*
X042857Y012926D01*
X042698Y013085D02*
X046052Y013085D01*
X046052Y013243D02*
X042540Y013243D01*
X042968Y013560D02*
X043031Y013560D01*
X043930Y013560D02*
X043993Y013560D01*
X042285Y012768D02*
X042066Y012768D01*
X042070Y012609D02*
X042414Y012609D01*
X042414Y012451D02*
X042070Y012451D01*
X042057Y012292D02*
X042414Y012292D01*
X041638Y011823D02*
X041638Y011807D01*
X041634Y011803D01*
X043395Y011500D02*
X043566Y011500D01*
X043730Y011500D02*
X043730Y011500D01*
X043730Y011658D02*
X043730Y011658D01*
X043730Y011817D02*
X043730Y011817D01*
X043730Y011975D02*
X043730Y011975D01*
X043730Y012107D02*
X043730Y012107D01*
X043730Y012134D02*
X043730Y012134D01*
X043730Y012292D02*
X043730Y012292D01*
X043730Y012451D02*
X043730Y012451D01*
X043730Y012609D02*
X043730Y012609D01*
X044547Y012609D02*
X047417Y012609D01*
X047417Y012451D02*
X044547Y012451D01*
X044547Y012292D02*
X047417Y012292D01*
X047417Y012134D02*
X044547Y012134D01*
X044547Y011975D02*
X047417Y011975D01*
X047417Y011817D02*
X044547Y011817D01*
X044547Y011658D02*
X047417Y011658D01*
X047417Y011500D02*
X044455Y011500D01*
X044006Y011500D02*
X043895Y011500D01*
X040580Y010073D02*
X040132Y010073D01*
X040287Y009915D02*
X040304Y009915D01*
X040287Y009756D02*
X040304Y009756D01*
X040924Y009756D02*
X040942Y009756D01*
X040942Y009598D02*
X040924Y009598D01*
X040924Y009439D02*
X040942Y009439D01*
X040517Y009281D02*
X046133Y009281D01*
X046052Y009122D02*
X040542Y009122D01*
X040184Y008964D02*
X046052Y008964D01*
X046052Y008805D02*
X040542Y008805D01*
X040899Y008224D02*
X040936Y008224D01*
X040936Y008046D01*
X040899Y008046D01*
X040899Y008224D01*
X040899Y008171D02*
X040936Y008171D01*
X040936Y008013D02*
X041744Y008013D01*
X041743Y008171D02*
X041609Y008171D01*
X042259Y008171D02*
X043178Y008171D01*
X043178Y008248D02*
X043178Y008046D01*
X043852Y008046D01*
X043852Y008009D01*
X043889Y008009D01*
X043889Y008046D01*
X044562Y008046D01*
X044562Y008248D01*
X044550Y008294D01*
X044526Y008335D01*
X044492Y008369D01*
X044451Y008392D01*
X044406Y008405D01*
X043889Y008405D01*
X043889Y008046D01*
X043852Y008046D01*
X043852Y008405D01*
X043335Y008405D01*
X043289Y008392D01*
X043248Y008369D01*
X043214Y008335D01*
X043191Y008294D01*
X043178Y008248D01*
X043211Y008330D02*
X042259Y008330D01*
X042258Y008488D02*
X046411Y008488D01*
X046448Y008488D02*
X047417Y008488D01*
X047732Y008330D02*
X047749Y008330D01*
X047304Y007854D02*
X046806Y007854D01*
X046745Y007696D02*
X047407Y007696D01*
X047213Y007696D01*
X047213Y007854D02*
X047304Y007854D01*
X046052Y008013D02*
X045995Y008013D01*
X045995Y008009D02*
X045995Y008046D01*
X045958Y008046D01*
X045958Y008009D01*
X045995Y008009D01*
X045958Y008009D02*
X045958Y007651D01*
X045303Y007651D01*
X045257Y007663D01*
X045216Y007687D01*
X045183Y007720D01*
X045159Y007762D01*
X045147Y007807D01*
X045147Y008009D01*
X045958Y008009D01*
X045958Y008013D02*
X043889Y008013D01*
X043889Y008009D02*
X044562Y008009D01*
X044562Y007807D01*
X044550Y007762D01*
X044526Y007720D01*
X044492Y007687D01*
X044451Y007663D01*
X044406Y007651D01*
X043889Y007651D01*
X043889Y008009D01*
X043852Y008009D02*
X043852Y007651D01*
X043335Y007651D01*
X043289Y007663D01*
X043248Y007687D01*
X043214Y007720D01*
X043191Y007762D01*
X043178Y007807D01*
X043178Y008009D01*
X043852Y008009D01*
X043852Y008013D02*
X042260Y008013D01*
X042260Y007854D02*
X043178Y007854D01*
X043239Y007696D02*
X042261Y007696D01*
X042521Y007537D02*
X042597Y007537D01*
X042597Y007379D02*
X042521Y007379D01*
X042521Y007220D02*
X042597Y007220D01*
X042597Y007062D02*
X042521Y007062D01*
X042419Y006903D02*
X042699Y006903D01*
X043246Y006903D02*
X047417Y006903D01*
X047417Y006745D02*
X039372Y006745D01*
X039213Y006903D02*
X041872Y006903D01*
X041770Y007062D02*
X039055Y007062D01*
X038896Y007220D02*
X041770Y007220D01*
X041746Y007379D02*
X038738Y007379D01*
X038579Y007537D02*
X041745Y007537D01*
X041745Y007696D02*
X041548Y007696D01*
X041609Y007854D02*
X041744Y007854D01*
X040936Y007854D02*
X040899Y007854D01*
X040899Y008009D02*
X040899Y007651D01*
X040382Y007651D01*
X040336Y007663D01*
X040295Y007687D01*
X040261Y007720D01*
X040238Y007762D01*
X040226Y007807D01*
X040226Y008009D01*
X040899Y008009D01*
X040899Y008013D02*
X038829Y008013D01*
X038793Y008013D02*
X038735Y008013D01*
X038735Y008009D02*
X038793Y008009D01*
X038793Y008046D01*
X038735Y008046D01*
X038735Y008009D01*
X038793Y007854D02*
X038829Y007854D01*
X038829Y007696D02*
X038793Y007696D01*
X039580Y007696D02*
X040286Y007696D01*
X040226Y007854D02*
X039641Y007854D01*
X039641Y008171D02*
X040226Y008171D01*
X040899Y007696D02*
X040936Y007696D01*
X042258Y008532D02*
X042258Y008532D01*
X042219Y008627D02*
X042219Y008627D01*
X042199Y008647D02*
X046052Y008647D01*
X045958Y008405D02*
X045303Y008405D01*
X045257Y008392D01*
X045216Y008369D01*
X045183Y008335D01*
X045159Y008294D01*
X045147Y008248D01*
X045147Y008046D01*
X045958Y008046D01*
X045958Y008405D01*
X045958Y008330D02*
X045995Y008330D01*
X045995Y008171D02*
X045958Y008171D01*
X045179Y008330D02*
X044529Y008330D01*
X044562Y008171D02*
X045147Y008171D01*
X045147Y007854D02*
X044562Y007854D01*
X044501Y007696D02*
X045208Y007696D01*
X045958Y007696D02*
X045995Y007696D01*
X045995Y007854D02*
X045958Y007854D01*
X043889Y007854D02*
X043852Y007854D01*
X043852Y007696D02*
X043889Y007696D01*
X043889Y008171D02*
X043852Y008171D01*
X043852Y008330D02*
X043889Y008330D01*
X042146Y008699D02*
X042146Y008699D01*
X040942Y009915D02*
X040924Y009915D01*
X038691Y009598D02*
X036519Y009598D01*
X036677Y009439D02*
X038691Y009439D01*
X038691Y009281D02*
X038655Y009281D01*
X038377Y009281D02*
X038340Y009281D01*
X038340Y009122D02*
X038377Y009122D01*
X038377Y008964D02*
X038340Y008964D01*
X038340Y008805D02*
X038377Y008805D01*
X038377Y008647D02*
X038340Y008647D01*
X038340Y008488D02*
X037628Y008488D01*
X037470Y008647D02*
X037981Y008647D01*
X037981Y008805D02*
X037311Y008805D01*
X037153Y008964D02*
X037981Y008964D01*
X037981Y009122D02*
X036994Y009122D01*
X036836Y009281D02*
X038062Y009281D01*
X038377Y008488D02*
X038691Y008488D01*
X038793Y008171D02*
X038829Y008171D01*
X037981Y008171D02*
X037945Y008171D01*
X037981Y008330D02*
X037787Y008330D01*
X046411Y008647D02*
X046448Y008647D01*
X046448Y008805D02*
X046411Y008805D01*
X046411Y008964D02*
X046448Y008964D01*
X046448Y009122D02*
X046411Y009122D01*
X046411Y009281D02*
X046448Y009281D01*
X049606Y008985D02*
X049606Y012611D01*
X051606Y012611D01*
X051697Y012520D01*
X050516Y012111D02*
X050516Y007756D01*
X055106Y007709D02*
X055106Y008587D01*
X055106Y009611D01*
X055106Y010634D01*
X055606Y010634D02*
X055606Y012111D01*
X055516Y012111D01*
X059595Y011658D02*
X059749Y011658D01*
X059749Y011817D02*
X059671Y011817D01*
X059671Y011975D02*
X059749Y011975D01*
X055606Y009611D02*
X055606Y008587D01*
X067526Y008488D02*
X068090Y008488D01*
X067932Y008330D02*
X067684Y008330D01*
X067704Y008171D02*
X067773Y008171D01*
X068402Y008013D02*
X071726Y008013D01*
X071726Y008171D02*
X068560Y008171D01*
X068719Y008330D02*
X071739Y008330D01*
X071897Y008488D02*
X068877Y008488D01*
X069036Y008647D02*
X072528Y008647D01*
X072528Y008805D02*
X071526Y008805D01*
X070687Y008805D02*
X070526Y008805D01*
X069687Y008805D02*
X069526Y008805D01*
X068243Y007854D02*
X071776Y007854D01*
X071935Y007696D02*
X068085Y007696D01*
X072514Y007696D02*
X072528Y007696D01*
X072056Y013956D02*
X072173Y014072D01*
X072173Y015102D01*
X072056Y015218D01*
X071656Y015218D01*
X071593Y015155D01*
X071585Y015164D01*
X071544Y015188D01*
X071498Y015200D01*
X071356Y015200D01*
X071356Y014587D01*
X071356Y014587D01*
X071356Y013974D01*
X071498Y013974D01*
X071544Y013986D01*
X071585Y014010D01*
X071593Y014018D01*
X071656Y013956D01*
X072056Y013956D01*
X072136Y014036D02*
X072528Y014036D01*
X072528Y014194D02*
X072173Y014194D01*
X072173Y014353D02*
X072528Y014353D01*
X072528Y014511D02*
X072173Y014511D01*
X072173Y014670D02*
X072528Y014670D01*
X072528Y014828D02*
X072173Y014828D01*
X072173Y014987D02*
X072528Y014987D01*
X072528Y015145D02*
X072130Y015145D01*
X071356Y015145D02*
X071356Y015145D01*
X071356Y014987D02*
X071356Y014987D01*
X071356Y014828D02*
X071356Y014828D01*
X071356Y014670D02*
X071356Y014670D01*
X071356Y014511D02*
X071356Y014511D01*
X071356Y014353D02*
X071356Y014353D01*
X071356Y014194D02*
X071356Y014194D01*
X071356Y014036D02*
X071356Y014036D01*
X070856Y014670D02*
X070856Y014670D01*
X070856Y014828D02*
X070856Y014828D01*
X070856Y014987D02*
X070856Y014987D01*
X070856Y015145D02*
X070856Y015145D01*
X071104Y015145D02*
X071109Y015145D01*
X071356Y016096D02*
X071356Y016096D01*
X071356Y016255D02*
X071356Y016255D01*
X071356Y016413D02*
X071356Y016413D01*
X071356Y016572D02*
X071356Y016572D01*
X071356Y016730D02*
X071356Y016730D01*
X071356Y016889D02*
X071356Y016889D01*
X071356Y017047D02*
X071356Y017047D01*
X071356Y017206D02*
X071356Y017206D01*
X071122Y017206D02*
X071091Y017206D01*
X070856Y017206D02*
X070856Y017206D01*
X070856Y017047D02*
X070856Y017047D01*
X070856Y016889D02*
X070856Y016889D01*
X070856Y016730D02*
X070856Y016730D01*
X070856Y016572D02*
X070856Y016572D01*
X070856Y016413D02*
X070856Y016413D01*
X070856Y016255D02*
X070856Y016255D01*
X070856Y016096D02*
X070856Y016096D01*
X070063Y016096D02*
X070055Y016096D01*
X070356Y016634D02*
X070356Y017922D01*
X071591Y017206D02*
X071596Y017206D01*
X048144Y014194D02*
X047989Y014194D01*
X047989Y014036D02*
X048144Y014036D01*
X048144Y013877D02*
X047989Y013877D01*
X047989Y013719D02*
X048144Y013719D01*
X047582Y013719D02*
X047213Y013719D01*
X047213Y013877D02*
X047572Y013877D01*
X047417Y014194D02*
X046738Y014194D01*
X039549Y012292D02*
X039426Y012292D01*
X038377Y012926D02*
X038340Y012926D01*
X038340Y013085D02*
X038377Y013085D01*
X038377Y013243D02*
X038340Y013243D01*
X038340Y013402D02*
X038377Y013402D01*
X038377Y013560D02*
X038340Y013560D01*
X037981Y013402D02*
X032480Y013402D01*
X032556Y013243D02*
X037981Y013243D01*
X037981Y013085D02*
X031966Y013085D01*
X031806Y013085D02*
X029958Y013085D01*
X029958Y013100D02*
X030579Y013100D01*
X030571Y013158D01*
X030547Y013247D01*
X030512Y013332D01*
X030465Y013412D01*
X030409Y013486D01*
X030390Y013505D01*
X031373Y013505D01*
X031355Y013486D01*
X031298Y013412D01*
X031252Y013332D01*
X031217Y013247D01*
X031193Y013158D01*
X031185Y013100D01*
X031806Y013100D01*
X031806Y012940D01*
X031185Y012940D01*
X031193Y012882D01*
X031217Y012793D01*
X031252Y012707D01*
X031295Y012633D01*
X031050Y012751D01*
X030714Y012751D01*
X030468Y012633D01*
X030512Y012707D01*
X030547Y012793D01*
X030571Y012882D01*
X030579Y012940D01*
X029958Y012940D01*
X029958Y013100D01*
X029798Y013100D02*
X029798Y012940D01*
X029177Y012940D01*
X029185Y012882D01*
X029209Y012793D01*
X029244Y012707D01*
X029291Y012627D01*
X029347Y012554D01*
X029389Y012512D01*
X027905Y012512D01*
X027920Y012537D01*
X027932Y012583D01*
X027932Y012775D01*
X027505Y012775D01*
X027505Y012792D01*
X027932Y012792D01*
X027932Y012985D01*
X027920Y013030D01*
X027896Y013071D01*
X027862Y013105D01*
X027821Y013129D01*
X027776Y013141D01*
X027505Y013141D01*
X027505Y012792D01*
X027487Y012792D01*
X027487Y012775D01*
X027060Y012775D01*
X027060Y012583D01*
X027072Y012537D01*
X027087Y012511D01*
X015283Y012509D01*
X015280Y012513D01*
X015064Y012606D01*
X014828Y012610D01*
X014609Y012523D01*
X014440Y012359D01*
X014347Y012143D01*
X014345Y012025D01*
X014326Y011662D01*
X014202Y010946D01*
X013968Y010257D01*
X013630Y009614D01*
X013196Y009031D01*
X012677Y008522D01*
X012085Y008101D01*
X011434Y007777D01*
X010741Y007558D01*
X010022Y007450D01*
X009296Y007455D01*
X008578Y007572D01*
X007888Y007800D01*
X007242Y008133D01*
X006655Y008562D01*
X006143Y009077D01*
X005717Y009666D01*
X005387Y010314D01*
X005162Y011005D01*
X005065Y011618D01*
X005213Y011618D01*
X005314Y010982D01*
X005529Y010320D01*
X005844Y009701D01*
X006253Y009139D01*
X006745Y008647D01*
X007307Y008238D01*
X007927Y007923D01*
X008588Y007708D01*
X009274Y007599D01*
X009970Y007599D01*
X010656Y007708D01*
X011318Y007923D01*
X011937Y008238D01*
X012500Y008647D01*
X012991Y009139D01*
X013400Y009701D01*
X013715Y010320D01*
X013930Y010982D01*
X014039Y011668D01*
X014039Y012364D01*
X013930Y013050D01*
X013715Y013712D01*
X013400Y014331D01*
X012991Y014894D01*
X012500Y015385D01*
X011937Y015794D01*
X011318Y016109D01*
X010656Y016324D01*
X009970Y016433D01*
X009274Y016433D01*
X008588Y016324D01*
X007927Y016109D01*
X007307Y015794D01*
X006745Y015385D01*
X006253Y014894D01*
X005844Y014331D01*
X005529Y013712D01*
X005314Y013050D01*
X005213Y012414D01*
X005047Y012414D01*
X005047Y012450D01*
X005047Y012451D02*
X005219Y012451D01*
X005244Y012609D02*
X005098Y012609D01*
X005114Y012647D02*
X005137Y012733D01*
X005144Y012786D01*
X005086Y012786D01*
X005089Y012811D01*
X005107Y012927D01*
X005102Y012946D01*
X005144Y012946D01*
X005137Y012999D01*
X005114Y013085D01*
X005325Y013085D01*
X005294Y012926D02*
X005107Y012926D01*
X005114Y013085D02*
X005080Y013168D01*
X005035Y013245D01*
X004981Y013316D01*
X004918Y013379D01*
X004847Y013433D01*
X004770Y013478D01*
X004688Y013512D01*
X004601Y013535D01*
X004548Y013542D01*
X004548Y013494D01*
X004479Y013505D01*
X004389Y013483D01*
X004389Y013542D01*
X004336Y013535D01*
X004249Y013512D01*
X004167Y013478D01*
X004090Y013433D01*
X004019Y013379D01*
X003956Y013316D01*
X003902Y013245D01*
X003857Y013168D01*
X003823Y013085D01*
X003718Y013085D01*
X003823Y013085D02*
X003800Y012999D01*
X003793Y012946D01*
X003912Y012946D01*
X003887Y012786D01*
X003793Y012786D01*
X003800Y012733D01*
X003823Y012647D01*
X003854Y012573D01*
X003849Y012541D01*
X003849Y012414D01*
X003641Y012414D01*
X003676Y012895D01*
X003867Y013756D01*
X004180Y014580D01*
X004610Y015349D01*
X005146Y016049D01*
X005779Y016663D01*
X006493Y017179D01*
X007275Y017586D01*
X008108Y017876D01*
X008974Y018041D01*
X009854Y018080D01*
X010731Y017990D01*
X011586Y017774D01*
X012401Y017437D01*
X013157Y016985D01*
X013841Y016428D01*
X014436Y015779D01*
X011957Y015779D01*
X012176Y015621D02*
X014544Y015621D01*
X014436Y015779D02*
X014932Y015049D01*
X015316Y014256D01*
X015441Y013903D01*
X015441Y013889D01*
X015470Y013820D01*
X015492Y013749D01*
X015506Y013733D01*
X015514Y013713D01*
X015567Y013660D01*
X015615Y013603D01*
X015634Y013593D01*
X015649Y013578D01*
X015718Y013549D01*
X015784Y013515D01*
X015806Y013513D01*
X015826Y013505D01*
X015900Y013505D01*
X015975Y013498D01*
X015995Y013505D01*
X029366Y013505D01*
X029347Y013486D01*
X029291Y013412D01*
X029244Y013332D01*
X029209Y013247D01*
X029185Y013158D01*
X029177Y013100D01*
X029798Y013100D01*
X029798Y013085D02*
X027883Y013085D01*
X027932Y012926D02*
X029179Y012926D01*
X029219Y012768D02*
X027932Y012768D01*
X027932Y012609D02*
X029305Y012609D01*
X030537Y012768D02*
X031227Y012768D01*
X031187Y012926D02*
X030577Y012926D01*
X030548Y013243D02*
X031216Y013243D01*
X031292Y013402D02*
X030472Y013402D01*
X029284Y013402D02*
X013816Y013402D01*
X013765Y013560D02*
X015692Y013560D01*
X015512Y013719D02*
X013712Y013719D01*
X013631Y013877D02*
X015446Y013877D01*
X015394Y014036D02*
X013550Y014036D01*
X013470Y014194D02*
X015338Y014194D01*
X015269Y014353D02*
X013384Y014353D01*
X013269Y014511D02*
X015192Y014511D01*
X015115Y014670D02*
X013154Y014670D01*
X013039Y014828D02*
X015039Y014828D01*
X014962Y014987D02*
X012898Y014987D01*
X012740Y015145D02*
X014866Y015145D01*
X014759Y015304D02*
X012581Y015304D01*
X012394Y015462D02*
X014651Y015462D01*
X014291Y015938D02*
X011655Y015938D01*
X011344Y016096D02*
X014146Y016096D01*
X014000Y016255D02*
X010871Y016255D01*
X010096Y016413D02*
X013855Y016413D01*
X013665Y016572D02*
X005684Y016572D01*
X005521Y016413D02*
X009148Y016413D01*
X008373Y016255D02*
X005358Y016255D01*
X005195Y016096D02*
X007900Y016096D01*
X007589Y015938D02*
X005061Y015938D01*
X004939Y015779D02*
X007287Y015779D01*
X007069Y015621D02*
X004818Y015621D01*
X004696Y015462D02*
X006850Y015462D01*
X006663Y015304D02*
X004584Y015304D01*
X004496Y015145D02*
X006504Y015145D01*
X006346Y014987D02*
X004407Y014987D01*
X004319Y014828D02*
X006205Y014828D01*
X006090Y014670D02*
X004230Y014670D01*
X004154Y014511D02*
X005975Y014511D01*
X005860Y014353D02*
X004094Y014353D01*
X004033Y014194D02*
X005774Y014194D01*
X005694Y014036D02*
X003973Y014036D01*
X003913Y013877D02*
X005613Y013877D01*
X005532Y013719D02*
X003858Y013719D01*
X003823Y013560D02*
X005479Y013560D01*
X005428Y013402D02*
X004888Y013402D01*
X005036Y013243D02*
X005376Y013243D01*
X004469Y012878D02*
X004465Y012882D01*
X004469Y012878D02*
X004469Y012866D01*
X004469Y012803D01*
X004504Y012803D01*
X003909Y012926D02*
X003683Y012926D01*
X003666Y012768D02*
X003796Y012768D01*
X003839Y012609D02*
X003655Y012609D01*
X003643Y012451D02*
X003849Y012451D01*
X003849Y012541D02*
X003849Y012541D01*
X005047Y012450D02*
X005055Y012523D01*
X005080Y012565D01*
X005114Y012647D01*
X005141Y012768D02*
X005269Y012768D01*
X003901Y013243D02*
X003753Y013243D01*
X003788Y013402D02*
X004049Y013402D01*
X003871Y011500D02*
X003649Y011500D01*
X003661Y011341D02*
X003896Y011341D01*
X003921Y011183D02*
X003672Y011183D01*
X003701Y011024D02*
X003946Y011024D01*
X003972Y010866D02*
X003736Y010866D01*
X003771Y010707D02*
X004000Y010707D01*
X004051Y010549D02*
X003806Y010549D01*
X003841Y010390D02*
X004103Y010390D01*
X004154Y010232D02*
X003884Y010232D01*
X003944Y010073D02*
X004206Y010073D01*
X004257Y009915D02*
X004004Y009915D01*
X004064Y009756D02*
X004327Y009756D01*
X004277Y009854D02*
X004277Y009854D01*
X004407Y009598D02*
X004125Y009598D01*
X004187Y009439D02*
X004488Y009439D01*
X004569Y009281D02*
X004276Y009281D01*
X004364Y009122D02*
X004649Y009122D01*
X004691Y009039D02*
X004691Y009039D01*
X004746Y008964D02*
X004453Y008964D01*
X004541Y008805D02*
X004861Y008805D01*
X004976Y008647D02*
X004637Y008647D01*
X004759Y008488D02*
X005091Y008488D01*
X005205Y008330D02*
X004881Y008330D01*
X005002Y008171D02*
X005355Y008171D01*
X005228Y008299D02*
X005228Y008299D01*
X005124Y008013D02*
X005512Y008013D01*
X005670Y007854D02*
X005279Y007854D01*
X005442Y007696D02*
X005828Y007696D01*
X006028Y007537D02*
X005606Y007537D01*
X005769Y007379D02*
X006245Y007379D01*
X006461Y007220D02*
X005985Y007220D01*
X006204Y007062D02*
X006706Y007062D01*
X008794Y007537D02*
X010601Y007537D01*
X010579Y007696D02*
X011176Y007696D01*
X011106Y007854D02*
X011589Y007854D01*
X011494Y008013D02*
X011907Y008013D01*
X011805Y008171D02*
X012183Y008171D01*
X012063Y008330D02*
X012406Y008330D01*
X012281Y008488D02*
X012628Y008488D01*
X012499Y008647D02*
X012804Y008647D01*
X012658Y008805D02*
X012965Y008805D01*
X012816Y008964D02*
X013127Y008964D01*
X013264Y009122D02*
X012975Y009122D01*
X013094Y009281D02*
X013382Y009281D01*
X013500Y009439D02*
X013209Y009439D01*
X013325Y009598D02*
X013618Y009598D01*
X013705Y009756D02*
X013428Y009756D01*
X013509Y009915D02*
X013788Y009915D01*
X013871Y010073D02*
X013589Y010073D01*
X013670Y010232D02*
X013955Y010232D01*
X014013Y010390D02*
X013738Y010390D01*
X013790Y010549D02*
X014067Y010549D01*
X014121Y010707D02*
X013841Y010707D01*
X013893Y010866D02*
X014175Y010866D01*
X014215Y011024D02*
X013937Y011024D01*
X013962Y011183D02*
X014243Y011183D01*
X014270Y011341D02*
X013987Y011341D01*
X014012Y011500D02*
X014298Y011500D01*
X014325Y011658D02*
X014037Y011658D01*
X014039Y011817D02*
X014334Y011817D01*
X014343Y011975D02*
X014039Y011975D01*
X014039Y012134D02*
X014347Y012134D01*
X014412Y012292D02*
X014039Y012292D01*
X014025Y012451D02*
X014535Y012451D01*
X014827Y012609D02*
X014000Y012609D01*
X013975Y012768D02*
X027060Y012768D01*
X027060Y012792D02*
X027060Y012985D01*
X027072Y013030D01*
X027096Y013071D01*
X027130Y013105D01*
X027171Y013129D01*
X027216Y013141D01*
X027487Y013141D01*
X027487Y012792D01*
X027060Y012792D01*
X027060Y012926D02*
X013950Y012926D01*
X013919Y013085D02*
X027109Y013085D01*
X027487Y013085D02*
X027505Y013085D01*
X027505Y012926D02*
X027487Y012926D01*
X027060Y012609D02*
X014862Y012609D01*
X013868Y013243D02*
X029208Y013243D01*
X030882Y012016D02*
X030879Y012011D01*
X030878Y012006D01*
X030880Y012000D01*
X030884Y011996D01*
X030890Y011995D01*
X030896Y011996D01*
X030900Y012000D01*
X030902Y012006D01*
X030901Y012011D01*
X030898Y012016D01*
X032585Y012926D02*
X038012Y012926D01*
X027772Y011500D02*
X015513Y011500D01*
X015486Y011341D02*
X027769Y011341D01*
X027769Y011183D02*
X015458Y011183D01*
X015431Y011024D02*
X027791Y011024D01*
X013471Y016730D02*
X005871Y016730D01*
X006091Y016889D02*
X013276Y016889D01*
X013054Y017047D02*
X006310Y017047D01*
X006544Y017206D02*
X012788Y017206D01*
X012523Y017364D02*
X006848Y017364D01*
X007153Y017523D02*
X012194Y017523D01*
X011811Y017681D02*
X007548Y017681D01*
X008004Y017840D02*
X011328Y017840D01*
X010654Y017998D02*
X008748Y017998D01*
X005232Y011500D02*
X005084Y011500D01*
X005109Y011341D02*
X005257Y011341D01*
X005282Y011183D02*
X005134Y011183D01*
X005159Y011024D02*
X005307Y011024D01*
X005352Y010866D02*
X005208Y010866D01*
X005259Y010707D02*
X005403Y010707D01*
X005455Y010549D02*
X005311Y010549D01*
X005362Y010390D02*
X005506Y010390D01*
X005574Y010232D02*
X005429Y010232D01*
X005509Y010073D02*
X005655Y010073D01*
X005590Y009915D02*
X005735Y009915D01*
X005671Y009756D02*
X005816Y009756D01*
X005766Y009598D02*
X005919Y009598D01*
X005881Y009439D02*
X006035Y009439D01*
X005996Y009281D02*
X006150Y009281D01*
X006110Y009122D02*
X006269Y009122D01*
X006256Y008964D02*
X006428Y008964D01*
X006414Y008805D02*
X006586Y008805D01*
X006571Y008647D02*
X006745Y008647D01*
X006655Y008562D02*
X006655Y008562D01*
X006757Y008488D02*
X006963Y008488D01*
X006973Y008330D02*
X007181Y008330D01*
X007190Y008171D02*
X007439Y008171D01*
X007476Y008013D02*
X007750Y008013D01*
X007784Y007854D02*
X008138Y007854D01*
X008206Y007696D02*
X008665Y007696D01*
D32*
X049606Y007630D03*
X053606Y007709D03*
X054606Y007709D03*
X055606Y007709D03*
X063106Y007611D03*
X064106Y007611D03*
X065106Y007611D03*
X065106Y011414D03*
X064106Y011414D03*
X058835Y013866D03*
X053717Y013985D03*
D33*
X053606Y011315D03*
X054110Y011327D03*
X054606Y011315D03*
X054106Y007193D03*
D34*
X047740Y007288D02*
X047736Y007284D01*
X039496Y008973D02*
X039433Y009075D01*
X039429Y009662D01*
X040634Y010446D02*
X040656Y010463D01*
X040679Y010478D01*
X040705Y010489D01*
X040731Y010497D01*
X040759Y010501D01*
X040786Y010502D01*
X040814Y010499D01*
X040841Y010492D01*
X040867Y010483D01*
X040891Y010469D01*
X040914Y010453D01*
X040934Y010434D01*
X040933Y010433D02*
X040673Y010445D01*
X041146Y010445D01*
X041343Y010642D01*
X041343Y011528D01*
X041638Y011823D01*
X041652Y011837D01*
X041185Y011819D02*
X040693Y011819D01*
X040201Y011819D01*
X040201Y011839D01*
X040256Y011894D01*
X040201Y011819D02*
X040184Y011818D01*
X040167Y011813D01*
X040152Y011806D01*
X040138Y011796D01*
X040126Y011784D01*
X040116Y011770D01*
X040109Y011755D01*
X040104Y011738D01*
X040103Y011721D01*
X039512Y011622D02*
X039165Y011622D01*
X039350Y011425D02*
X039299Y011362D01*
X039295Y010457D01*
X039429Y010410D01*
X039807Y010792D02*
X040295Y010449D01*
X040193Y010457D01*
X040260Y010445D01*
X040634Y010445D01*
X040260Y010445D02*
X040247Y010446D01*
X040234Y010451D01*
X040223Y010458D01*
X040214Y010467D01*
X040207Y010478D01*
X040202Y010491D01*
X040201Y010504D01*
X040201Y011130D01*
X039807Y011130D02*
X039807Y010792D01*
X039512Y011425D02*
X039350Y011425D01*
X039512Y012016D02*
X039079Y012020D01*
X035213Y011996D02*
X034425Y011996D01*
X034417Y011998D01*
X034411Y012002D01*
X034407Y012008D01*
X034405Y012016D01*
D35*
X047122Y008374D03*
X051453Y008374D03*
X053122Y007193D03*
X057654Y008473D03*
X061689Y008473D03*
X065921Y007587D03*
X068087Y006799D03*
X072319Y006799D03*
X072319Y008965D03*
X068087Y008965D03*
X068087Y010540D03*
X069563Y010540D03*
X071531Y010540D03*
X072319Y012705D03*
X060961Y010559D03*
X059661Y010559D03*
X059622Y012961D03*
X051453Y011130D03*
X048008Y010638D03*
X047122Y006799D03*
X057949Y017922D03*
D36*
X038685Y012000D02*
X037575Y011996D01*
X037575Y012016D01*
X036723Y012016D01*
X036064Y012016D02*
X034406Y012016D01*
X033657Y012016D02*
X030898Y012016D01*
X028244Y012016D01*
X014937Y012016D01*
X014927Y011761D01*
X014906Y011506D01*
X014872Y011253D01*
X014825Y011002D01*
X014767Y010754D01*
X014696Y010509D01*
X014614Y010267D01*
X014520Y010030D01*
X014415Y009797D01*
X014298Y009570D01*
X014171Y009349D01*
X014033Y009134D01*
X013884Y008927D01*
X013726Y008727D01*
X013558Y008534D01*
X013381Y008350D01*
X013195Y008175D01*
X013001Y008009D01*
X012800Y007853D01*
X012590Y007707D01*
X012374Y007571D01*
X012152Y007446D01*
X011924Y007332D01*
X011690Y007229D01*
X011452Y007137D01*
X011209Y007058D01*
X010963Y006990D01*
X010714Y006934D01*
X010463Y006890D01*
X010210Y006859D01*
X009955Y006840D01*
X009700Y006833D01*
X009445Y006839D01*
X009196Y006856D01*
X008948Y006884D01*
X008702Y006924D01*
X008458Y006975D01*
X008217Y007039D01*
X007979Y007114D01*
X007745Y007200D01*
X007515Y007297D01*
X007290Y007405D01*
X007071Y007524D01*
X006858Y007653D01*
X006651Y007792D01*
X006450Y007941D01*
X006258Y008099D01*
X006073Y008266D01*
X005896Y008442D01*
X005728Y008627D01*
X005569Y008819D01*
X005419Y009018D01*
X005279Y009225D01*
X005149Y009438D01*
X005029Y009656D01*
X004920Y009881D01*
X004822Y010110D01*
X004735Y010344D01*
X004659Y010581D01*
X004595Y010822D01*
X004542Y011066D01*
X004501Y011312D01*
X004472Y011560D01*
X004454Y011809D01*
X004449Y012058D01*
X004456Y012308D01*
X004474Y012556D01*
X004504Y012804D01*
D37*
X005134Y012488D03*
X003717Y012488D03*
X003795Y013079D03*
X005213Y012961D03*
X005213Y013473D03*
X005449Y013945D03*
X004701Y013788D03*
X003992Y013709D03*
X004228Y014260D03*
X004504Y014851D03*
X005685Y014418D03*
X006079Y014969D03*
X006512Y015441D03*
X007063Y015796D03*
X007614Y016150D03*
X008205Y016386D03*
X008835Y016544D03*
X009504Y016622D03*
X010213Y016583D03*
X010843Y016465D03*
X011472Y016229D03*
X012063Y015874D03*
X012654Y015441D03*
X013126Y014929D03*
X014543Y015402D03*
X014858Y014929D03*
X013559Y014339D03*
X015173Y014221D03*
X015331Y013591D03*
X013913Y013709D03*
X014189Y012961D03*
X014858Y012803D03*
X015646Y012607D03*
X016354Y012607D03*
X017063Y012607D03*
X017732Y012607D03*
X018480Y012607D03*
X019189Y012607D03*
X019819Y012607D03*
X020488Y012607D03*
X021118Y012607D03*
X021748Y012607D03*
X022417Y012607D03*
X023087Y012607D03*
X023795Y012607D03*
X024543Y012607D03*
X025173Y012607D03*
X025843Y012607D03*
X026512Y012607D03*
X026906Y013000D03*
X028047Y013040D03*
X028441Y012607D03*
X029071Y012607D03*
X028795Y011425D03*
X027614Y011425D03*
X026984Y011425D03*
X026315Y011425D03*
X025646Y011425D03*
X024976Y011425D03*
X024307Y011425D03*
X023638Y011425D03*
X023008Y011425D03*
X022378Y011425D03*
X021748Y011425D03*
X021079Y011425D03*
X020409Y011425D03*
X019740Y011425D03*
X019110Y011425D03*
X018362Y011425D03*
X017654Y011425D03*
X016984Y011425D03*
X016315Y011425D03*
X015685Y011425D03*
X014150Y011386D03*
X013992Y010677D03*
X015331Y010166D03*
X015567Y010796D03*
X013717Y010008D03*
X013362Y009418D03*
X012929Y008866D03*
X012378Y008394D03*
X011787Y008000D03*
X011157Y007725D03*
X010528Y007567D03*
X009898Y007488D03*
X009228Y007488D03*
X008638Y007567D03*
X008087Y007764D03*
X007496Y008000D03*
X006984Y008355D03*
X006512Y008748D03*
X006079Y009221D03*
X004858Y008630D03*
X004504Y009142D03*
X004228Y009693D03*
X005685Y009811D03*
X004031Y010244D03*
X005370Y010402D03*
X005213Y011032D03*
X003874Y010914D03*
X003795Y011583D03*
X005094Y011583D03*
X014228Y012134D03*
X014937Y009457D03*
X014583Y008788D03*
X014150Y008158D03*
X013638Y007646D03*
X013126Y007252D03*
X012575Y006898D03*
X011945Y006622D03*
X011354Y006425D03*
X010646Y006268D03*
X009937Y006189D03*
X009307Y006189D03*
X008677Y006268D03*
X008087Y006386D03*
X007496Y006583D03*
X006906Y006859D03*
X006354Y007174D03*
X005803Y007607D03*
X005291Y008079D03*
X028205Y010835D03*
X032787Y011445D03*
X033402Y011445D03*
X034028Y011445D03*
X034661Y011449D03*
X035803Y011445D03*
X036354Y011445D03*
X036945Y011441D03*
X038374Y011410D03*
X040862Y010965D03*
X041689Y010729D03*
X044787Y011650D03*
X046409Y011630D03*
X046413Y012559D03*
X044130Y013130D03*
X043500Y013130D03*
X042831Y013130D03*
X042240Y012540D03*
X039354Y012492D03*
X038886Y012555D03*
X038197Y012583D03*
X037500Y012583D03*
X036965Y012587D03*
X036358Y012591D03*
X035803Y012599D03*
X035244Y012595D03*
X034665Y012595D03*
X034035Y012583D03*
X033402Y012579D03*
X032811Y012595D03*
X038370Y014524D03*
X039906Y014524D03*
X041992Y014563D03*
X044787Y014603D03*
X046402Y014575D03*
X042760Y016063D03*
X041953Y016095D03*
X039902Y016130D03*
X038957Y015402D03*
X039157Y012988D03*
X038382Y009626D03*
X040902Y009075D03*
X041610Y009272D03*
X042543Y009642D03*
X044811Y009638D03*
X046406Y009630D03*
X044835Y008024D03*
X042484Y008059D03*
X039906Y008048D03*
X014189Y015874D03*
X013795Y016307D03*
X013362Y016701D03*
X012929Y017016D03*
X012417Y017292D03*
X011906Y017528D03*
X011315Y017725D03*
X010724Y017882D03*
X010134Y017961D03*
X009543Y018000D03*
X008953Y017922D03*
X008283Y017803D03*
X007654Y017607D03*
X007063Y017331D03*
X006472Y017016D03*
X006000Y016662D03*
X005528Y016268D03*
X005134Y015835D03*
X004819Y015362D03*
D38*
X004465Y013551D02*
X004465Y012882D01*
X003795Y012882D01*
X004465Y012882D02*
X005094Y012882D01*
D39*
X039949Y011894D03*
X040256Y011894D03*
X040256Y011548D03*
X039949Y011548D03*
D40*
X039949Y011894D02*
X040004Y011894D01*
X040004Y012311D01*
X040201Y012311D02*
X040201Y013008D01*
X040350Y013158D01*
X041020Y013158D02*
X041020Y013866D01*
X040902Y013866D01*
X040232Y013866D02*
X039681Y013866D01*
X039807Y013740D01*
X039807Y012311D01*
X040693Y012016D02*
X041000Y012016D01*
X041000Y012567D01*
X042260Y013158D02*
X042693Y012725D01*
X042693Y012144D01*
X042730Y012107D01*
X039165Y011622D02*
X038949Y011406D01*
X038949Y008528D01*
X038992Y008485D01*
X042000Y008481D01*
X042004Y007425D01*
X042146Y007284D01*
X042972Y007284D02*
X047736Y007284D01*
X047740Y007288D02*
X048878Y007288D01*
X048992Y007174D01*
X052417Y007174D01*
X052535Y007292D01*
X053106Y007862D01*
X053106Y008587D01*
X042260Y013158D02*
X041020Y013158D01*
X028244Y012016D02*
X028224Y012036D01*
X028205Y012036D01*
X027496Y012036D01*
D41*
X066315Y013945D03*
D42*
X039079Y012020D02*
X038685Y012020D01*
D43*
X038764Y012177D02*
X039157Y012020D01*
X038764Y011823D01*
M02*
