G75*
G70*
%OFA0B0*%
%FSLAX24Y24*%
%IPPOS*%
%LPD*%
%AMOC8*
5,1,8,0,0,1.08239X$1,22.5*
%
%ADD10C,0.0750*%
%ADD11C,0.1050*%
%ADD12R,0.0512X0.0630*%
%ADD13R,0.2047X0.2047*%
%ADD14R,0.1575X0.1575*%
%ADD15OC8,0.0600*%
%ADD16R,0.0512X0.0354*%
%ADD17R,0.0276X0.0433*%
%ADD18R,0.0394X0.0315*%
%ADD19C,0.0554*%
%ADD20C,0.1000*%
%ADD21C,0.0160*%
%ADD22R,0.0396X0.0396*%
%ADD23OC8,0.0357*%
%ADD24R,0.0357X0.0357*%
%ADD25C,0.0317*%
%ADD26C,0.0278*%
%ADD27C,0.0120*%
%ADD28C,0.0357*%
D10*
X030882Y012016D03*
D11*
X031886Y013020D03*
X029878Y013020D03*
X029878Y011012D03*
X031886Y011012D03*
D12*
X049232Y009611D03*
X049980Y009611D03*
X050732Y009611D03*
X051480Y009611D03*
X052732Y009611D03*
X053480Y009611D03*
X054732Y009611D03*
X055480Y009611D03*
X056732Y009611D03*
X057480Y009611D03*
X060232Y009611D03*
X060980Y009611D03*
X062732Y009611D03*
X063480Y009611D03*
X064732Y009611D03*
X065480Y009611D03*
X066732Y009611D03*
X067480Y009611D03*
X068732Y009611D03*
X069480Y009611D03*
D13*
X071413Y015166D03*
X061217Y015166D03*
X058815Y015166D03*
X048618Y015166D03*
D14*
X053717Y015166D03*
X066315Y015166D03*
D15*
X067224Y008111D03*
X070224Y007111D03*
X072224Y008111D03*
D16*
X054106Y009217D03*
X054106Y009965D03*
D17*
X059130Y016622D03*
X060311Y016622D03*
X060902Y016622D03*
X045343Y016622D03*
X044752Y016622D03*
X043571Y016622D03*
D18*
X042980Y016977D03*
X042980Y017882D03*
X045933Y017882D03*
X045933Y016977D03*
X058539Y016977D03*
X058539Y017882D03*
X061492Y017882D03*
X061492Y016977D03*
D19*
X060606Y017429D03*
X059425Y017429D03*
X045047Y017429D03*
X043866Y017429D03*
D20*
X051551Y007016D03*
D21*
X008974Y005991D02*
X008108Y006156D01*
X007275Y006446D01*
X006493Y006853D01*
X005779Y007369D01*
X005146Y007983D01*
X004610Y008683D01*
X004180Y009452D01*
X003867Y010276D01*
X003676Y011137D01*
X003641Y011618D01*
X005213Y011618D01*
X005314Y010982D01*
X005529Y010320D01*
X005844Y009701D01*
X006253Y009139D01*
X006745Y008647D01*
X007307Y008238D01*
X007927Y007923D01*
X008588Y007708D01*
X009274Y007599D01*
X009970Y007599D01*
X010656Y007708D01*
X011318Y007923D01*
X011937Y008238D01*
X012500Y008647D01*
X012991Y009139D01*
X013400Y009701D01*
X013715Y010320D01*
X013930Y010982D01*
X014039Y011668D01*
X014039Y012364D01*
X013930Y013050D01*
X013715Y013712D01*
X013400Y014331D01*
X012991Y014894D01*
X012500Y015385D01*
X011937Y015794D01*
X011318Y016109D01*
X010656Y016324D01*
X009970Y016433D01*
X009274Y016433D01*
X008588Y016324D01*
X007927Y016109D01*
X007307Y015794D01*
X006745Y015385D01*
X006253Y014894D01*
X005844Y014331D01*
X005529Y013712D01*
X005314Y013050D01*
X005213Y012414D01*
X003641Y012414D01*
X003676Y012895D01*
X003867Y013756D01*
X004180Y014580D01*
X004610Y015349D01*
X005146Y016049D01*
X005779Y016663D01*
X006493Y017179D01*
X007275Y017586D01*
X008108Y017876D01*
X008974Y018041D01*
X009854Y018080D01*
X010731Y017990D01*
X011586Y017774D01*
X012401Y017437D01*
X013157Y016985D01*
X013841Y016428D01*
X014436Y015779D01*
X011957Y015779D01*
X012176Y015621D02*
X014544Y015621D01*
X014436Y015779D02*
X014932Y015049D01*
X015316Y014256D01*
X015441Y013903D01*
X015441Y013889D01*
X015470Y013820D01*
X015492Y013749D01*
X015506Y013733D01*
X015514Y013713D01*
X015567Y013660D01*
X015615Y013603D01*
X015634Y013593D01*
X015649Y013578D01*
X015718Y013549D01*
X015784Y013515D01*
X015806Y013513D01*
X015826Y013505D01*
X015900Y013505D01*
X015975Y013498D01*
X015995Y013505D01*
X029366Y013505D01*
X029347Y013486D01*
X029291Y013412D01*
X029244Y013332D01*
X029209Y013247D01*
X029185Y013158D01*
X029177Y013100D01*
X029798Y013100D01*
X029798Y012940D01*
X029177Y012940D01*
X029185Y012882D01*
X029209Y012793D01*
X029244Y012707D01*
X029291Y012627D01*
X029347Y012554D01*
X029412Y012489D01*
X029485Y012432D01*
X029566Y012386D01*
X029651Y012351D01*
X029740Y012327D01*
X029798Y012319D01*
X029798Y012940D01*
X029958Y012940D01*
X029958Y013100D01*
X030579Y013100D01*
X030571Y013158D01*
X030547Y013247D01*
X030512Y013332D01*
X030465Y013412D01*
X030409Y013486D01*
X030390Y013505D01*
X031373Y013505D01*
X031355Y013486D01*
X031298Y013412D01*
X031252Y013332D01*
X031217Y013247D01*
X031193Y013158D01*
X031185Y013100D01*
X031806Y013100D01*
X031806Y012940D01*
X031966Y012940D01*
X031966Y013100D01*
X032586Y013100D01*
X032579Y013158D01*
X032555Y013247D01*
X032519Y013332D01*
X032473Y013412D01*
X032417Y013486D01*
X032398Y013505D01*
X034845Y013505D01*
X035252Y013586D01*
X035635Y013744D01*
X035635Y013744D01*
X035980Y013975D01*
X035980Y013975D01*
X036127Y014122D01*
X036193Y014188D01*
X039841Y017835D01*
X042585Y017835D01*
X042585Y017643D01*
X042701Y017527D01*
X043259Y017527D01*
X043375Y017643D01*
X043375Y017835D01*
X043604Y017835D01*
X043597Y017832D01*
X043463Y017699D01*
X043391Y017524D01*
X043391Y017335D01*
X043463Y017160D01*
X043586Y017037D01*
X043375Y017037D01*
X043375Y017216D01*
X043259Y017332D01*
X042701Y017332D01*
X042585Y017216D01*
X042585Y016737D01*
X042701Y016621D01*
X043235Y016621D01*
X043235Y016324D01*
X043298Y016261D01*
X043300Y016106D01*
X043295Y016077D01*
X043301Y016051D01*
X043301Y016024D01*
X043313Y015997D01*
X043319Y015969D01*
X043335Y015947D01*
X043345Y015922D01*
X043366Y015902D01*
X043569Y015611D01*
X043578Y015589D01*
X043600Y015566D01*
X043619Y015540D01*
X043639Y015527D01*
X043655Y015510D01*
X043685Y015498D01*
X043712Y015480D01*
X043735Y015476D01*
X043757Y015467D01*
X043789Y015466D01*
X043821Y015461D01*
X043844Y015466D01*
X046616Y015441D01*
X046623Y013309D01*
X046623Y013256D01*
X046624Y013253D01*
X046624Y013251D01*
X046644Y013202D01*
X046664Y013153D01*
X046665Y013151D01*
X046666Y013149D01*
X046704Y013112D01*
X046741Y013074D01*
X046743Y013073D01*
X046745Y013071D01*
X046794Y013051D01*
X046843Y013030D01*
X046845Y013030D01*
X046847Y013029D01*
X046900Y013029D01*
X048191Y013013D01*
X048194Y012023D01*
X048198Y009634D01*
X048197Y009582D01*
X048198Y009578D01*
X048198Y009574D01*
X048218Y009527D01*
X048237Y009479D01*
X048239Y009476D01*
X048241Y009472D01*
X048277Y009436D01*
X048313Y009399D01*
X048316Y009397D01*
X048319Y009394D01*
X048367Y009375D01*
X048414Y009354D01*
X048418Y009354D01*
X048422Y009352D01*
X048473Y009352D01*
X048778Y009344D01*
X048778Y009213D01*
X048894Y009097D01*
X049570Y009097D01*
X049606Y009133D01*
X049642Y009097D01*
X049702Y009097D01*
X049702Y008075D01*
X049645Y008026D01*
X049326Y008026D01*
X049210Y007910D01*
X049210Y007350D01*
X049305Y007256D01*
X049305Y006843D01*
X049347Y006740D01*
X049445Y006642D01*
X049485Y006603D01*
X046335Y006603D01*
X046335Y015362D01*
X046617Y015362D01*
X046623Y013309D01*
X046623Y013256D01*
X046624Y013253D01*
X046624Y013251D01*
X046630Y013236D01*
X046630Y006591D01*
X039526Y006591D01*
X036263Y009853D01*
X036077Y010053D01*
X036077Y010053D01*
X035599Y010352D01*
X035060Y010517D01*
X034865Y010524D01*
X034857Y010528D01*
X034770Y010528D01*
X034683Y010531D01*
X034675Y010528D01*
X032398Y010528D01*
X032417Y010546D01*
X032473Y010620D01*
X032519Y010700D01*
X032555Y010785D01*
X032579Y010874D01*
X032586Y010932D01*
X031966Y010932D01*
X031966Y011092D01*
X032586Y011092D01*
X032579Y011150D01*
X032555Y011239D01*
X032519Y011325D01*
X032473Y011405D01*
X032417Y011478D01*
X032352Y011543D01*
X032278Y011600D01*
X032198Y011646D01*
X032113Y011681D01*
X032024Y011705D01*
X031966Y011713D01*
X031966Y011092D01*
X031806Y011092D01*
X031806Y011713D01*
X031748Y011705D01*
X031659Y011681D01*
X031573Y011646D01*
X031493Y011600D01*
X031484Y011593D01*
X031561Y011689D01*
X031636Y012016D01*
X031636Y012016D01*
X031561Y012343D01*
X031561Y012343D01*
X031484Y012439D01*
X031493Y012432D01*
X031573Y012386D01*
X031659Y012351D01*
X031748Y012327D01*
X031806Y012319D01*
X031806Y012940D01*
X031185Y012940D01*
X031193Y012882D01*
X031217Y012793D01*
X031252Y012707D01*
X031295Y012633D01*
X031050Y012751D01*
X030714Y012751D01*
X030468Y012633D01*
X030512Y012707D01*
X030547Y012793D01*
X030571Y012882D01*
X030579Y012940D01*
X029958Y012940D01*
X029958Y012319D01*
X030016Y012327D01*
X030105Y012351D01*
X030190Y012386D01*
X030271Y012432D01*
X030280Y012439D01*
X030203Y012343D01*
X030128Y012016D01*
X030203Y011689D01*
X030280Y011593D01*
X030271Y011600D01*
X030190Y011646D01*
X030105Y011681D01*
X030016Y011705D01*
X029958Y011713D01*
X029958Y011092D01*
X030579Y011092D01*
X030571Y011150D01*
X030547Y011239D01*
X030512Y011325D01*
X030468Y011399D01*
X030714Y011281D01*
X031050Y011281D01*
X031295Y011399D01*
X031252Y011325D01*
X031217Y011239D01*
X031193Y011150D01*
X031185Y011092D01*
X031806Y011092D01*
X031806Y010932D01*
X031185Y010932D01*
X031193Y010874D01*
X031217Y010785D01*
X031252Y010700D01*
X031298Y010620D01*
X031355Y010546D01*
X031373Y010528D01*
X030390Y010528D01*
X030409Y010546D01*
X030465Y010620D01*
X030512Y010700D01*
X030547Y010785D01*
X030571Y010874D01*
X030579Y010932D01*
X029958Y010932D01*
X029958Y011092D01*
X029798Y011092D01*
X029798Y010932D01*
X029177Y010932D01*
X029185Y010874D01*
X029209Y010785D01*
X029244Y010700D01*
X029291Y010620D01*
X029347Y010546D01*
X029366Y010528D01*
X015995Y010528D01*
X015975Y010534D01*
X015900Y010528D01*
X015826Y010528D01*
X015806Y010519D01*
X015784Y010517D01*
X015718Y010483D01*
X015649Y010454D01*
X015634Y010439D01*
X015615Y010429D01*
X015567Y010372D01*
X015514Y010319D01*
X015506Y010299D01*
X015492Y010283D01*
X015470Y010212D01*
X015441Y010143D01*
X015441Y010129D01*
X015316Y009776D01*
X014932Y008983D01*
X014436Y008253D01*
X013841Y007604D01*
X013157Y007047D01*
X012401Y006595D01*
X011586Y006258D01*
X010731Y006042D01*
X009854Y005952D01*
X008974Y005991D01*
X008348Y006111D02*
X011003Y006111D01*
X011614Y006269D02*
X007784Y006269D01*
X007328Y006428D02*
X011996Y006428D01*
X012379Y006586D02*
X007006Y006586D01*
X006702Y006745D02*
X012651Y006745D01*
X012917Y006903D02*
X006424Y006903D01*
X006204Y007062D02*
X013175Y007062D01*
X013370Y007220D02*
X005985Y007220D01*
X005769Y007379D02*
X013565Y007379D01*
X013759Y007537D02*
X005606Y007537D01*
X005442Y007696D02*
X008665Y007696D01*
X008138Y007854D02*
X005279Y007854D01*
X005124Y008013D02*
X007750Y008013D01*
X007439Y008171D02*
X005002Y008171D01*
X004881Y008330D02*
X007181Y008330D01*
X006963Y008488D02*
X004759Y008488D01*
X004637Y008647D02*
X006745Y008647D01*
X006586Y008805D02*
X004541Y008805D01*
X004453Y008964D02*
X006428Y008964D01*
X006269Y009122D02*
X004364Y009122D01*
X004276Y009281D02*
X006150Y009281D01*
X006035Y009439D02*
X004187Y009439D01*
X004125Y009598D02*
X005919Y009598D01*
X005816Y009756D02*
X004064Y009756D01*
X004004Y009915D02*
X005735Y009915D01*
X005655Y010073D02*
X003944Y010073D01*
X003884Y010232D02*
X005574Y010232D01*
X005506Y010390D02*
X003841Y010390D01*
X003806Y010549D02*
X005455Y010549D01*
X005403Y010707D02*
X003771Y010707D01*
X003736Y010866D02*
X005352Y010866D01*
X005307Y011024D02*
X003701Y011024D01*
X003672Y011183D02*
X005282Y011183D01*
X005257Y011341D02*
X003661Y011341D01*
X003649Y011500D02*
X005232Y011500D01*
X005219Y012451D02*
X003643Y012451D01*
X003655Y012609D02*
X005244Y012609D01*
X005269Y012768D02*
X003666Y012768D01*
X003683Y012926D02*
X005294Y012926D01*
X005325Y013085D02*
X003718Y013085D01*
X003753Y013243D02*
X005376Y013243D01*
X005428Y013402D02*
X003788Y013402D01*
X003823Y013560D02*
X005479Y013560D01*
X005532Y013719D02*
X003858Y013719D01*
X003913Y013877D02*
X005613Y013877D01*
X005694Y014036D02*
X003973Y014036D01*
X004033Y014194D02*
X005774Y014194D01*
X005860Y014353D02*
X004094Y014353D01*
X004154Y014511D02*
X005975Y014511D01*
X006090Y014670D02*
X004230Y014670D01*
X004319Y014828D02*
X006205Y014828D01*
X006346Y014987D02*
X004407Y014987D01*
X004496Y015145D02*
X006504Y015145D01*
X006663Y015304D02*
X004584Y015304D01*
X004696Y015462D02*
X006850Y015462D01*
X007069Y015621D02*
X004818Y015621D01*
X004939Y015779D02*
X007287Y015779D01*
X007589Y015938D02*
X005061Y015938D01*
X005195Y016096D02*
X007900Y016096D01*
X008373Y016255D02*
X005358Y016255D01*
X005521Y016413D02*
X009148Y016413D01*
X010096Y016413D02*
X013855Y016413D01*
X014000Y016255D02*
X010871Y016255D01*
X011344Y016096D02*
X014146Y016096D01*
X014291Y015938D02*
X011655Y015938D01*
X012394Y015462D02*
X014651Y015462D01*
X014759Y015304D02*
X012581Y015304D01*
X012740Y015145D02*
X014866Y015145D01*
X014962Y014987D02*
X012898Y014987D01*
X013039Y014828D02*
X015039Y014828D01*
X015115Y014670D02*
X013154Y014670D01*
X013269Y014511D02*
X015192Y014511D01*
X015269Y014353D02*
X013384Y014353D01*
X013470Y014194D02*
X015338Y014194D01*
X015394Y014036D02*
X013550Y014036D01*
X013631Y013877D02*
X015446Y013877D01*
X015512Y013719D02*
X013712Y013719D01*
X013765Y013560D02*
X015692Y013560D01*
X013919Y013085D02*
X029798Y013085D01*
X029798Y012926D02*
X029958Y012926D01*
X029958Y012768D02*
X029798Y012768D01*
X029798Y012609D02*
X029958Y012609D01*
X029958Y012451D02*
X029798Y012451D01*
X029462Y012451D02*
X014025Y012451D01*
X014039Y012292D02*
X030191Y012292D01*
X030203Y012343D02*
X030203Y012343D01*
X030155Y012134D02*
X014039Y012134D01*
X014039Y011975D02*
X030137Y011975D01*
X030128Y012016D02*
X030128Y012016D01*
X030174Y011817D02*
X014039Y011817D01*
X014037Y011658D02*
X029595Y011658D01*
X029566Y011646D02*
X029485Y011600D01*
X029412Y011543D01*
X029347Y011478D01*
X029291Y011405D01*
X029244Y011325D01*
X029209Y011239D01*
X029185Y011150D01*
X029177Y011092D01*
X029798Y011092D01*
X029798Y011713D01*
X029740Y011705D01*
X029651Y011681D01*
X029566Y011646D01*
X029798Y011658D02*
X029958Y011658D01*
X029958Y011500D02*
X029798Y011500D01*
X029798Y011341D02*
X029958Y011341D01*
X029958Y011183D02*
X029798Y011183D01*
X029798Y011024D02*
X013937Y011024D01*
X013962Y011183D02*
X029194Y011183D01*
X029254Y011341D02*
X013987Y011341D01*
X014012Y011500D02*
X029368Y011500D01*
X030161Y011658D02*
X030227Y011658D01*
X030203Y011689D02*
X030203Y011689D01*
X030502Y011341D02*
X030590Y011341D01*
X030562Y011183D02*
X031202Y011183D01*
X031174Y011341D02*
X031262Y011341D01*
X031536Y011658D02*
X031603Y011658D01*
X031561Y011689D02*
X031561Y011689D01*
X031590Y011817D02*
X046630Y011817D01*
X046630Y011975D02*
X031626Y011975D01*
X031609Y012134D02*
X046630Y012134D01*
X046630Y012292D02*
X031573Y012292D01*
X031806Y012451D02*
X031966Y012451D01*
X031966Y012319D02*
X032024Y012327D01*
X032113Y012351D01*
X032198Y012386D01*
X032278Y012432D01*
X032352Y012489D01*
X032417Y012554D01*
X032473Y012627D01*
X032519Y012707D01*
X032555Y012793D01*
X032579Y012882D01*
X032586Y012940D01*
X031966Y012940D01*
X031966Y012319D01*
X031966Y012609D02*
X031806Y012609D01*
X031806Y012768D02*
X031966Y012768D01*
X031966Y012926D02*
X031806Y012926D01*
X031806Y013085D02*
X029958Y013085D01*
X030548Y013243D02*
X031216Y013243D01*
X031292Y013402D02*
X030472Y013402D01*
X030577Y012926D02*
X031187Y012926D01*
X031227Y012768D02*
X030537Y012768D01*
X029305Y012609D02*
X014000Y012609D01*
X013975Y012768D02*
X029219Y012768D01*
X029179Y012926D02*
X013950Y012926D01*
X013868Y013243D02*
X029208Y013243D01*
X029284Y013402D02*
X013816Y013402D01*
X013893Y010866D02*
X029187Y010866D01*
X029241Y010707D02*
X013841Y010707D01*
X013790Y010549D02*
X029345Y010549D01*
X029958Y011024D02*
X031806Y011024D01*
X031806Y011183D02*
X031966Y011183D01*
X031966Y011341D02*
X031806Y011341D01*
X031806Y011500D02*
X031966Y011500D01*
X031966Y011658D02*
X031806Y011658D01*
X032169Y011658D02*
X046630Y011658D01*
X046630Y011500D02*
X032395Y011500D01*
X032510Y011341D02*
X046630Y011341D01*
X046630Y011183D02*
X032570Y011183D01*
X032576Y010866D02*
X046630Y010866D01*
X046630Y011024D02*
X031966Y011024D01*
X032522Y010707D02*
X046630Y010707D01*
X046630Y010549D02*
X032419Y010549D01*
X031353Y010549D02*
X030411Y010549D01*
X030515Y010707D02*
X031249Y010707D01*
X031195Y010866D02*
X030569Y010866D01*
X035060Y010517D02*
X035060Y010517D01*
X035475Y010390D02*
X046630Y010390D01*
X046630Y010232D02*
X035792Y010232D01*
X035599Y010352D02*
X035599Y010352D01*
X036045Y010073D02*
X046630Y010073D01*
X046630Y009915D02*
X036206Y009915D01*
X036360Y009756D02*
X046630Y009756D01*
X046630Y009598D02*
X036519Y009598D01*
X036677Y009439D02*
X046630Y009439D01*
X046630Y009281D02*
X036836Y009281D01*
X036994Y009122D02*
X046630Y009122D01*
X046630Y008964D02*
X037153Y008964D01*
X037311Y008805D02*
X046630Y008805D01*
X046630Y008647D02*
X037470Y008647D01*
X037628Y008488D02*
X046630Y008488D01*
X046630Y008330D02*
X037787Y008330D01*
X037945Y008171D02*
X046630Y008171D01*
X046630Y008013D02*
X038104Y008013D01*
X038262Y007854D02*
X046630Y007854D01*
X046630Y007696D02*
X038421Y007696D01*
X038579Y007537D02*
X046630Y007537D01*
X046630Y007379D02*
X038738Y007379D01*
X038896Y007220D02*
X046630Y007220D01*
X046630Y007062D02*
X039055Y007062D01*
X039213Y006903D02*
X046630Y006903D01*
X046630Y006745D02*
X039372Y006745D01*
X046335Y006745D02*
X049345Y006745D01*
X049305Y006903D02*
X046335Y006903D01*
X046335Y007062D02*
X049305Y007062D01*
X049305Y007220D02*
X046335Y007220D01*
X046335Y007379D02*
X049210Y007379D01*
X049210Y007537D02*
X046335Y007537D01*
X046335Y007696D02*
X049210Y007696D01*
X049210Y007854D02*
X046335Y007854D01*
X046335Y008013D02*
X049312Y008013D01*
X049702Y008171D02*
X046335Y008171D01*
X046335Y008330D02*
X049702Y008330D01*
X049702Y008488D02*
X046335Y008488D01*
X046335Y008647D02*
X049702Y008647D01*
X049702Y008805D02*
X046335Y008805D01*
X046335Y008964D02*
X049702Y008964D01*
X049618Y009122D02*
X049595Y009122D01*
X050258Y009097D02*
X050318Y009097D01*
X050356Y009135D01*
X050394Y009097D01*
X051070Y009097D01*
X051106Y009133D01*
X051142Y009097D01*
X051818Y009097D01*
X051934Y009213D01*
X051934Y009332D01*
X052278Y009332D01*
X052278Y009213D01*
X052394Y009097D01*
X052627Y009097D01*
X052828Y008560D01*
X052828Y008555D01*
X052848Y008509D01*
X052865Y008461D01*
X052869Y008458D01*
X052871Y008453D01*
X052906Y008417D01*
X052941Y008380D01*
X052945Y008378D01*
X052949Y008375D01*
X052995Y008355D01*
X053041Y008334D01*
X053046Y008334D01*
X053051Y008332D01*
X053101Y008332D01*
X053152Y008331D01*
X053157Y008332D01*
X053328Y008332D01*
X053328Y008105D01*
X053326Y008105D01*
X053210Y007989D01*
X053210Y007429D01*
X053326Y007313D01*
X053730Y007313D01*
X053730Y007206D01*
X053601Y007078D01*
X052249Y007078D01*
X052249Y007155D01*
X052143Y007411D01*
X051947Y007608D01*
X051690Y007714D01*
X051412Y007714D01*
X051156Y007608D01*
X050959Y007411D01*
X050853Y007155D01*
X050853Y007078D01*
X049861Y007078D01*
X049861Y007234D01*
X049886Y007234D01*
X050003Y007350D01*
X050003Y007600D01*
X050127Y007705D01*
X050138Y007709D01*
X050169Y007740D01*
X050202Y007768D01*
X050207Y007779D01*
X050216Y007788D01*
X050233Y007828D01*
X050253Y007866D01*
X050254Y007879D01*
X050258Y007890D01*
X050258Y007933D01*
X050262Y007977D01*
X050258Y007988D01*
X050258Y009097D01*
X050343Y009122D02*
X050370Y009122D01*
X050258Y008964D02*
X052677Y008964D01*
X052737Y008805D02*
X050258Y008805D01*
X050258Y008647D02*
X052796Y008647D01*
X052855Y008488D02*
X050258Y008488D01*
X050258Y008330D02*
X053328Y008330D01*
X053328Y008171D02*
X050258Y008171D01*
X050258Y008013D02*
X053233Y008013D01*
X053210Y007854D02*
X050246Y007854D01*
X050116Y007696D02*
X051367Y007696D01*
X051085Y007537D02*
X050003Y007537D01*
X050003Y007379D02*
X050946Y007379D01*
X050880Y007220D02*
X049861Y007220D01*
X049583Y006898D02*
X049681Y006799D01*
X051551Y006799D01*
X053717Y006799D01*
X054106Y007189D01*
X054106Y007193D01*
X054106Y009217D01*
X053480Y009611D02*
X054732Y009611D01*
X055480Y009611D02*
X056732Y009611D01*
X056278Y009889D02*
X055934Y009889D01*
X055934Y010008D01*
X055818Y010124D01*
X055758Y010124D01*
X055758Y010933D01*
X055783Y010933D01*
X056092Y010952D01*
X056396Y011008D01*
X056691Y011100D01*
X056973Y011226D01*
X057237Y011386D01*
X057480Y011577D01*
X057699Y011795D01*
X057890Y012039D01*
X058049Y012303D01*
X058176Y012585D01*
X058268Y012880D01*
X058324Y013184D01*
X058343Y013492D01*
X058532Y013492D01*
X058554Y013470D01*
X059115Y013470D01*
X059137Y013492D01*
X061984Y013492D01*
X062004Y013172D01*
X062061Y012856D01*
X062157Y012550D01*
X062289Y012257D01*
X062455Y011983D01*
X062653Y011730D01*
X062879Y011503D01*
X063132Y011305D01*
X063407Y011139D01*
X063699Y011008D01*
X063828Y010967D01*
X063828Y010114D01*
X063818Y010124D01*
X063142Y010124D01*
X063106Y010088D01*
X063070Y010124D01*
X062394Y010124D01*
X062278Y010008D01*
X062278Y009889D01*
X061434Y009889D01*
X061434Y010008D01*
X061318Y010124D01*
X060642Y010124D01*
X060606Y010088D01*
X060570Y010124D01*
X059894Y010124D01*
X059778Y010008D01*
X059778Y009889D01*
X057934Y009889D01*
X057934Y010008D01*
X057818Y010124D01*
X057142Y010124D01*
X057106Y010088D01*
X057070Y010124D01*
X056394Y010124D01*
X056278Y010008D01*
X056278Y009889D01*
X056278Y009915D02*
X055934Y009915D01*
X055869Y010073D02*
X056344Y010073D01*
X055758Y010232D02*
X063828Y010232D01*
X063828Y010390D02*
X055758Y010390D01*
X055758Y010549D02*
X063828Y010549D01*
X063828Y010707D02*
X055758Y010707D01*
X055758Y010866D02*
X063828Y010866D01*
X063663Y011024D02*
X056448Y011024D01*
X056875Y011183D02*
X063335Y011183D01*
X063087Y011341D02*
X057162Y011341D01*
X057382Y011500D02*
X062884Y011500D01*
X062725Y011658D02*
X057562Y011658D01*
X057715Y011817D02*
X062585Y011817D01*
X062461Y011975D02*
X057840Y011975D01*
X057947Y012134D02*
X062364Y012134D01*
X062273Y012292D02*
X058043Y012292D01*
X058116Y012451D02*
X062202Y012451D01*
X062139Y012609D02*
X058184Y012609D01*
X058233Y012768D02*
X062089Y012768D01*
X062049Y012926D02*
X058277Y012926D01*
X058306Y013085D02*
X062020Y013085D01*
X061999Y013243D02*
X058327Y013243D01*
X058337Y013402D02*
X061990Y013402D01*
X058835Y013866D02*
X058815Y014004D01*
X058815Y015166D01*
X060311Y016051D02*
X061197Y015166D01*
X061217Y015166D01*
X060311Y016051D02*
X060311Y016622D01*
X059130Y016622D02*
X059051Y016544D01*
X058146Y016544D01*
X057949Y016740D01*
X057949Y017922D01*
X053717Y015166D02*
X053717Y013985D01*
X048831Y013603D02*
X048835Y011114D01*
X050819Y011111D01*
X051606Y009736D01*
X051480Y009611D01*
X052732Y009611D01*
X053106Y008611D01*
X053606Y008611D01*
X053606Y007709D01*
X053210Y007696D02*
X051735Y007696D01*
X052017Y007537D02*
X053210Y007537D01*
X053260Y007379D02*
X052157Y007379D01*
X052222Y007220D02*
X053730Y007220D01*
X054127Y006817D02*
X054262Y006817D01*
X054483Y007037D01*
X054483Y007313D01*
X054886Y007313D01*
X055003Y007429D01*
X055003Y007989D01*
X054886Y008105D01*
X054884Y008105D01*
X054884Y008332D01*
X057105Y008332D01*
X057158Y008332D01*
X057160Y008332D01*
X057162Y008332D01*
X057211Y008353D01*
X057261Y008373D01*
X057262Y008374D01*
X057264Y008375D01*
X057302Y008413D01*
X057340Y008450D01*
X057341Y008452D01*
X057342Y008453D01*
X057363Y008503D01*
X057617Y009097D01*
X057818Y009097D01*
X057934Y009213D01*
X057934Y009332D01*
X059778Y009332D01*
X059778Y009213D01*
X059894Y009097D01*
X060570Y009097D01*
X060606Y009133D01*
X060642Y009097D01*
X061318Y009097D01*
X061434Y009213D01*
X061434Y009332D01*
X062278Y009332D01*
X062278Y009213D01*
X062394Y009097D01*
X062494Y009097D01*
X062494Y008903D01*
X062489Y008884D01*
X062494Y008848D01*
X062494Y008811D01*
X062501Y008794D01*
X062503Y008775D01*
X062522Y008743D01*
X062536Y008709D01*
X062549Y008695D01*
X062559Y008679D01*
X062588Y008657D01*
X062614Y008631D01*
X062632Y008623D01*
X062923Y008401D01*
X062949Y008375D01*
X062966Y008367D01*
X062981Y008356D01*
X063017Y008347D01*
X063051Y008332D01*
X063070Y008332D01*
X063088Y008328D01*
X063125Y008332D01*
X063828Y008332D01*
X063828Y008007D01*
X063826Y008007D01*
X063710Y007891D01*
X063710Y007330D01*
X063826Y007214D01*
X064386Y007214D01*
X064503Y007330D01*
X064503Y007891D01*
X064386Y008007D01*
X064384Y008007D01*
X064384Y008666D01*
X064342Y008768D01*
X064264Y008846D01*
X064162Y008889D01*
X063200Y008889D01*
X063050Y009004D01*
X063050Y009097D01*
X063070Y009097D01*
X063106Y009133D01*
X063142Y009097D01*
X063818Y009097D01*
X063934Y009213D01*
X063934Y009332D01*
X064278Y009332D01*
X064278Y009213D01*
X064394Y009097D01*
X065070Y009097D01*
X065106Y009133D01*
X065142Y009097D01*
X065818Y009097D01*
X065934Y009213D01*
X065934Y009332D01*
X066278Y009332D01*
X066278Y009213D01*
X066394Y009097D01*
X067070Y009097D01*
X067106Y009133D01*
X067142Y009097D01*
X067200Y009097D01*
X066967Y008865D01*
X065051Y008865D01*
X064949Y008823D01*
X064871Y008744D01*
X064828Y008642D01*
X064828Y008007D01*
X064826Y008007D01*
X064710Y007891D01*
X064710Y007330D01*
X064826Y007214D01*
X065386Y007214D01*
X065503Y007330D01*
X065503Y007891D01*
X065386Y008007D01*
X065384Y008007D01*
X065384Y008309D01*
X066744Y008309D01*
X066744Y008111D01*
X067224Y008111D01*
X067224Y008111D01*
X066744Y008111D01*
X066744Y007912D01*
X067026Y007631D01*
X067224Y007631D01*
X067224Y008110D01*
X067224Y008110D01*
X067224Y007631D01*
X067423Y007631D01*
X067704Y007912D01*
X067704Y008111D01*
X067704Y008309D01*
X067451Y008562D01*
X067842Y008953D01*
X067884Y009055D01*
X067884Y009164D01*
X067934Y009213D01*
X067934Y009332D01*
X068278Y009332D01*
X068278Y009213D01*
X068394Y009097D01*
X069070Y009097D01*
X069106Y009133D01*
X069142Y009097D01*
X069202Y009097D01*
X069202Y008181D01*
X069245Y008079D01*
X069323Y008001D01*
X069449Y007875D01*
X069551Y007832D01*
X070490Y007832D01*
X070293Y007609D01*
X070018Y007609D01*
X069726Y007317D01*
X069726Y006904D01*
X070018Y006612D01*
X070431Y006612D01*
X070723Y006904D01*
X070723Y007255D01*
X071232Y007832D01*
X071798Y007832D01*
X072018Y007612D01*
X072431Y007612D01*
X072528Y007710D01*
X072528Y006603D01*
X053913Y006603D01*
X054127Y006817D01*
X054055Y006745D02*
X069886Y006745D01*
X069727Y006903D02*
X054349Y006903D01*
X054483Y007062D02*
X069726Y007062D01*
X069726Y007220D02*
X065392Y007220D01*
X065503Y007379D02*
X069788Y007379D01*
X069946Y007537D02*
X065503Y007537D01*
X065503Y007696D02*
X066961Y007696D01*
X066802Y007854D02*
X065503Y007854D01*
X065384Y008013D02*
X066744Y008013D01*
X066744Y008171D02*
X065384Y008171D01*
X064828Y008171D02*
X064384Y008171D01*
X064384Y008013D02*
X064828Y008013D01*
X064710Y007854D02*
X064503Y007854D01*
X064503Y007696D02*
X064710Y007696D01*
X064710Y007537D02*
X064503Y007537D01*
X064503Y007379D02*
X064710Y007379D01*
X064820Y007220D02*
X064392Y007220D01*
X063820Y007220D02*
X063392Y007220D01*
X063386Y007214D02*
X063503Y007330D01*
X063503Y007891D01*
X063386Y008007D01*
X062826Y008007D01*
X062713Y007894D01*
X056003Y007982D01*
X056003Y007989D01*
X055886Y008105D01*
X055326Y008105D01*
X055210Y007989D01*
X055210Y007429D01*
X055326Y007313D01*
X055886Y007313D01*
X055999Y007426D01*
X062710Y007338D01*
X062710Y007330D01*
X062826Y007214D01*
X063386Y007214D01*
X063503Y007379D02*
X063710Y007379D01*
X063710Y007537D02*
X063503Y007537D01*
X063503Y007696D02*
X063710Y007696D01*
X063710Y007854D02*
X063503Y007854D01*
X063828Y008013D02*
X055979Y008013D01*
X055606Y007709D02*
X063106Y007611D01*
X064106Y007611D02*
X064106Y008611D01*
X063106Y008611D01*
X062772Y008866D01*
X062772Y009571D01*
X062771Y009571D02*
X062770Y009581D01*
X062766Y009591D01*
X062760Y009599D01*
X062752Y009605D01*
X062742Y009609D01*
X062732Y009610D01*
X062732Y009611D02*
X060980Y009611D01*
X061434Y009915D02*
X062278Y009915D01*
X062344Y010073D02*
X061369Y010073D01*
X060232Y009611D02*
X057480Y009611D01*
X057480Y009485D01*
X057106Y008611D01*
X054606Y008611D01*
X054606Y007709D01*
X055003Y007696D02*
X055210Y007696D01*
X055210Y007854D02*
X055003Y007854D01*
X054979Y008013D02*
X055233Y008013D01*
X054884Y008171D02*
X063828Y008171D01*
X063828Y008330D02*
X063103Y008330D01*
X063081Y008330D02*
X054884Y008330D01*
X055003Y007537D02*
X055210Y007537D01*
X055260Y007379D02*
X054952Y007379D01*
X054483Y007220D02*
X062820Y007220D01*
X065106Y007611D02*
X065106Y008587D01*
X067083Y008587D01*
X067606Y009111D01*
X067606Y009485D01*
X067480Y009611D01*
X068732Y009611D01*
X068278Y009889D02*
X067934Y009889D01*
X067934Y010008D01*
X067818Y010124D01*
X067142Y010124D01*
X067106Y010088D01*
X067070Y010124D01*
X066394Y010124D01*
X066278Y010008D01*
X066278Y009889D01*
X065934Y009889D01*
X065934Y010008D01*
X065818Y010124D01*
X065799Y010124D01*
X065797Y010136D01*
X065778Y010169D01*
X065763Y010205D01*
X065751Y010217D01*
X065743Y010232D01*
X065712Y010256D01*
X065685Y010283D01*
X065669Y010290D01*
X065384Y010513D01*
X065384Y010835D01*
X068087Y010835D01*
X068407Y010854D01*
X068723Y010912D01*
X069029Y011008D01*
X069322Y011139D01*
X069596Y011305D01*
X069849Y011503D01*
X070076Y011730D01*
X070274Y011983D01*
X070440Y012257D01*
X070571Y012550D01*
X070667Y012856D01*
X070725Y013172D01*
X070744Y013492D01*
X070744Y013944D01*
X072519Y013944D01*
X072528Y013953D01*
X072528Y008511D01*
X072431Y008609D01*
X072018Y008609D01*
X071798Y008389D01*
X071153Y008389D01*
X071144Y008392D01*
X071098Y008389D01*
X069758Y008389D01*
X069758Y009097D01*
X069818Y009097D01*
X069934Y009213D01*
X069934Y010008D01*
X069818Y010124D01*
X069142Y010124D01*
X069106Y010088D01*
X069070Y010124D01*
X068394Y010124D01*
X068278Y010008D01*
X068278Y009889D01*
X068278Y009915D02*
X067934Y009915D01*
X067869Y010073D02*
X068344Y010073D01*
X069480Y009611D02*
X069480Y008236D01*
X069606Y008111D01*
X071106Y008111D01*
X072224Y008111D01*
X071935Y007696D02*
X071111Y007696D01*
X070971Y007537D02*
X072528Y007537D01*
X072528Y007379D02*
X070832Y007379D01*
X070723Y007220D02*
X072528Y007220D01*
X072528Y007062D02*
X070723Y007062D01*
X070721Y006903D02*
X072528Y006903D01*
X072528Y006745D02*
X070563Y006745D01*
X070224Y007111D02*
X071106Y008111D01*
X070370Y007696D02*
X067488Y007696D01*
X067647Y007854D02*
X069499Y007854D01*
X069311Y008013D02*
X067704Y008013D01*
X067704Y008111D02*
X067224Y008111D01*
X067704Y008111D01*
X067704Y008171D02*
X069206Y008171D01*
X069202Y008330D02*
X067684Y008330D01*
X067526Y008488D02*
X069202Y008488D01*
X069202Y008647D02*
X067536Y008647D01*
X067694Y008805D02*
X069202Y008805D01*
X069202Y008964D02*
X067846Y008964D01*
X067884Y009122D02*
X068370Y009122D01*
X068278Y009281D02*
X067934Y009281D01*
X069095Y009122D02*
X069118Y009122D01*
X069758Y008964D02*
X072528Y008964D01*
X072528Y009122D02*
X069843Y009122D01*
X069934Y009281D02*
X072528Y009281D01*
X072528Y009439D02*
X069934Y009439D01*
X069934Y009598D02*
X072528Y009598D01*
X072528Y009756D02*
X069934Y009756D01*
X069934Y009915D02*
X072528Y009915D01*
X072528Y010073D02*
X069869Y010073D01*
X069065Y011024D02*
X072528Y011024D01*
X072528Y010866D02*
X068468Y010866D01*
X069393Y011183D02*
X072528Y011183D01*
X072528Y011341D02*
X069642Y011341D01*
X069844Y011500D02*
X072528Y011500D01*
X072528Y011658D02*
X070004Y011658D01*
X070143Y011817D02*
X072528Y011817D01*
X072528Y011975D02*
X070268Y011975D01*
X070365Y012134D02*
X072528Y012134D01*
X072528Y012292D02*
X070455Y012292D01*
X070527Y012451D02*
X072528Y012451D01*
X072528Y012609D02*
X070590Y012609D01*
X070639Y012768D02*
X072528Y012768D01*
X072528Y012926D02*
X070680Y012926D01*
X070709Y013085D02*
X072528Y013085D01*
X072528Y013243D02*
X070729Y013243D01*
X070739Y013402D02*
X072528Y013402D01*
X072528Y013560D02*
X070744Y013560D01*
X070744Y013719D02*
X072528Y013719D01*
X072528Y013877D02*
X070744Y013877D01*
X066315Y013945D02*
X066315Y015166D01*
X065106Y011414D02*
X065106Y010378D01*
X065528Y010048D01*
X065528Y009658D01*
X065480Y009611D01*
X066732Y009611D01*
X066278Y009915D02*
X065934Y009915D01*
X065869Y010073D02*
X066344Y010073D01*
X065743Y010232D02*
X072528Y010232D01*
X072528Y010390D02*
X065542Y010390D01*
X065384Y010549D02*
X072528Y010549D01*
X072528Y010707D02*
X065384Y010707D01*
X064106Y011414D02*
X064106Y009611D01*
X064732Y009611D01*
X064278Y009281D02*
X063934Y009281D01*
X063843Y009122D02*
X064370Y009122D01*
X065095Y009122D02*
X065118Y009122D01*
X065843Y009122D02*
X066370Y009122D01*
X066278Y009281D02*
X065934Y009281D01*
X067095Y009122D02*
X067118Y009122D01*
X067066Y008964D02*
X063103Y008964D01*
X063095Y009122D02*
X063118Y009122D01*
X062494Y008964D02*
X057560Y008964D01*
X057492Y008805D02*
X062496Y008805D01*
X062598Y008647D02*
X057424Y008647D01*
X057357Y008488D02*
X062809Y008488D01*
X064305Y008805D02*
X064931Y008805D01*
X064830Y008647D02*
X064384Y008647D01*
X064384Y008488D02*
X064828Y008488D01*
X064828Y008330D02*
X064384Y008330D01*
X062370Y009122D02*
X061343Y009122D01*
X061434Y009281D02*
X062278Y009281D01*
X063480Y009611D02*
X064106Y009611D01*
X060618Y009122D02*
X060595Y009122D01*
X059870Y009122D02*
X057843Y009122D01*
X057934Y009281D02*
X059778Y009281D01*
X059778Y009915D02*
X057934Y009915D01*
X057869Y010073D02*
X059844Y010073D01*
X055480Y009611D02*
X055480Y011236D01*
X055390Y011327D01*
X054606Y011327D01*
X054606Y011315D01*
X054110Y011327D02*
X054110Y010638D01*
X054106Y010634D01*
X054106Y009965D01*
X054098Y009973D02*
X054098Y010322D01*
X053884Y010322D01*
X053884Y010933D01*
X055202Y010933D01*
X055202Y010124D01*
X055142Y010124D01*
X055106Y010088D01*
X055070Y010124D01*
X054542Y010124D01*
X054542Y010166D01*
X054530Y010211D01*
X054506Y010253D01*
X054473Y010286D01*
X054432Y010310D01*
X054386Y010322D01*
X054115Y010322D01*
X054115Y009973D01*
X054098Y009973D01*
X054098Y010073D02*
X054115Y010073D01*
X054098Y010232D02*
X054115Y010232D01*
X053884Y010390D02*
X055202Y010390D01*
X055202Y010232D02*
X054518Y010232D01*
X053884Y010549D02*
X055202Y010549D01*
X055202Y010707D02*
X053884Y010707D01*
X053884Y010866D02*
X055202Y010866D01*
X053606Y011315D02*
X053606Y010111D01*
X053480Y009985D01*
X053480Y009611D01*
X053237Y010124D02*
X053142Y010124D01*
X053106Y010088D01*
X053070Y010124D01*
X052394Y010124D01*
X052278Y010008D01*
X052278Y009889D01*
X051934Y009889D01*
X051934Y010008D01*
X051818Y010124D01*
X051705Y010124D01*
X051176Y011047D01*
X051332Y011002D01*
X051636Y010951D01*
X051945Y010933D01*
X053328Y010933D01*
X053328Y010226D01*
X053245Y010142D01*
X053237Y010124D01*
X053328Y010232D02*
X051643Y010232D01*
X051552Y010390D02*
X053328Y010390D01*
X053328Y010549D02*
X051461Y010549D01*
X051371Y010707D02*
X053328Y010707D01*
X053328Y010866D02*
X051280Y010866D01*
X051257Y011024D02*
X051189Y011024D01*
X051869Y010073D02*
X052344Y010073D01*
X052278Y009915D02*
X051934Y009915D01*
X051934Y009281D02*
X052278Y009281D01*
X052370Y009122D02*
X051843Y009122D01*
X051118Y009122D02*
X051095Y009122D01*
X050732Y009611D02*
X049980Y009611D01*
X049980Y007945D01*
X049606Y007630D01*
X049583Y007685D01*
X049583Y006898D01*
X055952Y007379D02*
X059591Y007379D01*
X067224Y007696D02*
X067224Y007696D01*
X067224Y007854D02*
X067224Y007854D01*
X067224Y008013D02*
X067224Y008013D01*
X067224Y008111D02*
X067224Y008111D01*
X069758Y008488D02*
X071897Y008488D01*
X072528Y008647D02*
X069758Y008647D01*
X069758Y008805D02*
X072528Y008805D01*
X072514Y007696D02*
X072528Y007696D01*
X049232Y009611D02*
X048476Y009630D01*
X048472Y012024D01*
X048469Y013288D01*
X046902Y013307D01*
X046894Y015717D01*
X043815Y015744D01*
X043579Y016083D01*
X043571Y016622D01*
X043235Y016572D02*
X038577Y016572D01*
X038735Y016730D02*
X042592Y016730D01*
X042585Y016889D02*
X038894Y016889D01*
X039052Y017047D02*
X042585Y017047D01*
X042585Y017206D02*
X039211Y017206D01*
X039369Y017364D02*
X043391Y017364D01*
X043391Y017523D02*
X039528Y017523D01*
X039686Y017681D02*
X042585Y017681D01*
X043375Y017681D02*
X043456Y017681D01*
X043444Y017206D02*
X043375Y017206D01*
X043375Y017047D02*
X043576Y017047D01*
X044752Y016622D02*
X044752Y016311D01*
X045043Y016083D01*
X047236Y016040D01*
X047236Y013603D01*
X048831Y013603D01*
X048192Y012926D02*
X046335Y012926D01*
X046335Y012768D02*
X048192Y012768D01*
X048193Y012609D02*
X046335Y012609D01*
X046335Y012451D02*
X048193Y012451D01*
X048193Y012292D02*
X046335Y012292D01*
X046335Y012134D02*
X048194Y012134D01*
X048194Y011975D02*
X046335Y011975D01*
X046335Y011817D02*
X048195Y011817D01*
X048195Y011658D02*
X046335Y011658D01*
X046335Y011500D02*
X048195Y011500D01*
X048195Y011341D02*
X046335Y011341D01*
X046335Y011183D02*
X048196Y011183D01*
X048196Y011024D02*
X046335Y011024D01*
X046335Y010866D02*
X048196Y010866D01*
X048196Y010707D02*
X046335Y010707D01*
X046335Y010549D02*
X048197Y010549D01*
X048197Y010390D02*
X046335Y010390D01*
X046335Y010232D02*
X048197Y010232D01*
X048198Y010073D02*
X046335Y010073D01*
X046335Y009915D02*
X048198Y009915D01*
X048198Y009756D02*
X046335Y009756D01*
X046335Y009598D02*
X048197Y009598D01*
X048274Y009439D02*
X046335Y009439D01*
X046335Y009281D02*
X048778Y009281D01*
X048870Y009122D02*
X046335Y009122D01*
X046630Y012451D02*
X032302Y012451D01*
X032459Y012609D02*
X046630Y012609D01*
X046630Y012768D02*
X032544Y012768D01*
X032585Y012926D02*
X046630Y012926D01*
X046630Y013085D02*
X031966Y013085D01*
X032556Y013243D02*
X046627Y013243D01*
X046335Y013243D01*
X046335Y013085D02*
X046730Y013085D01*
X046623Y013402D02*
X046335Y013402D01*
X046335Y013560D02*
X046623Y013560D01*
X035124Y013560D01*
X035252Y013586D02*
X035252Y013586D01*
X035573Y013719D02*
X046622Y013719D01*
X046335Y013719D01*
X046335Y013877D02*
X046622Y013877D01*
X035834Y013877D01*
X036041Y014036D02*
X046621Y014036D01*
X046335Y014036D01*
X046335Y014194D02*
X046621Y014194D01*
X036199Y014194D01*
X036127Y014122D02*
X036127Y014122D01*
X036358Y014353D02*
X046620Y014353D01*
X046335Y014353D01*
X046335Y014511D02*
X046620Y014511D01*
X036516Y014511D01*
X036675Y014670D02*
X046619Y014670D01*
X046335Y014670D01*
X046335Y014828D02*
X046618Y014828D01*
X036833Y014828D01*
X036992Y014987D02*
X046618Y014987D01*
X046335Y014987D01*
X046335Y015145D02*
X046617Y015145D01*
X037150Y015145D01*
X037309Y015304D02*
X046617Y015304D01*
X046335Y015304D01*
X044287Y015462D02*
X043826Y015462D01*
X043814Y015462D02*
X037467Y015462D01*
X037626Y015621D02*
X043562Y015621D01*
X043452Y015779D02*
X037784Y015779D01*
X037943Y015938D02*
X043339Y015938D01*
X043299Y016096D02*
X038101Y016096D01*
X038260Y016255D02*
X043298Y016255D01*
X043235Y016413D02*
X038418Y016413D01*
X032480Y013402D02*
X046623Y013402D01*
X048598Y015166D02*
X048618Y015166D01*
X015582Y010390D02*
X013738Y010390D01*
X013670Y010232D02*
X015476Y010232D01*
X015421Y010073D02*
X013589Y010073D01*
X013509Y009915D02*
X015365Y009915D01*
X015306Y009756D02*
X013428Y009756D01*
X013325Y009598D02*
X015229Y009598D01*
X015152Y009439D02*
X013209Y009439D01*
X013094Y009281D02*
X015076Y009281D01*
X014999Y009122D02*
X012975Y009122D01*
X012816Y008964D02*
X014918Y008964D01*
X014811Y008805D02*
X012658Y008805D01*
X012499Y008647D02*
X014703Y008647D01*
X014596Y008488D02*
X012281Y008488D01*
X012063Y008330D02*
X014488Y008330D01*
X014361Y008171D02*
X011805Y008171D01*
X011494Y008013D02*
X014216Y008013D01*
X014070Y007854D02*
X011106Y007854D01*
X010579Y007696D02*
X013925Y007696D01*
X013665Y016572D02*
X005684Y016572D01*
X005871Y016730D02*
X013471Y016730D01*
X013276Y016889D02*
X006091Y016889D01*
X006310Y017047D02*
X013054Y017047D01*
X012788Y017206D02*
X006544Y017206D01*
X006848Y017364D02*
X012523Y017364D01*
X012194Y017523D02*
X007153Y017523D01*
X007548Y017681D02*
X011811Y017681D01*
X011328Y017840D02*
X008004Y017840D01*
X008748Y017998D02*
X010654Y017998D01*
D22*
X049606Y007630D03*
X053606Y007709D03*
X054606Y007709D03*
X055606Y007709D03*
X063106Y007611D03*
X064106Y007611D03*
X065106Y007611D03*
X065106Y011414D03*
X064106Y011414D03*
X058835Y013866D03*
X053717Y013985D03*
D23*
X053606Y011315D03*
X054110Y011327D03*
X054606Y011315D03*
X054106Y007193D03*
D24*
X053122Y007193D03*
X051453Y008374D03*
X047122Y008374D03*
X047122Y006799D03*
X057654Y008473D03*
X061689Y008473D03*
X065921Y007587D03*
X068087Y006799D03*
X072319Y006799D03*
X072319Y008965D03*
X068087Y008965D03*
X068087Y010540D03*
X069563Y010540D03*
X071531Y010540D03*
X072319Y012705D03*
X060961Y010559D03*
X059661Y010559D03*
X059622Y012961D03*
X051453Y011130D03*
X048008Y010638D03*
X057949Y017922D03*
D25*
X046402Y014575D03*
X044787Y014603D03*
X041992Y014563D03*
X039906Y014524D03*
X038370Y014524D03*
X038957Y015402D03*
X039902Y016130D03*
X041953Y016095D03*
X042760Y016063D03*
X042831Y013130D03*
X043500Y013130D03*
X044130Y013130D03*
X042240Y012540D03*
X044787Y011650D03*
X046409Y011630D03*
X046413Y012559D03*
X040862Y010965D03*
X041689Y010729D03*
X042543Y009642D03*
X041610Y009272D03*
X040902Y009075D03*
X038382Y009626D03*
X039906Y008048D03*
X042484Y008059D03*
X044835Y008024D03*
X044811Y009638D03*
X046406Y009630D03*
X038374Y011410D03*
X036945Y011441D03*
X036354Y011445D03*
X035803Y011445D03*
X034661Y011449D03*
X034028Y011445D03*
X033402Y011445D03*
X032787Y011445D03*
X032811Y012595D03*
X033402Y012579D03*
X034035Y012583D03*
X034665Y012595D03*
X035244Y012595D03*
X035803Y012599D03*
X036358Y012591D03*
X036965Y012587D03*
X037500Y012583D03*
X038197Y012583D03*
X038886Y012555D03*
X039354Y012492D03*
X039157Y012988D03*
X029071Y012607D03*
X028441Y012607D03*
X028047Y013040D03*
X026906Y013000D03*
X026512Y012607D03*
X025843Y012607D03*
X025173Y012607D03*
X024543Y012607D03*
X023795Y012607D03*
X023087Y012607D03*
X022417Y012607D03*
X021748Y012607D03*
X021118Y012607D03*
X020488Y012607D03*
X019819Y012607D03*
X019189Y012607D03*
X018480Y012607D03*
X017732Y012607D03*
X017063Y012607D03*
X016354Y012607D03*
X015646Y012607D03*
X014858Y012803D03*
X014189Y012961D03*
X013913Y013709D03*
X015173Y014221D03*
X015331Y013591D03*
X013559Y014339D03*
X013126Y014929D03*
X012654Y015441D03*
X012063Y015874D03*
X011472Y016229D03*
X010843Y016465D03*
X010213Y016583D03*
X009504Y016622D03*
X008835Y016544D03*
X008205Y016386D03*
X007614Y016150D03*
X007063Y015796D03*
X006512Y015441D03*
X006079Y014969D03*
X004819Y015362D03*
X005134Y015835D03*
X005528Y016268D03*
X006000Y016662D03*
X006472Y017016D03*
X007063Y017331D03*
X007654Y017607D03*
X008283Y017803D03*
X008953Y017922D03*
X009543Y018000D03*
X010134Y017961D03*
X010724Y017882D03*
X011315Y017725D03*
X011906Y017528D03*
X012417Y017292D03*
X012929Y017016D03*
X013362Y016701D03*
X013795Y016307D03*
X014189Y015874D03*
X014543Y015402D03*
X014858Y014929D03*
X014228Y012134D03*
X014150Y011386D03*
X015685Y011425D03*
X016315Y011425D03*
X016984Y011425D03*
X017654Y011425D03*
X018362Y011425D03*
X019110Y011425D03*
X019740Y011425D03*
X020409Y011425D03*
X021079Y011425D03*
X021748Y011425D03*
X022378Y011425D03*
X023008Y011425D03*
X023638Y011425D03*
X024307Y011425D03*
X024976Y011425D03*
X025646Y011425D03*
X026315Y011425D03*
X026984Y011425D03*
X027614Y011425D03*
X028795Y011425D03*
X028205Y010835D03*
X015567Y010796D03*
X015331Y010166D03*
X013992Y010677D03*
X013717Y010008D03*
X013362Y009418D03*
X012929Y008866D03*
X012378Y008394D03*
X011787Y008000D03*
X011157Y007725D03*
X010528Y007567D03*
X009898Y007488D03*
X009228Y007488D03*
X008638Y007567D03*
X008087Y007764D03*
X007496Y008000D03*
X006984Y008355D03*
X006512Y008748D03*
X006079Y009221D03*
X004858Y008630D03*
X004504Y009142D03*
X004228Y009693D03*
X005685Y009811D03*
X004031Y010244D03*
X005370Y010402D03*
X005213Y011032D03*
X003874Y010914D03*
X003795Y011583D03*
X005094Y011583D03*
X005134Y012488D03*
X003717Y012488D03*
X003795Y013079D03*
X005213Y012961D03*
X005213Y013473D03*
X005449Y013945D03*
X004701Y013788D03*
X003992Y013709D03*
X004228Y014260D03*
X004504Y014851D03*
X005685Y014418D03*
X014937Y009457D03*
X014583Y008788D03*
X014150Y008158D03*
X013638Y007646D03*
X013126Y007252D03*
X012575Y006898D03*
X011945Y006622D03*
X011354Y006425D03*
X010646Y006268D03*
X009937Y006189D03*
X009307Y006189D03*
X008677Y006268D03*
X008087Y006386D03*
X007496Y006583D03*
X006906Y006859D03*
X006354Y007174D03*
X005803Y007607D03*
X005291Y008079D03*
D26*
X039949Y011548D03*
X040256Y011548D03*
X040256Y011894D03*
X039949Y011894D03*
D27*
X051551Y007016D02*
X051551Y006799D01*
D28*
X066315Y013945D03*
M02*
