%
M48
M72
T01C0.0118
T02C0.0157
T03C0.0197
T04C0.0236
T05C0.0320
T06C0.0354
T07C0.0500
T08C0.0700
T09C0.7874
%
T01
X39949Y11548
X40256Y11548
X40256Y11894
X39949Y11894
T02
X8677Y6268
X8087Y6386
X7496Y6583
X6906Y6859
X6354Y7174
X5803Y7607
X5291Y8079
X6984Y8355
X7496Y8000
X8087Y7764
X8638Y7567
X9228Y7488
X9898Y7488
X10528Y7567
X11157Y7725
X11787Y8000
X12378Y8394
X12929Y8866
X13362Y9418
X14937Y9457
X14583Y8788
X14150Y8158
X13638Y7646
X13126Y7252
X12575Y6898
X11945Y6622
X11354Y6425
X10646Y6268
X9937Y6189
X9307Y6189
X6512Y8748
X6079Y9221
X4858Y8630
X4504Y9142
X4228Y9693
X5685Y9811
X4031Y10244
X5370Y10402
X5213Y11032
X3874Y10914
X3795Y11583
X5094Y11583
X5134Y12488
X3717Y12488
X3795Y13079
X5213Y12961
X5213Y13473
X5449Y13945
X4701Y13788
X3992Y13709
X4228Y14260
X4504Y14851
X5685Y14418
X6079Y14969
X6512Y15441
X7063Y15796
X7614Y16150
X8205Y16386
X8835Y16544
X9504Y16622
X10213Y16583
X10843Y16465
X11472Y16229
X12063Y15874
X12654Y15441
X13126Y14929
X14543Y15402
X14858Y14929
X13559Y14339
X15173Y14221
X15331Y13591
X13913Y13709
X14189Y12961
X14858Y12803
X15646Y12607
X16354Y12607
X17063Y12607
X17732Y12607
X18480Y12607
X19189Y12607
X19819Y12607
X20488Y12607
X21118Y12607
X21748Y12607
X22417Y12607
X23087Y12607
X23795Y12607
X24543Y12607
X25173Y12607
X25843Y12607
X26512Y12607
X26906Y13000
X28047Y13040
X28441Y12607
X29071Y12607
X28795Y11425
X27614Y11425
X26984Y11425
X26315Y11425
X25646Y11425
X24976Y11425
X24307Y11425
X23638Y11425
X23008Y11425
X22378Y11425
X21748Y11425
X21079Y11425
X20409Y11425
X19740Y11425
X19110Y11425
X18362Y11425
X17654Y11425
X16984Y11425
X16315Y11425
X15685Y11425
X14150Y11386
X13992Y10677
X15331Y10166
X15567Y10796
X13717Y10008
X14228Y12134
X4819Y15362
X5134Y15835
X5528Y16268
X6000Y16662
X6472Y17016
X7063Y17331
X7654Y17607
X8283Y17803
X8953Y17922
X9543Y18000
X10134Y17961
X10724Y17882
X11315Y17725
X11906Y17528
X12417Y17292
X12929Y17016
X13362Y16701
X13795Y16307
X14189Y15874
X28205Y10835
X32787Y11445
X33402Y11445
X34028Y11445
X34661Y11449
X35803Y11445
X36354Y11445
X36945Y11441
X38374Y11410
X40862Y10965
X41689Y10729
X44787Y11650
X46409Y11630
X46413Y12559
X44130Y13130
X43500Y13130
X42831Y13130
X42240Y12540
X39354Y12492
X38886Y12555
X38197Y12583
X37500Y12583
X36965Y12587
X36358Y12591
X35803Y12599
X35244Y12595
X34665Y12595
X34035Y12583
X33402Y12579
X32811Y12595
X38370Y14524
X39906Y14524
X41992Y14563
X44787Y14603
X46402Y14575
X42760Y16063
X41953Y16095
X39902Y16130
X38957Y15402
X39157Y12988
X38382Y9626
X40902Y9075
X41610Y9272
X42543Y9642
X44811Y9638
X46406Y9630
X44835Y8024
X42484Y8059
X39906Y8048
T03
X47122Y8374
X51453Y8374
X53122Y7193
X54106Y7193
X57654Y8473
X61689Y8473
X65921Y7587
X68087Y6799
X72319Y6799
X72319Y8965
X68087Y8965
X68087Y10540
X69563Y10540
X71531Y10540
X72319Y12705
X66315Y13945
X59622Y12961
X54606Y11315
X54110Y11327
X53606Y11315
X51453Y11130
X48008Y10638
X59661Y10559
X60961Y10559
X47122Y6799
X57949Y17922
T04
X58835Y13866
X53717Y13985
X64106Y11414
X65106Y11414
X55606Y7709
X54606Y7709
X53606Y7709
X49606Y7630
X63106Y7611
X64106Y7611
X65106Y7611
T05
X67224Y8111
X70224Y7111
X72224Y8111
T06
X60606Y17429
X59425Y17429
X45047Y17429
X43866Y17429
T07
X30882Y12016
T08
X31886Y13020
X29878Y13020
X29878Y11012
X31886Y11012
T09
X9622Y12016
M30
